<svg id="Layer_2" enable-background="new 0 0 512 512" viewBox="0 0 512 512" xmlns="http://www.w3.org/2000/svg"><g><g><path d="m301.42 37.462c-1.093 0-2.19.224-3.221.677l-19.979 8.789c-7.153 3.147-14.743 4.742-22.558 4.742-8.196 0-16.121-1.747-23.556-5.193l-17.853-8.274c-1.071-.496-2.219-.742-3.364-.742-1.503 0-3 .423-4.307 1.258-2.301 1.47-3.694 4.012-3.694 6.742v22.554l-79.783 38.894c-6.267 2.078-54.194 19.141-68.246 58.95-12.363 35.023-5.801 71.956-2.555 85.742-10.794 8.709-35.422 33.818-37.704 82.908-2.886 6.42-11.53 29.209-1.532 53.283 8.956 21.566 29.968 37.629 62.452 47.743.789.246 1.59.363 2.379.363 3.138 0 6.087-1.858 7.368-4.886 10.601-25.071 14.592-57.973 15.536-67.102l15.682-20.261c2.289 3.812 5.327 8.26 9.282 13.009 8.243 9.898 11.749 23.036 9.62 36.046l-8.755 53.504c-.693 4.234 2.077 8.26 6.279 9.127l76.517 15.78c15.095 3.113 30.563 4.691 45.975 4.691 15.122 0 30.305-1.52 45.126-4.518l78.842-15.948c4.216-.853 7.004-4.888 6.309-9.133l-8.755-53.504c-2.129-13.011 1.377-26.149 9.62-36.046 3.955-4.75 6.993-9.198 9.282-13.009l15.276 19.738c-.198 4.948-.349 15.16.964 26.791 2.54 22.505 9.151 38.821 19.651 48.496 1.497 1.379 3.439 2.117 5.421 2.117.738 0 1.481-.102 2.209-.311 24.712-7.1 42.354-20.196 52.436-38.923 15.287-28.396 7.723-60.024 5.956-66.381-2.087-49.535-26.891-74.825-37.734-83.574 3.246-13.786 9.808-50.72-2.555-85.742-14.053-39.809-61.979-56.871-68.246-58.949l-79.785-38.894v-22.554c0-2.703-1.365-5.223-3.628-6.7-1.32-.861-2.842-1.3-4.372-1.3z" fill="#484f69"/></g><g><path d="m221.172 60.413 12.526 16.321c2.4 3.128 4.251 6.64 5.474 10.388l15.536 47.628c.177.544.268 1.112.268 1.684 0 5.303-6.81 7.463-9.871 3.132-12.382-17.517-31.578-49.908-27.893-78.118.253-1.947 2.763-2.595 3.96-1.035z" fill="#9fabce"/></g><g><path d="m146.937 109.587 50.855-25.03c5.39-2.653 11.842.362 13.267 6.198 1.873 7.669 5.16 18.229 10.711 28.856 2.837 5.431-1.783 11.751-7.812 10.655l-65.805-11.965c-4.393-.799-5.223-6.742-1.216-8.714z" fill="#9fabce"/></g><g><path d="m170.411 134.408s-37.238-18.619-63.422-6.982-57.021 31.42-41.311 121.607c0 0 41.311-30.838 47.13-53.53s30.838-59.35 57.603-61.095z" fill="#9fabce"/></g><g><path d="m242.605 156.559c4.666 2.754 7.52 7.767 7.52 13.185v46.72c0 8.704-6.048 15.996-14.171 17.901-4.694 1.101-9.383 2.22-13.953 3.754l-49.851 16.732c-9.613 0-18.681-4.489-24.464-12.168-6.153-8.172-16.775-17.887-33.478-20.387-3.507-.525-5.224-4.54-3.125-7.399 5.659-7.711 14.206-20.645 16.854-31.613 4.073-16.874 36.075-45.966 58.185-47.712 16.316-1.289 43.406 13.269 56.483 20.987z" fill="#9fabce"/></g><path d="m110.169 243.483v28.823s-13.09 70.544-48.363 97.308c-5.13 3.892-12.553.702-13.298-5.694l-4.094-35.137c-.937-8.045.134-16.197 3.117-23.727l19.893-50.205s22.11-14.546 31.42-22.692c6.254 0 11.325 5.07 11.325 11.324z" fill="#ff004f"/><path d="m48.578 277.147c1.622-1.284 3.836.622 2.83 2.43-4.655 8.367-11.702 22.889-12.824 35.847-1.105 12.77-.772 30.815-.404 41.857.078 2.346-3.072 3.176-4.159 1.095l-5.407-10.35c-2.304-4.41-3.429-9.341-3.224-14.312.566-13.726 4.161-41.496 23.188-56.567z" fill="#ff8564"/><path d="m112.355 298.082v8.785c0 3.786-.666 7.54-1.997 11.085-2.851 7.595-8.865 20.797-18.739 29.621-1.047.936-2.627-.261-2.01-1.523 4.655-9.513 14.642-30.743 20.07-48.378.464-1.501 2.676-1.161 2.676.41z" fill="#ff8564"/><g><path d="m250.125 307.203v38.609c0 2.916-2.364 5.279-5.279 5.279h-34.61c-3.408 0-6.557-1.817-8.262-4.767l-4.026-6.963c-3.769-6.519-2.219-14.806 3.652-19.522 9.015-7.244 23.896-16.403 42.774-17.896 3.091-.245 5.751 2.158 5.751 5.26z" fill="#9fabce"/></g><g><path d="m243.741 427.896h-24.601c-6.239 0-11.296-5.058-11.296-11.296v-44.872c0-6.239 5.058-11.296 11.296-11.296h24.602c3.526 0 6.383 2.858 6.383 6.383v54.697c0 3.526-2.858 6.384-6.384 6.384z" fill="#9fabce"/></g><g><path d="m157.716 330.539 15.916 18.076c6.706 7.616 10.405 17.415 10.405 27.563v22.063c0 1.734-2.036 2.668-3.35 1.536l-13.895-11.965c-8.016-6.902-12.625-16.955-12.625-27.533v-28.4c0-1.869 2.314-2.743 3.549-1.34z" fill="#9fabce"/></g><g><path d="m160.308 392.998 15.766 14.607c5.078 4.704 7.964 11.313 7.964 18.234v16.516c0 3.311-4.049 4.917-6.318 2.506l-16.227-17.241c-4.705-4.999-7.325-11.605-7.325-18.47v-13.47c-.001-3.19 3.799-4.85 6.14-2.682z" fill="#9fabce"/></g><g><path d="m291.137 60.413-12.526 16.321c-2.4 3.128-4.251 6.64-5.474 10.388l-15.536 47.628c-.177.544-.268 1.112-.268 1.684 0 5.303 6.81 7.463 9.871 3.132 12.382-17.517 31.578-49.908 27.893-78.118-.253-1.947-2.763-2.595-3.96-1.035z" fill="#9fabce"/></g><g><path d="m365.372 109.587-50.855-25.03c-5.39-2.653-11.842.362-13.267 6.198-1.873 7.669-5.16 18.229-10.711 28.856-2.837 5.431 1.783 11.751 7.812 10.655l65.805-11.965c4.393-.799 5.223-6.742 1.216-8.714z" fill="#9fabce"/></g><g><path d="m341.898 134.408s37.238-18.619 63.422-6.982c26.183 11.637 57.021 31.42 41.311 121.607 0 0-41.311-30.838-47.13-53.53s-30.838-59.35-57.603-61.095z" fill="#9fabce"/></g><g><path d="m269.704 156.559c-4.666 2.754-7.52 7.767-7.52 13.185v46.72c0 8.704 6.048 15.996 14.171 17.901 4.694 1.101 9.383 2.22 13.953 3.754l49.851 16.732c9.613 0 18.681-4.489 24.464-12.168 6.153-8.172 16.775-17.887 33.478-20.387 3.507-.525 5.224-4.54 3.125-7.399-5.659-7.711-14.206-20.645-16.854-31.613-4.073-16.874-36.075-45.966-58.185-47.712-16.316-1.289-43.406 13.269-56.483 20.987z" fill="#9fabce"/></g><path d="m402.14 243.483v28.823s13.09 70.544 48.363 97.308c5.13 3.892 12.553.702 13.298-5.694l4.094-35.137c.937-8.045-.134-16.197-3.117-23.727l-19.893-50.205s-22.11-14.546-31.42-22.692c-6.254 0-11.325 5.07-11.325 11.324z" fill="#ff004f"/><path d="m463.73 277.147c-1.622-1.284-3.836.622-2.83 2.43 4.655 8.367 11.702 22.889 12.824 35.847 1.105 12.77.772 30.815.404 41.857-.078 2.346 3.073 3.176 4.159 1.095l5.407-10.35c2.304-4.41 3.429-9.341 3.224-14.312-.565-13.726-4.16-41.496-23.188-56.567z" fill="#ff8564"/><path d="m399.954 298.082v8.785c0 3.786.666 7.54 1.997 11.085 2.851 7.595 8.865 20.797 18.739 29.621 1.047.936 2.627-.261 2.01-1.523-4.655-9.513-14.642-30.743-20.07-48.378-.464-1.501-2.676-1.161-2.676.41z" fill="#ff8564"/><g><path d="m262.184 307.203v38.609c0 2.916 2.364 5.279 5.279 5.279h34.61c3.408 0 6.557-1.817 8.262-4.767l4.026-6.963c3.769-6.519 2.219-14.806-3.652-19.522-9.015-7.244-23.896-16.403-42.774-17.896-3.091-.245-5.751 2.158-5.751 5.26z" fill="#9fabce"/></g><g><path d="m268.568 427.896h24.602c6.239 0 11.296-5.058 11.296-11.296v-44.872c0-6.239-5.058-11.296-11.296-11.296h-24.602c-3.526 0-6.383 2.858-6.383 6.383v54.697c-.001 3.526 2.857 6.384 6.383 6.384z" fill="#9fabce"/></g><g><path d="m354.593 330.539-15.916 18.076c-6.706 7.616-10.405 17.415-10.405 27.563v22.063c0 1.734 2.036 2.668 3.35 1.536l13.895-11.965c8.016-6.902 12.625-16.955 12.625-27.533v-28.4c0-1.869-2.314-2.743-3.549-1.34z" fill="#9fabce"/></g><g><path d="m352.001 392.998-15.766 14.607c-5.078 4.704-7.964 11.313-7.964 18.234v16.516c0 3.311 4.049 4.917 6.318 2.506l16.227-17.241c4.705-4.999 7.325-11.605 7.325-18.47v-13.47c.001-3.19-3.8-4.85-6.14-2.682z" fill="#9fabce"/></g><g><path d="m250.36 250.095v36.119c0 2.743-2.006 5.133-4.863 5.794l-20.888 4.832c-10.774 2.492-27.945 10.577-27.945 10.577-5.973 6.163-36.108-43.292-12.473-43.292l59.763-20c3.537 0 6.406 2.673 6.406 5.97z" fill="#9fabce"/></g><g><path d="m262.419 250.095v36.119c0 2.743 2.006 5.133 4.863 5.794l20.888 4.832c10.774 2.492 27.945 10.577 27.945 10.577 5.973 6.163 37.244-43.292 12.473-43.292l-59.763-20c-3.538 0-6.406 2.673-6.406 5.97z" fill="#9fabce"/></g></g></svg>