<svg  viewBox="0 0 512 512" fill="none" xmlns="http://www.w3.org/2000/svg">
<path d="M300.568 37.4619C299.475 37.4619 298.378 37.6859 297.347 38.1389L277.368 46.9279C270.215 50.0749 262.625 51.6709 254.81 51.6709C246.615 51.6709 238.689 49.9239 231.254 46.4779L213.401 38.2039C212.33 37.7078 211.182 37.4619 210.038 37.4619C208.535 37.4619 207.038 37.8849 205.731 38.7199C203.43 40.1898 202.037 42.7318 202.037 45.4619V68.0148L122.254 106.909C115.987 108.987 68.0609 126.05 54.0079 165.858C41.6449 200.88 48.2069 237.814 51.4529 251.6C40.5369 260.408 15.4729 285.983 13.6798 336.178C13.6239 337.735 14.0248 339.275 14.8318 340.608L70.2039 432.041C71.6559 434.439 74.2539 435.897 77.0459 435.897C77.1209 435.897 77.1958 435.896 77.2708 435.894C80.1489 435.813 82.7608 434.193 84.1109 431.65C100.769 400.293 100.986 372.781 100.441 363.277L115.632 343.649C117.921 347.461 120.959 351.909 124.913 356.658C133.157 366.555 136.663 379.694 134.534 392.704L125.779 446.208C125.086 450.442 127.856 454.468 132.058 455.335L208.575 471.116C223.669 474.229 239.137 475.807 254.55 475.807C269.672 475.807 284.855 474.287 299.677 471.289L378.519 455.341C382.736 454.488 385.523 450.453 384.828 446.208L376.073 392.704C373.944 379.693 377.45 366.555 385.693 356.658C389.648 351.908 392.686 347.46 394.975 343.649L410.165 363.276C409.588 373.302 409.855 403.356 429.376 436.821C430.811 439.281 433.444 440.79 436.286 440.79C436.323 440.79 436.361 440.79 436.398 440.789C439.283 440.749 441.923 439.158 443.306 436.626L495.952 340.3C496.642 339.038 496.978 337.614 496.927 336.178C495.134 285.983 470.07 260.408 459.154 251.6C462.4 237.814 468.962 200.88 456.599 165.858C442.546 126.049 394.62 108.987 388.353 106.909L308.57 68.0148V45.4619C308.57 42.7589 307.205 40.2389 304.942 38.7619C303.62 37.9009 302.098 37.4619 300.568 37.4619Z" fill="#484F69"/>
<path d="M220.32 60.4129L232.846 76.7338C235.246 79.8619 237.097 83.3739 238.32 87.1218L253.855 134.75C254.033 135.294 254.123 135.862 254.123 136.434C254.123 141.737 247.314 143.897 244.253 139.566C231.871 122.049 212.674 89.6579 216.36 61.4479C216.613 59.5009 219.124 58.8528 220.32 60.4129Z" fill="#9FABCE"/>
<path d="M146.085 109.587L196.941 84.5569C202.33 81.9039 208.782 84.9189 210.208 90.7553C212.081 98.4242 215.368 108.984 220.919 119.611C223.756 125.042 219.136 131.362 213.106 130.266L147.301 118.301C142.908 117.502 142.077 111.559 146.085 109.587Z" fill="#9FABCE"/>
<path d="M169.56 134.408C169.56 134.408 132.322 115.789 106.138 127.426C79.954 139.063 49.117 158.846 64.8269 249.033C64.8269 249.033 106.138 218.195 111.957 195.503C117.776 172.811 142.795 136.153 169.56 134.408Z" fill="#9FABCE"/>
<path d="M241.754 156.559C246.42 159.313 249.274 164.326 249.274 169.744V216.464C249.274 225.168 243.226 232.46 235.103 234.365C230.409 235.466 225.72 236.585 221.15 238.119L171.299 254.851C161.686 254.851 152.618 250.362 146.835 242.683C140.682 234.511 130.06 224.796 113.357 222.296C109.85 221.771 108.133 217.756 110.232 214.896C115.891 207.186 124.438 194.252 127.086 183.284C131.159 166.41 163.161 137.318 185.271 135.571C201.586 134.283 228.677 148.841 241.754 156.559Z" fill="#FF4858"/>
<path d="M109.317 243.482V272.305C109.317 272.305 96.227 342.85 60.9539 369.614C55.8239 373.506 48.401 370.316 47.6559 363.92L43.562 328.782C42.6249 320.738 43.6959 312.586 46.6789 305.056L66.5719 254.851C66.5719 254.851 88.6818 240.305 97.9917 232.159C104.247 232.159 109.317 237.229 109.317 243.482Z" fill="#9FABCE"/>
<path d="M47.7269 277.147C49.3489 275.863 51.5629 277.769 50.5569 279.577C45.9019 287.944 38.8549 302.466 37.7329 315.424C36.6279 328.194 36.9609 346.239 37.3289 357.281C37.4069 359.627 34.2569 360.457 33.1699 358.376L27.7629 348.026C25.4589 343.616 24.3339 338.686 24.5389 333.714C25.1039 319.988 28.6999 292.218 47.7269 277.147Z" fill="#9FABCE"/>
<path d="M111.504 298.082V306.867C111.504 310.653 110.838 314.407 109.507 317.952C106.656 325.547 100.642 338.749 90.7683 347.573C89.7212 348.509 88.1409 347.312 88.7578 346.05C93.4128 336.537 103.4 315.307 108.828 297.672C109.291 296.171 111.504 296.511 111.504 298.082Z" fill="#9FABCE"/>
<path d="M249.273 307.203V345.811C249.273 348.728 246.909 351.091 243.994 351.091H209.384C205.976 351.091 202.827 349.273 201.122 346.323L197.096 339.361C193.327 332.842 194.877 324.555 200.748 319.839C209.763 312.595 224.644 303.436 243.522 301.942C246.614 301.698 249.273 304.101 249.273 307.203Z" fill="#9FABCE"/>
<path d="M242.89 427.896H218.288C212.049 427.896 206.992 422.838 206.992 416.6V371.728C206.992 365.489 212.05 360.432 218.288 360.432H242.89C246.416 360.432 249.273 363.29 249.273 366.815V421.512C249.273 425.038 246.414 427.896 242.89 427.896Z" fill="#9FABCE"/>
<path d="M156.864 330.539L172.779 348.615C179.486 356.231 183.185 366.03 183.185 376.179V398.241C183.185 399.975 181.149 400.909 179.835 399.778L165.94 387.812C157.924 380.91 153.315 370.857 153.315 360.279V331.879C153.315 330.01 155.629 329.136 156.864 330.539Z" fill="#9FABCE"/>
<path d="M159.456 392.998L175.222 407.605C180.3 412.309 183.186 418.918 183.186 425.839V442.355C183.186 445.666 179.137 447.272 176.868 444.862L160.64 427.62C155.935 422.621 153.315 416.015 153.315 409.15V395.681C153.315 392.49 157.116 390.83 159.456 392.998Z" fill="#9FABCE"/>
<path d="M290.284 60.4129L277.76 76.7338C275.36 79.8619 273.509 83.3739 272.286 87.1218L256.75 134.75C256.573 135.294 256.482 135.862 256.482 136.434C256.482 141.737 263.292 143.897 266.353 139.566C278.735 122.049 297.931 89.6579 294.246 61.4479C293.992 59.5009 291.482 58.8528 290.284 60.4129Z" fill="#9FABCE"/>
<path d="M364.52 109.587L313.665 84.5569C308.275 81.9039 301.823 84.9189 300.398 90.7553C298.525 98.4242 295.238 108.984 289.687 119.611C286.85 125.042 291.47 131.362 297.499 130.266L363.304 118.301C367.698 117.502 368.528 111.559 364.52 109.587Z" fill="#9FABCE"/>
<path d="M341.046 134.408C341.046 134.408 378.284 115.789 404.468 127.426C430.651 139.063 461.489 158.846 445.779 249.033C445.779 249.033 404.468 218.195 398.649 195.503C392.829 172.811 367.811 136.153 341.046 134.408Z" fill="#9FABCE"/>
<path d="M268.852 156.559C264.186 159.313 261.332 164.326 261.332 169.744V216.464C261.332 225.168 267.38 232.46 275.503 234.365C280.197 235.466 284.886 236.585 289.456 238.119L339.307 254.851C348.92 254.851 357.988 250.362 363.771 242.683C369.924 234.511 380.546 224.796 397.249 222.296C400.756 221.771 402.473 217.756 400.374 214.896C394.715 207.186 386.168 194.252 383.52 183.284C379.447 166.41 347.445 137.318 325.335 135.571C309.019 134.283 281.929 148.841 268.852 156.559Z" fill="#FF4858"/>
<path d="M401.289 243.482V272.305C401.289 272.305 414.379 342.85 449.652 369.614C454.781 373.506 462.205 370.316 462.95 363.92L467.044 328.782C467.981 320.738 466.91 312.586 463.927 305.056L444.034 254.851C444.034 254.851 421.924 240.305 412.614 232.159C406.359 232.159 401.289 237.229 401.289 243.482Z" fill="#9FABCE"/>
<path d="M462.879 277.147C461.257 275.863 459.043 277.769 460.049 279.577C464.704 287.944 471.751 302.466 472.873 315.424C473.978 328.194 473.645 346.239 473.277 357.281C473.199 359.627 476.349 360.457 477.436 358.376L482.842 348.026C485.146 343.616 486.272 338.686 486.067 333.714C485.501 319.988 481.906 292.218 462.879 277.147Z" fill="#9FABCE"/>
<path d="M399.101 298.082V306.867C399.101 310.653 399.768 314.407 401.099 317.952C403.95 325.547 409.964 338.749 419.837 347.573C420.884 348.509 422.465 347.312 421.848 346.05C417.193 336.537 407.206 315.307 401.778 297.672C401.314 296.171 399.101 296.511 399.101 298.082Z" fill="#9FABCE"/>
<path d="M261.333 307.203V345.811C261.333 348.728 263.697 351.091 266.612 351.091H301.222C304.63 351.091 307.779 349.273 309.484 346.323L313.51 339.361C317.279 332.842 315.729 324.555 309.858 319.839C300.843 312.595 285.962 303.436 267.084 301.942C263.992 301.698 261.333 304.101 261.333 307.203Z" fill="#9FABCE"/>
<path d="M267.715 427.896H292.318C298.557 427.896 303.613 422.838 303.613 416.6V371.728C303.613 365.489 298.556 360.432 292.318 360.432H267.715C264.189 360.432 261.333 363.29 261.333 366.815V421.512C261.333 425.038 264.189 427.896 267.715 427.896Z" fill="#9FABCE"/>
<path d="M353.741 330.539L337.825 348.615C331.119 356.231 327.42 366.03 327.42 376.179V398.241C327.42 399.975 329.456 400.909 330.77 399.778L344.665 387.812C352.681 380.91 357.29 370.857 357.29 360.279V331.879C357.29 330.01 354.976 329.136 353.741 330.539Z" fill="#9FABCE"/>
<path d="M351.148 392.998L335.383 407.605C330.305 412.309 327.419 418.918 327.419 425.839V442.355C327.419 445.666 331.468 447.272 333.737 444.862L349.964 427.62C354.668 422.621 357.289 416.015 357.289 409.15V395.681C357.29 392.49 353.49 390.83 351.148 392.998Z" fill="#9FABCE"/>
<path d="M249.027 250.095V286.214C249.027 288.957 247.021 291.347 244.163 292.008L223.276 296.84C212.502 299.332 195.331 307.417 195.331 307.417C189.358 313.58 159.223 264.125 182.858 264.125L242.621 244.125C246.158 244.125 249.027 246.798 249.027 250.095Z" fill="#9FABCE"/>
<path d="M261.086 250.095V286.214C261.086 288.957 263.092 291.347 265.949 292.008L286.837 296.84C297.611 299.332 314.782 307.417 314.782 307.417C320.755 313.58 352.026 264.125 327.255 264.125L267.492 244.125C263.955 244.125 261.086 246.798 261.086 250.095Z" fill="#9FABCE"/>
</svg>
