<svg viewBox="0 0 60 60" fill="none" xmlns="http://www.w3.org/2000/svg">
<path d="M35.2228 4.39008C35.0947 4.39008 34.9662 4.41633 34.8453 4.46941L32.5041 5.49937C31.6658 5.86816 30.7764 6.05519 29.8605 6.05519C28.9002 6.05519 27.9714 5.85047 27.1001 5.44664L25.0079 4.47703C24.8824 4.4189 24.7479 4.39008 24.6138 4.39008C24.4377 4.39008 24.2623 4.43965 24.1091 4.5375C23.8394 4.70976 23.6762 5.00765 23.6762 5.32758V7.9705L14.3266 12.5284C13.5922 12.7719 7.97589 14.7715 6.32905 19.4365C4.88026 23.5406 5.64925 27.8688 6.02964 29.4844C4.75042 30.5166 1.81323 33.5137 1.60311 39.3959C1.59655 39.5783 1.64354 39.7588 1.73811 39.915L8.22702 50.6298C8.39718 50.9108 8.70163 51.0817 9.02882 51.0817C9.03761 51.0817 9.04639 51.0816 9.05518 51.0813C9.39245 51.0718 9.69854 50.882 9.85675 50.584C11.8089 46.9094 11.8343 43.6853 11.7704 42.5715L13.5506 40.2714C13.8189 40.7181 14.1749 41.2393 14.6383 41.7959C15.6043 42.9557 16.0152 44.4954 15.7657 46.02L14.7397 52.29C14.6585 52.7862 14.9831 53.258 15.4755 53.3596L24.4424 55.2089C26.2112 55.5737 28.0239 55.7586 29.8301 55.7586C31.6022 55.7586 33.3814 55.5805 35.1184 55.2292L44.3577 53.3603C44.8519 53.2603 45.1785 52.7875 45.097 52.29L44.071 46.02C43.8216 44.4953 44.2324 42.9557 45.1984 41.7959C45.6619 41.2392 46.0179 40.718 46.2861 40.2714L48.0662 42.5714C47.9986 43.7463 48.0299 47.2683 50.3175 51.19C50.4857 51.4782 50.7942 51.6551 51.1273 51.6551C51.1316 51.6551 51.136 51.6551 51.1404 51.655C51.4785 51.6503 51.7878 51.4638 51.9499 51.1671L58.1194 39.8789C58.2002 39.731 58.2396 39.5641 58.2336 39.3959C58.0235 33.5137 55.0863 30.5166 53.8071 29.4844C54.1875 27.8688 54.9565 23.5406 53.5077 19.4365C51.8609 14.7714 46.2445 12.7719 45.5101 12.5284L36.1605 7.9705V5.32758C36.1605 5.01082 36.0006 4.71551 35.7354 4.54242C35.5805 4.44152 35.4021 4.39008 35.2228 4.39008Z" fill="#484F69"/>
<path d="M25.8187 7.07965L27.2866 8.99226C27.5679 9.35883 27.7848 9.77039 27.9281 10.2096L29.7487 15.791C29.7695 15.8548 29.7801 15.9213 29.7801 15.9884C29.7801 16.6098 28.9821 16.8629 28.6234 16.3554C27.1724 14.3026 24.9228 10.5068 25.3547 7.20094C25.3844 6.97277 25.6786 6.89683 25.8187 7.07965Z" fill="#9FABCE"/>
<path d="M17.1194 12.8422L23.079 9.90903C23.7106 9.59813 24.4667 9.95145 24.6337 10.6354C24.8532 11.5341 25.2384 12.7716 25.8889 14.0169C26.2214 14.6534 25.68 15.394 24.9734 15.2656L17.2619 13.8634C16.747 13.7698 16.6497 13.0733 17.1194 12.8422Z" fill="#9FABCE"/>
<path d="M19.8703 15.7509C19.8703 15.7509 15.5065 13.569 12.438 14.9327C9.3696 16.2964 5.75589 18.6148 7.5969 29.1836C7.5969 29.1836 12.438 25.5697 13.1199 22.9105C13.8019 20.2513 16.7338 15.9554 19.8703 15.7509Z" fill="#9FABCE"/>
<path d="M28.3305 18.3468C28.8773 18.6695 29.2118 19.257 29.2118 19.8919V25.3669C29.2118 26.3869 28.503 27.2414 27.5511 27.4647C27.0011 27.5937 26.4516 27.7248 25.916 27.9046L20.0741 29.8654C18.9476 29.8654 17.8849 29.3393 17.2072 28.4394C16.4862 27.4818 15.2414 26.3433 13.284 26.0503C12.873 25.9888 12.6718 25.5183 12.9178 25.1832C13.581 24.2796 14.5826 22.7639 14.8929 21.4786C15.3702 19.5012 19.1204 16.092 21.7114 15.8873C23.6234 15.7363 26.7981 17.4423 28.3305 18.3468Z" fill="#FF4858"/>
<path d="M12.8106 28.5331V31.9108C12.8106 31.9108 11.2766 40.1777 7.14304 43.3141C6.54187 43.7702 5.67199 43.3964 5.58468 42.6469L5.10492 38.5292C4.99511 37.5865 5.12062 36.6312 5.47019 35.7487L7.8014 29.8653C7.8014 29.8653 10.3924 28.1607 11.4834 27.2061C12.2164 27.2061 12.8106 27.8003 12.8106 28.5331Z" fill="#9FABCE"/>
<path d="M5.59299 32.4782C5.78307 32.3277 6.04252 32.5511 5.92463 32.7629C5.37913 33.7434 4.55331 35.4452 4.42182 36.9638C4.29233 38.4602 4.33135 40.5749 4.37448 41.8689C4.38362 42.1438 4.01448 42.2411 3.88709 41.9972L3.25346 40.7843C2.98346 40.2675 2.85163 39.6897 2.87565 39.1071C2.94186 37.4986 3.36327 34.2443 5.59299 32.4782Z" fill="#9FABCE"/>
<path d="M13.0669 34.9315V35.961C13.0669 36.4047 12.9888 36.8446 12.8329 37.26C12.4987 38.1501 11.794 39.6972 10.6369 40.7312C10.5142 40.8409 10.329 40.7006 10.4013 40.5527C10.9468 39.4379 12.1172 36.9501 12.7533 34.8834C12.8075 34.7076 13.0669 34.7474 13.0669 34.9315Z" fill="#9FABCE"/>
<path d="M29.2117 36.0004V40.5248C29.2117 40.8666 28.9346 41.1435 28.593 41.1435H24.5372C24.1378 41.1435 23.7688 40.9305 23.569 40.5848L23.0972 39.7689C22.6555 39.0049 22.8371 38.0338 23.5251 37.4811C24.5816 36.6322 26.3255 35.5589 28.5377 35.3839C28.9001 35.3552 29.2117 35.6368 29.2117 36.0004Z" fill="#9FABCE"/>
<path d="M28.4637 50.1441H25.5806C24.8495 50.1441 24.2569 49.5513 24.2569 48.8203V43.5619C24.2569 42.8307 24.8496 42.2381 25.5806 42.2381H28.4637C28.8769 42.2381 29.2117 42.5731 29.2117 42.9861V49.3959C29.2117 49.8091 28.8767 50.1441 28.4637 50.1441Z" fill="#9FABCE"/>
<path d="M18.3825 38.735L20.2476 40.8533C21.0335 41.7458 21.467 42.8941 21.467 44.0834V46.6689C21.467 46.8721 21.2284 46.9815 21.0744 46.8489L19.4461 45.4467C18.5067 44.6379 17.9666 43.4598 17.9666 42.2202V38.8921C17.9666 38.673 18.2378 38.5706 18.3825 38.735Z" fill="#9FABCE"/>
<path d="M18.6862 46.0545L20.5338 47.7662C21.1289 48.3175 21.4671 49.092 21.4671 49.903V51.8385C21.4671 52.2265 20.9926 52.4147 20.7267 52.1322L18.825 50.1117C18.2736 49.5259 17.9666 48.7518 17.9666 47.9473V46.3688C17.9666 45.9949 18.412 45.8004 18.6862 46.0545Z" fill="#9FABCE"/>
<path d="M34.0177 7.07965L32.55 8.99226C32.2687 9.35883 32.0518 9.77039 31.9085 10.2096L30.0879 15.791C30.0671 15.8548 30.0565 15.9213 30.0565 15.9884C30.0565 16.6098 30.8545 16.8629 31.2132 16.3554C32.6642 14.3026 34.9138 10.5068 34.4819 7.20094C34.4522 6.97277 34.158 6.89683 34.0177 7.07965Z" fill="#9FABCE"/>
<path d="M42.7172 12.8422L36.7576 9.90903C36.126 9.59813 35.3699 9.95145 35.2029 10.6354C34.9834 11.5341 34.5982 12.7716 33.9477 14.0169C33.6152 14.6534 34.1566 15.394 34.8631 15.2656L42.5747 13.8634C43.0896 13.7698 43.1869 13.0733 42.7172 12.8422Z" fill="#9FABCE"/>
<path d="M39.9663 15.7509C39.9663 15.7509 44.3301 13.569 47.3986 14.9327C50.4669 16.2964 54.0807 18.6148 52.2397 29.1836C52.2397 29.1836 47.3986 25.5697 46.7167 22.9105C46.0347 20.2513 43.1028 15.9554 39.9663 15.7509Z" fill="#9FABCE"/>
<path d="M31.5061 18.3468C30.9593 18.6695 30.6248 19.257 30.6248 19.8919V25.3669C30.6248 26.3869 31.3336 27.2414 32.2855 27.4647C32.8356 27.5937 33.3851 27.7248 33.9206 27.9046L39.7625 29.8654C40.8891 29.8654 41.9517 29.3393 42.6294 28.4394C43.3505 27.4818 44.5952 26.3433 46.5526 26.0503C46.9636 25.9888 47.1648 25.5183 46.9188 25.1832C46.2557 24.2796 45.2541 22.7639 44.9438 21.4786C44.4664 19.5012 40.7162 16.092 38.1252 15.8873C36.2132 15.7363 33.0386 17.4423 31.5061 18.3468Z" fill="#FF4858"/>
<path d="M47.026 28.5331V31.9108C47.026 31.9108 48.56 40.1777 52.6936 43.3141C53.2947 43.7702 54.1646 43.3964 54.2519 42.6469L54.7317 38.5292C54.8415 37.5865 54.716 36.6312 54.3664 35.7487L52.0352 29.8653C52.0352 29.8653 49.4442 28.1607 48.3532 27.2061C47.6202 27.2061 47.026 27.8003 47.026 28.5331Z" fill="#9FABCE"/>
<path d="M54.2436 32.4782C54.0535 32.3277 53.7941 32.5511 53.912 32.7629C54.4575 33.7434 55.2833 35.4452 55.4148 36.9638C55.5443 38.4602 55.5053 40.5749 55.4621 41.8689C55.453 42.1438 55.8222 42.2411 55.9495 41.9972L56.5831 40.7843C56.8531 40.2675 56.985 39.6897 56.961 39.1071C56.8946 37.4986 56.4733 34.2443 54.2436 32.4782Z" fill="#9FABCE"/>
<path d="M46.7697 34.9315V35.961C46.7697 36.4047 46.8478 36.8446 47.0038 37.26C47.3379 38.1501 48.0426 39.6972 49.1997 40.7312C49.3224 40.8409 49.5076 40.7006 49.4353 40.5527C48.8898 39.4379 47.7194 36.9501 47.0833 34.8834C47.029 34.7076 46.7697 34.7474 46.7697 34.9315Z" fill="#9FABCE"/>
<path d="M30.6249 36.0004V40.5248C30.6249 40.8666 30.902 41.1435 31.2436 41.1435H35.2994C35.6988 41.1435 36.0678 40.9305 36.2676 40.5848L36.7394 39.7689C37.1811 39.0049 36.9995 38.0338 36.3115 37.4811C35.255 36.6322 33.5112 35.5589 31.2989 35.3839C30.9365 35.3552 30.6249 35.6368 30.6249 36.0004Z" fill="#9FABCE"/>
<path d="M31.3729 50.1441H34.256C34.9871 50.1441 35.5797 49.5513 35.5797 48.8203V43.5619C35.5797 42.8307 34.987 42.2381 34.256 42.2381H31.3729C30.9597 42.2381 30.6249 42.5731 30.6249 42.9861V49.3959C30.6249 49.8091 30.9597 50.1441 31.3729 50.1441Z" fill="#9FABCE"/>
<path d="M41.454 38.735L39.5889 40.8533C38.803 41.7458 38.3695 42.8941 38.3695 44.0834V46.6689C38.3695 46.8721 38.6081 46.9815 38.7621 46.8489L40.3904 45.4467C41.3298 44.6379 41.8699 43.4598 41.8699 42.2202V38.8921C41.8699 38.673 41.5988 38.5706 41.454 38.735Z" fill="#9FABCE"/>
<path d="M41.1502 46.0545L39.3027 47.7662C38.7076 48.3175 38.3694 49.092 38.3694 49.903V51.8385C38.3694 52.2265 38.8439 52.4147 39.1098 52.1322L41.0114 50.1117C41.5627 49.5259 41.8698 48.7518 41.8698 47.9473V46.3688C41.8699 45.9949 41.4246 45.8004 41.1502 46.0545Z" fill="#9FABCE"/>
<path d="M29.1828 29.308V33.5407C29.1828 33.8621 28.9478 34.1422 28.6129 34.2197L26.1651 34.7859C24.9026 35.078 22.8903 36.0254 22.8903 36.0254C22.1904 36.7477 18.6589 30.9521 21.4287 30.9521L28.4321 28.6084C28.8466 28.6084 29.1828 28.9216 29.1828 29.308Z" fill="#9FABCE"/>
<path d="M30.596 29.308V33.5407C30.596 33.8621 30.8311 34.1422 31.1659 34.2197L33.6137 34.7859C34.8763 35.078 36.8885 36.0254 36.8885 36.0254C37.5885 36.7477 41.253 30.9521 38.3502 30.9521L31.3467 28.6084C30.9322 28.6084 30.596 28.9216 30.596 29.308Z" fill="#9FABCE"/>
</svg>
