<svg id="Layer_2" enable-background="new 0 0 512 512" viewBox="0 0 512 512" xmlns="http://www.w3.org/2000/svg"><g><g><path d="m377.637 10.998h-.005-243.259c-2.145 0-4.2.861-5.704 2.39s-2.331 3.598-2.295 5.743l1.428 85.668c-2.813 5.314-10.695 21.029-18.735 44.541-9.029 26.405-19.953 68.092-20.726 116.742-1.026 64.644 11.911 139.871 19.641 184.818 3.298 19.178 5.903 34.325 5.903 39.679 0 4.407 3.564 7.984 7.971 8l89.552.323h.029c2.846 0 5.478-1.512 6.911-3.971 14.403-24.71 25.815-61.877 33.918-110.468 1.344-8.061 2.592-16.452 3.735-25.084 1.143 8.633 2.391 17.023 3.735 25.084 8.103 48.591 19.515 85.758 33.918 110.468 1.434 2.459 4.066 3.971 6.911 3.971h.029l89.552-.323c4.407-.016 7.971-3.593 7.971-8 0-5.354 2.605-20.502 5.903-39.679 3.84-22.33 9.1-52.913 13.147-85.223 4.822-38.493 6.946-71.07 6.493-99.595-.772-48.65-11.697-90.337-20.726-116.742-8.04-23.512-15.922-39.227-18.735-44.541l1.424-85.463c.005-.112.007-.225.007-.338.005-4.419-3.575-8-7.993-8z" fill="#484f69"/></g><path d="m156.33 66.418c20.473-.514 66.819 3.535 94.291 46.718v87.635s-24.656 48.627-71.86 28.855c-39.569-16.574-35.763-119.51-33.497-152.373.415-6.017 5.211-10.688 11.066-10.835z" fill="#ff004f"/><g><path d="m215.226 243.813c6.696-2.688 15.225-6.397 21.764-10.207 2.976-1.734 6.643.683 6.204 4.099l-11.707 129.436c-.353 3.903-6.035 3.957-6.462.062-3.625-33.044-9.841-82.168-17.163-108.564-1.69-6.093 1.497-12.471 7.364-14.826z" fill="#9fabce"/></g><g><path d="m195.683 253.04 25.288 138.893c2.229 12.245.922 24.872-3.768 36.4l-21.542 52.947c-2.35 5.776-10.82 4.788-11.77-1.375-6.681-43.335-19.448-144.075-8.933-226.351.844-6.605 7.586-10.736 13.871-8.536 3.561 1.246 6.179 4.309 6.854 8.022z" fill="#9fabce"/></g><g><path d="m166.453 238.417c1.265 1.529 1.869 3.495 1.678 5.47-1.693 17.489-9.914 105.101-9.116 149.006.561 30.837-10.543 61.674-18.827 80.256-2.574 5.773-11.072 4.708-12.149-1.52-4.886-28.234-13.236-79.986-12.604-100.526.71-23.064 27.467-100.204 38.252-130.44 1.943-5.448 9.077-6.702 12.766-2.246z" fill="#9fabce"/></g><g><path d="m127.219 163.333c1.149-2.664 4.977-2.503 5.87.257 5.248 16.233 16.862 53.502 16.163 63.338-.731 10.287-25.81 72.296-35.576 103.532-.968 3.097-5.488 2.633-5.8-.597-3.127-32.371-6.483-106.624 19.343-166.53z" fill="#9fabce"/></g><path d="m353.788 66.418c-20.473-.514-66.819 3.535-94.291 46.718v87.635s24.656 48.627 71.86 28.855c39.569-16.574 35.763-119.51 33.497-152.373-.415-6.017-5.211-10.688-11.066-10.835z" fill="#ff004f"/><g><path d="m294.892 243.813c-6.696-2.688-15.225-6.397-21.764-10.207-2.976-1.734-6.643.683-6.204 4.099l11.707 129.436c.353 3.903 6.035 3.957 6.462.062 3.625-33.044 9.841-82.168 17.163-108.564 1.69-6.093-1.496-12.471-7.364-14.826z" fill="#9fabce"/></g><g><path d="m314.435 253.04-25.288 138.893c-2.229 12.245-.922 24.872 3.768 36.4l21.542 52.947c2.35 5.776 10.82 4.788 11.77-1.375 6.681-43.335 19.448-144.075 8.933-226.351-.844-6.605-7.586-10.736-13.871-8.536-3.561 1.246-6.178 4.309-6.854 8.022z" fill="#9fabce"/></g><g><path d="m343.665 238.417c-1.265 1.529-1.869 3.495-1.678 5.47 1.693 17.489 9.914 105.101 9.116 149.006-.561 30.837 10.543 61.674 18.827 80.256 2.574 5.773 11.072 4.708 12.149-1.52 4.886-28.234 13.236-79.986 12.604-100.526-.71-23.064-27.467-100.204-38.252-130.44-1.943-5.448-9.077-6.702-12.766-2.246z" fill="#9fabce"/></g><g><path d="m382.899 163.333c-1.149-2.664-4.977-2.503-5.87.257-5.248 16.233-16.862 53.502-16.163 63.338.731 10.287 25.81 72.296 35.576 103.532.968 3.097 5.488 2.633 5.8-.597 3.127-32.371 6.483-106.624-19.343-166.53z" fill="#9fabce"/></g><g><g><path d="m172.562 46.926c.374 6.505 5.603 11.583 11.927 11.583 14.415 0 28.378 5.184 39.481 14.659l18.348 15.657c3.305 2.82 8.303.398 8.303-4.024v-54.054h-78.989z" fill="#9fabce"/></g><g><path d="m140.993 38.82 1.914 13.527c.527 3.724 3.864 6.392 7.613 6.087l11.097-.904c3.504-.286 6.836-3.098 6.513-6.599-.622-6.736-1.385-13.518-2.233-20.185h-25.684c.152 2.698.401 5.392.78 8.074z" fill="#9fabce"/></g><g><path d="m259.497 84.802c0 4.422 4.998 6.844 8.303 4.024l18.348-15.657c11.102-9.474 25.066-14.659 39.481-14.659 6.324 0 11.552-5.078 11.927-11.583l.93-16.179h-78.989z" fill="#9fabce"/></g><g><path d="m341.989 50.932c-.323 3.501 3.009 6.313 6.513 6.599l11.097.904c3.749.305 7.086-2.363 7.613-6.087l1.914-13.527c.379-2.683.628-5.376.781-8.073h-25.685c-.848 6.666-1.611 13.447-2.233 20.184z" fill="#9fabce"/></g></g></g></svg>