<svg  viewBox="0 0 512 512" fill="none" xmlns="http://www.w3.org/2000/svg">
<path d="M198.703 9.85275C204.025 9.87175 208.517 13.7977 209.245 19.0697C213.166 47.4727 229.771 115.33 230.517 171.269C231.363 234.719 201.753 287.17 201.753 332.008C201.753 361.374 203.447 435.212 209.222 463.251C211.908 476.295 209.934 500.305 192.833 500.305C130.126 500.305 65.974 477.347 58.502 476C51.03 474.652 46.091 470.997 46.091 464.244C46.091 454.685 51.276 445.879 59.635 441.242L127.276 421.209C143.353 414.719 133.842 377.849 133.842 377.849C130.688 338.842 124.946 300.09 116.835 261.806C88.336 127.273 105.911 65.3447 116.983 17.8558C118.114 13.0038 122.443 9.57875 127.425 9.59675L198.703 9.85275Z" fill="#484F69"/>
<path d="M378.548 9.5948C383.53 9.5768 387.859 13.0018 388.99 17.8538C400.062 65.3428 417.638 127.271 389.138 261.804C381.028 300.089 375.285 338.84 372.132 377.847C372.132 377.847 366.373 414.717 389.071 426.13L446.339 441.24C454.697 445.877 459.882 454.684 459.882 464.242C459.882 470.995 454.214 476.364 447.471 475.998C447.471 475.998 353.876 500.303 338.912 500.303C323.948 500.303 302.57 492.465 302.94 464.426C308.714 436.387 304.22 361.373 304.22 332.007C304.22 287.169 274.61 234.718 275.456 171.268C276.202 115.329 292.808 47.4718 296.728 19.0688C297.456 13.7968 301.948 9.8708 307.27 9.8518L378.548 9.5948Z" fill="#484F69"/>
<path d="M161.094 38.2568C161.094 38.2568 145.014 244.053 181.447 279.142C207.856 304.577 213.565 176.218 204.393 138.261C194.408 96.9348 170.213 -15.0292 161.094 38.2568Z" fill="#FF4858"/>
<path d="M152.249 38.2568C152.249 38.2568 147.514 139.828 152.249 198.117C156.01 244.419 162.363 282.644 141.846 275.492C121.329 268.34 101.717 178.408 112.384 123.661C123.051 68.9138 150.06 1.02982 152.249 38.2568Z" fill="#FF4858"/>
<path d="M342.991 38.2568C342.991 38.2568 359.415 244.413 322.638 279.142C297.696 302.695 290.52 176.218 299.692 138.261C309.677 96.9348 333.873 -15.0292 342.991 38.2568Z" fill="#FF4858"/>
<path d="M351.836 38.2568C351.836 38.2568 356.571 139.828 351.836 198.117C348.075 244.419 341.078 282.644 361.595 275.492C382.112 268.34 402.368 178.408 391.701 123.661C381.034 68.9138 354.026 1.02982 351.836 38.2568Z" fill="#FF4858"/>
</svg>
