<svg  viewBox="0 0 512 512" fill="none" xmlns="http://www.w3.org/2000/svg">
<path d="M482.904 414.749L425.569 371.597C405.84 392.191 379.369 384.524 379.369 384.524C394.622 387.914 416.936 365.599 416.936 365.599L439.41 369.927C448.595 371.222 457.246 365.283 459.338 356.247C459.904 353.417 458.215 350.623 455.446 349.809L416.1 338.239C408.406 335.034 399.758 334.549 391.901 337.331C385.211 339.699 376.149 340.099 365.6 336.984C327.574 325.754 314.524 285.029 290.711 248.121C260.302 200.988 226.479 197.958 226.479 197.958C201.914 143.893 159.892 139.762 159.892 139.762C159.892 139.762 146.168 86.6961 116.99 54.1001C98.9279 33.9221 63.1689 29.1571 41.2119 28.2301C31.0349 27.8001 22.5649 35.9661 22.5649 46.1521V461.228C22.5649 474.535 37.1919 482.656 48.4869 475.62L59.0619 469.032C70.0889 462.163 77.6249 450.878 79.7429 438.059L90.7229 371.62L89.8979 316.905C89.6669 301.59 96.3939 287.207 107.654 276.823C119.88 265.547 126.594 236.263 126.594 236.263L158.111 261.77C158.111 261.77 167.032 293.307 202.311 320.235C228.396 340.146 284.083 355.157 309.493 363.704C318.759 366.821 326.093 373.986 329.42 383.179L332.974 392.997C333.718 395.053 334.714 397.009 335.938 398.822L390.378 477.536C394.703 483.939 402.633 486.496 409.679 484.265C411.852 483.577 412.801 481.024 411.621 479.074L382.759 426.61L420.286 471.731C425.256 478.648 434.076 481.17 441.727 478.461C444.253 477.567 445.217 474.495 443.668 472.309L405.607 413.522L444.156 451.073C450.593 457.418 460.292 458.363 467.702 454.029C470.218 452.558 470.514 449.027 468.322 447.107L419.48 400.058L460.731 423.988C468.141 428.395 477.331 427.226 483.401 421.698C485.509 419.779 485.247 416.377 482.904 414.749Z" fill="#484F69"/>
<path d="M46.881 83.7703C29.749 74.8373 34.34 48.9803 53.488 46.3943C55.68 46.0983 57.892 45.9663 60.111 46.0273C88.753 46.8143 124.802 53.3593 144.628 142.731C144.628 142.731 94.685 129.953 80.661 111.188C73.685 101.852 60.998 91.1313 46.881 83.7703Z" fill="#9FABCE"/>
<path d="M101.378 154.546L112.357 181.196C112.357 181.196 151.331 241.436 194.139 252.747C200.365 254.392 206.013 248.615 204.266 242.417L194.667 208.369C192.469 200.573 188.374 193.444 182.747 187.618L145.231 148.775C145.231 148.775 119.247 143.747 107.536 139.761C101.752 142.143 98.995 148.763 101.378 154.546Z" fill="#9FABCE"/>
<path d="M171.147 162.212C169.158 161.642 167.837 164.249 169.456 165.537C176.947 171.5 188.995 182.243 194.967 193.797C200.853 205.183 207.418 221.995 211.284 232.345C212.105 234.544 215.334 234.111 215.547 231.774L216.604 220.145C217.054 215.19 216.217 210.203 214.134 205.684C208.382 193.207 194.48 168.899 171.147 162.212Z" fill="#9FABCE"/>
<path d="M120.152 205.862L123.498 213.985C124.94 217.486 126.986 220.703 129.566 223.473C135.095 229.409 145.685 239.325 158.174 243.723C159.499 244.19 160.504 242.481 159.452 241.55C151.525 234.527 134.204 218.701 122.468 204.464C121.47 203.252 119.554 204.409 120.152 205.862Z" fill="#9FABCE"/>
<path d="M231.129 215.409C226.964 213.815 222.456 216.865 222.463 221.325C222.476 229.356 223.805 242.475 230.156 258.934C240.189 284.933 256.667 315.146 327.432 335.041C332.031 336.334 335.387 330.725 332.055 327.302C322.666 317.658 309.879 302.688 299.364 283.745C281.367 251.323 271.341 230.794 231.129 215.409Z" fill="#FF4858"/>
<path d="M179.892 257.084C177.961 255.937 175.638 257.753 176.341 259.886C179.101 268.264 184.679 281.137 195.062 291.652C211.981 308.786 273.343 334.79 287.092 340.623C300.841 346.456 325.342 347.906 325.422 346.456C325.622 342.838 323.088 339.642 319.516 339.028C305.462 336.612 285.393 328.062 266.089 316.595C233.732 297.375 229.429 265.476 203.047 263.164C191.155 262.12 184.078 259.57 179.892 257.084Z" fill="#FF4858"/>
<path d="M116.415 232.104C111.066 250.175 98.836 280.626 73.647 300.413C69.038 304.033 62.538 299.418 64.417 293.867L70.414 276.147C72.087 271.203 74.77 266.661 78.293 262.809L109.806 228.354C112.602 225.295 117.592 228.13 116.415 232.104Z" fill="#9FABCE"/>
<path d="M106.497 197.925C101.586 188.832 94.3199 173.684 92.8899 161.347C90.6899 142.367 61.2069 106.884 38.6729 102.527C38.6419 102.521 38.6109 102.515 38.5789 102.509C33.1369 101.48 28.1389 105.806 28.1389 111.345V225.853C28.1389 230.43 31.5889 234.27 36.1399 234.759L38.9819 235.064C48.8689 236.125 58.7239 232.197 65.5769 224.401C72.8759 216.097 84.9619 206.589 102.465 205.704C106.109 205.519 108.306 201.275 106.497 197.925Z" fill="#9FABCE"/>
</svg>
