<svg  viewBox="0 0 512 512" fill="none" xmlns="http://www.w3.org/2000/svg">
<path d="M482.191 414.749L416.223 365.599L438.697 369.927C447.882 371.222 456.533 365.283 458.625 356.247C459.191 353.417 457.502 350.623 454.733 349.809L415.387 338.24C407.693 335.035 399.045 334.55 391.188 337.332C384.498 339.7 375.436 340.1 364.887 336.985C326.861 325.755 313.811 285.03 289.998 248.122C259.589 200.989 225.766 197.959 225.766 197.959C201.201 143.894 159.179 139.763 159.179 139.763C159.179 139.763 145.455 86.6971 116.277 54.1011C98.2151 33.9231 62.4561 29.1581 40.4991 28.2311C30.3221 27.8011 21.8521 35.9671 21.8521 46.1531V461.229C21.8521 474.536 36.479 482.657 47.774 475.621L58.3491 469.033C69.3761 462.164 76.9121 450.879 79.0301 438.06L90.0101 371.621L89.1851 316.906C88.9541 301.591 95.6811 287.208 106.941 276.824C119.167 265.548 125.881 236.264 125.881 236.264L157.398 261.771C157.398 261.771 166.319 293.308 201.598 320.236C227.683 340.147 283.37 355.158 308.78 363.705C318.046 366.822 325.38 373.987 328.707 383.18L332.261 392.998C333.005 395.054 334.001 397.01 335.225 398.823L389.665 477.537C393.99 483.94 401.92 486.497 408.966 484.266C411.139 483.578 412.088 481.025 410.908 479.075L382.046 426.611L419.573 471.732C424.543 478.649 433.363 481.171 441.014 478.462C443.54 477.568 444.504 474.496 442.955 472.31L404.894 413.523L443.443 451.074C449.88 457.419 459.579 458.364 466.989 454.03C469.505 452.559 469.801 449.028 467.609 447.108L418.767 400.059L460.018 423.989C467.428 428.396 476.618 427.227 482.688 421.699C484.796 419.779 484.534 416.377 482.191 414.749Z" fill="#484F69"/>
<path d="M124.317 139.756C133.766 149.147 147.791 164.517 155.901 180.136C159.501 187.069 164.888 192.916 171.68 196.775C175.856 199.148 180.617 202.959 184.705 209.058C190.277 217.371 199.898 223.237 207.226 226.771C211.499 228.832 216.235 224.941 215.046 220.348C209.41 198.57 189.996 149.166 127.954 133.321C124.188 132.359 121.559 137.016 124.317 139.756Z" fill="#9FABCE"/>
<path d="M93.612 127.659C90.812 126.067 87.619 129.034 89.002 131.943C95.679 145.993 107.881 173.401 110.76 191.683C114.08 212.764 152.373 237.711 176.57 244.205C181.091 245.418 184.408 239.978 181.29 236.486L170.209 224.077C161.852 214.719 155.145 203.983 150.612 192.284C144.067 175.39 128.56 147.526 93.612 127.659Z" fill="#9FABCE"/>
<path d="M233.798 211.208C228.898 208.372 222.809 212.086 223.149 217.738C224.086 233.313 228.523 262.204 247.332 287.641C266.5 313.563 297.9 342.277 314.986 357.148C321.568 362.877 331.524 362.268 337.352 355.774C343.447 348.982 342.609 338.493 335.538 332.724C323.808 323.155 307.64 308.033 300.989 292.823C291.248 270.543 262.081 227.577 233.798 211.208Z" fill="#FF4858"/>
<path d="M270.804 331.099C272.916 334.215 269.663 338.157 266.203 336.677C245.614 327.868 203.518 308.468 191.278 292.292C181.824 279.797 176.357 267.184 173.422 258.739C171.779 254.011 175.941 249.296 180.841 250.316C192.557 252.754 206.818 268.586 218.66 279.642C231.854 291.959 259.389 314.258 270.804 331.099Z" fill="#FF4858"/>
<path d="M72.6081 340.371C66.4851 355.515 54.1181 387.383 45.1051 418.973C44.0341 422.726 46.2501 426.634 50.0161 427.656L60.7611 430.574C64.3911 431.56 68.1601 429.546 69.3581 425.981L73.7121 413.031C77.5651 401.572 79.2361 389.492 78.6391 377.417L76.8421 341.094C76.7261 338.741 73.4921 338.186 72.6081 340.371Z" fill="#9FABCE"/>
<path d="M138.274 121.794C135.202 97.39 120.838 38.75 53.6981 33.175C46.6981 32.594 39.7591 34.856 34.4851 39.497C33.4081 40.445 32.2611 41.462 31.0751 42.55V85C49.5861 86.346 75.2491 88.721 82.7891 112.21C101.535 119.478 85.9091 111.509 129.733 128.448C134.18 130.167 138.869 126.524 138.274 121.794Z" fill="#9FABCE"/>
<path d="M80.7281 176.43C85.3371 177.308 89.3921 173.295 88.5601 168.677C87.8661 164.825 85.4421 147.406 83.2221 131.171C80.7271 112.93 66.9961 98.2492 48.9621 94.5432L31.0751 90.8662V166.973L80.7281 176.43Z" fill="#9FABCE"/>
<path d="M56.8861 338.169C59.0881 340.162 63.4451 339.983 63.9131 337.12C74.6221 271.599 98.5201 283.665 102.375 247.256C105.528 217.477 96.8001 204.082 96.0141 193.371C95.6581 188.516 91.8161 184.563 86.7841 183.977C71.8331 182.237 50.8711 177.413 39.6401 174.676C36.6671 173.951 33.5971 174.445 31.0751 175.901V313.39L56.8861 338.169Z" fill="#9FABCE"/>
<path d="M40.5871 404.237L55.3581 356.867C55.8851 351.465 53.6821 346.169 49.5261 342.845L31.0751 327.4V415.083C36.0961 414.02 40.0521 409.712 40.5871 404.237Z" fill="#9FABCE"/>
<path d="M216.15 243.03C216.763 246.67 220.675 255.816 224.509 264.675C225.675 267.371 222.152 269.609 220.205 267.409L199.508 244.01C196.502 240.951 198.669 235.783 202.958 235.783H207.621C211.856 235.784 215.447 238.854 216.15 243.03Z" fill="#FF4858"/>
</svg>
