<svg id="Layer_2" enable-background="new 0 0 512 512" viewBox="0 0 512 512" xmlns="http://www.w3.org/2000/svg"><g><g><path d="m482.191 414.749-65.968-49.15 22.474 4.328c9.185 1.295 17.836-4.644 19.928-13.68.566-2.83-1.123-5.624-3.892-6.438l-39.346-11.569c-7.694-3.205-16.342-3.69-24.199-.908-6.69 2.368-15.752 2.768-26.301-.347-38.026-11.23-51.076-51.955-74.889-88.863-30.409-47.133-64.232-50.163-64.232-50.163-24.565-54.065-66.587-58.196-66.587-58.196s-13.724-53.066-42.902-85.662c-18.062-20.178-53.821-24.943-75.778-25.87-10.177-.43-18.647 7.736-18.647 17.922v415.076c0 13.307 14.627 21.428 25.922 14.392l10.575-6.588c11.027-6.869 18.563-18.154 20.681-30.973l10.98-66.439-.825-54.715c-.231-15.315 6.496-29.698 17.756-40.082 12.226-11.276 18.94-40.56 18.94-40.56l31.517 25.507s8.921 31.537 44.2 58.465c26.085 19.911 81.772 34.922 107.182 43.469 9.266 3.117 16.6 10.282 19.927 19.475l3.554 9.818c.744 2.056 1.74 4.012 2.964 5.825l54.44 78.714c4.325 6.403 12.255 8.96 19.301 6.729 2.173-.688 3.122-3.241 1.942-5.191l-28.862-52.464 37.527 45.121c4.97 6.917 13.79 9.439 21.441 6.73 2.526-.894 3.49-3.966 1.941-6.152l-38.061-58.787 38.549 37.551c6.437 6.345 16.136 7.29 23.546 2.956 2.516-1.471 2.812-5.002.62-6.922l-48.842-47.049 41.251 23.93c7.41 4.407 16.6 3.238 22.67-2.29 2.108-1.92 1.846-5.322-.497-6.95z" fill="#484f69"/></g><g><path d="m124.317 139.756c9.449 9.391 23.474 24.761 31.584 40.38 3.6 6.933 8.987 12.78 15.779 16.639 4.176 2.373 8.937 6.184 13.025 12.283 5.572 8.313 15.193 14.179 22.521 17.713 4.273 2.061 9.009-1.83 7.82-6.423-5.636-21.778-25.05-71.182-87.092-87.027-3.766-.962-6.395 3.695-3.637 6.435z" fill="#9fabce"/></g><g><path d="m93.612 127.659c-2.8-1.592-5.993 1.375-4.61 4.284 6.677 14.05 18.879 41.458 21.758 59.74 3.32 21.081 41.613 46.028 65.81 52.522 4.521 1.213 7.838-4.227 4.72-7.719l-11.081-12.409c-8.357-9.358-15.064-20.094-19.597-31.793-6.545-16.894-22.052-44.758-57-64.625z" fill="#9fabce"/></g><path d="m233.798 211.208c-4.9-2.836-10.989.878-10.649 6.53.937 15.575 5.374 44.466 24.183 69.903 19.168 25.922 50.568 54.636 67.654 69.507 6.582 5.729 16.538 5.12 22.366-1.374 6.095-6.792 5.257-17.281-1.814-23.05-11.73-9.569-27.898-24.691-34.549-39.901-9.741-22.28-38.908-65.246-67.191-81.615z" fill="#FF4858"/><path d="m270.804 331.099c2.112 3.116-1.141 7.058-4.601 5.578-20.589-8.809-62.685-28.209-74.925-44.385-9.454-12.495-14.921-25.108-17.856-33.553-1.643-4.728 2.519-9.443 7.419-8.423 11.716 2.438 25.977 18.27 37.819 29.326 13.194 12.317 40.729 34.616 52.144 51.457z" fill="#FF4858"/><g><path d="m72.608 340.371c-6.123 15.144-18.49 47.012-27.503 78.602-1.071 3.753 1.145 7.661 4.911 8.683l10.745 2.918c3.63.986 7.399-1.028 8.597-4.593l4.354-12.95c3.853-11.459 5.524-23.539 4.927-35.614l-1.797-36.323c-.116-2.353-3.35-2.908-4.234-.723z" fill="#9fabce"/></g><g><g><path d="m138.274 121.794c-3.072-24.404-17.436-83.044-84.576-88.619-7-.581-13.939 1.681-19.213 6.322-1.077.948-2.224 1.965-3.41 3.053v42.45c18.511 1.346 44.174 3.721 51.714 27.21 18.746 7.268 3.12-.701 46.944 16.238 4.447 1.719 9.136-1.924 8.541-6.654z" fill="#9fabce"/></g><g><path d="m80.728 176.43c4.609.878 8.664-3.135 7.832-7.753-.694-3.852-3.118-21.271-5.338-37.506-2.495-18.241-16.226-32.922-34.26-36.628l-17.887-3.677v76.107z" fill="#9fabce"/></g><g><path d="m56.886 338.169c2.202 1.993 6.559 1.814 7.027-1.049 10.709-65.521 34.607-53.455 38.462-89.864 3.153-29.779-5.575-43.174-6.361-53.885-.356-4.855-4.198-8.808-9.23-9.394-14.951-1.74-35.913-6.564-47.144-9.301-2.973-.725-6.043-.231-8.565 1.225v137.489z" fill="#9fabce"/></g><g><path d="m40.587 404.237 14.771-47.37c.527-5.402-1.676-10.698-5.832-14.022l-18.451-15.445v87.683c5.021-1.063 8.977-5.371 9.512-10.846z" fill="#9fabce"/></g></g><path d="m216.15 243.03c.613 3.64 4.525 12.786 8.359 21.645 1.166 2.696-2.357 4.934-4.304 2.734l-20.697-23.399c-3.006-3.059-.839-8.227 3.45-8.227h4.663c4.235.001 7.826 3.071 8.529 7.247z" fill="#FF4858"/></g></svg>