<svg  viewBox="0 0 512 512" fill="none" xmlns="http://www.w3.org/2000/svg">
<path d="M376.479 9.82812H376.474H133.216C131.074 9.82812 129.021 10.6871 127.518 12.2131C126.014 13.7391 125.186 15.8041 125.217 17.9451L126.649 115.962C123.84 121.268 115.954 136.987 107.91 160.511C98.881 186.916 87.957 228.603 87.185 277.253C86.159 341.889 99.094 412.255 106.822 454.297C110.122 472.25 112.729 486.43 112.729 491.75C112.729 496.157 116.293 499.734 120.7 499.75L210.252 500.073H210.281C213.127 500.073 215.759 498.561 217.192 496.102C231.625 471.341 243.033 435.367 251.1 389.18C252.503 381.149 253.745 373.158 254.846 365.277C255.946 373.157 257.189 381.148 258.592 389.18C266.659 435.367 278.067 471.341 292.5 496.102C293.934 498.561 296.566 500.073 299.411 500.073H299.44L388.992 499.75C393.399 499.734 396.963 496.157 396.963 491.75C396.963 486.431 399.57 472.25 402.87 454.297C406.711 433.402 411.971 404.787 416.017 374.048C420.836 337.434 422.959 305.772 422.507 277.253C421.735 228.603 410.81 186.916 401.782 160.511C393.738 136.987 385.852 121.268 383.043 115.962L384.472 18.1511C384.476 18.0441 384.478 17.9371 384.478 17.8281C384.477 13.4091 380.897 9.82812 376.479 9.82812Z" fill="#484F69"/>
<path d="M243.74 17.8281H220.147C213.584 17.8281 208.264 23.1481 208.264 29.7111V50.7681C208.264 82.9991 216.01 114.759 230.849 143.371L239.234 159.539C241.681 164.257 248.815 162.517 248.815 157.202V22.9031C248.815 20.1001 246.543 17.8281 243.74 17.8281Z" fill="#9FABCE"/>
<path d="M165.168 23.0123L166.981 24.9493C184.774 43.9623 195.028 68.8083 195.826 94.8363L196.137 104.991C196.272 109.408 190.779 111.539 187.9 108.187L156.69 71.8503C148.741 62.5953 144.816 50.5503 145.785 38.3893L146.49 29.5433C147.237 20.1773 158.749 16.1523 165.168 23.0123Z" fill="#9FABCE"/>
<path d="M203.602 161.465L233.96 204.612C238.252 210.712 240.306 218.107 239.774 225.546L232.13 332.562C232.013 334.197 229.721 334.462 229.235 332.896L206.534 259.777L197.372 163.768C197.036 160.259 201.573 158.582 203.602 161.465Z" fill="#9FABCE"/>
<path d="M111.775 227.313C112.609 224.324 117.04 225.095 116.798 228.189C114.487 257.678 112.286 315.589 125.808 354.908C133.105 376.126 138.107 388.374 141.497 395.418C145.585 403.913 147.126 413.403 145.99 422.763L144.676 433.593C143.807 440.754 134.578 443.01 130.449 437.095C119.189 420.966 103.983 388.598 102.652 330.447C101.422 276.757 106.903 244.782 111.775 227.313Z" fill="#FF4858"/>
<path d="M207.5 295.538L211.363 307.358C222.118 340.265 225.871 375.057 222.382 409.501L218.902 443.848C217.147 461.17 199.792 472.404 183.27 466.912C170.547 462.683 162.805 449.813 165.031 436.591L166.234 429.446C168.465 416.196 173.725 403.58 181.944 392.952C190.823 381.47 202.004 355.321 203.191 296.173C203.241 293.689 206.728 293.177 207.5 295.538Z" fill="#FF4858"/>
<path d="M265.95 17.8281H289.543C296.106 17.8281 301.426 23.1481 301.426 29.7111V50.7681C301.426 82.9991 293.68 114.759 278.841 143.371L270.456 159.539C268.009 164.257 260.875 162.517 260.875 157.202V22.9031C260.874 20.1001 263.147 17.8281 265.95 17.8281Z" fill="#9FABCE"/>
<path d="M344.521 23.0123L342.708 24.9493C324.915 43.9623 314.661 68.8083 313.863 94.8363L313.552 104.991C313.417 109.408 318.91 111.539 321.789 108.187L353 71.8503C360.949 62.5953 364.874 50.5503 363.905 38.3893L363.2 29.5433C362.453 20.1773 350.941 16.1523 344.521 23.0123Z" fill="#9FABCE"/>
<path d="M306.088 161.465L275.73 204.612C271.438 210.712 269.384 218.107 269.916 225.546L277.56 332.562C277.677 334.197 279.969 334.462 280.455 332.896L303.156 259.777L312.318 163.768C312.653 160.259 308.116 158.582 306.088 161.465Z" fill="#9FABCE"/>
<path d="M403.623 228.957C402.914 225.936 398.454 226.523 398.568 229.624C399.657 259.183 399.461 317.136 384.324 355.862C376.156 376.76 370.651 388.791 366.972 395.688C362.536 404.007 360.604 413.425 361.352 422.823L362.217 433.698C362.789 440.889 371.917 443.525 376.287 437.786C388.204 422.136 404.736 390.425 408.472 332.379C411.921 278.787 407.768 246.612 403.623 228.957Z" fill="#FF4858"/>
<path d="M302.19 295.538L298.327 307.358C287.572 340.265 283.819 375.057 287.308 409.501L290.788 443.848C292.543 461.17 309.898 472.404 326.42 466.912C339.143 462.683 346.885 449.813 344.659 436.591L343.456 429.446C341.225 416.196 335.965 403.58 327.746 392.952C318.867 381.47 307.686 355.321 306.499 296.173C306.449 293.689 302.961 293.177 302.19 295.538Z" fill="#FF4858"/>
<path d="M149.251 70.8031L162.158 89.6071C164.893 93.5911 165.342 98.7121 163.336 103.108C154.049 123.464 127.364 182.847 117.275 214.9C116.45 217.52 112.604 217.117 112.369 214.381C111.651 206.014 112.556 192.185 120.18 172.15C130.173 145.888 139.037 122.654 143.172 111.822C144.805 107.545 145.639 103.011 145.639 98.4331V71.9231C145.64 69.9791 148.15 69.2001 149.251 70.8031Z" fill="#9FABCE"/>
<path d="M363.19 70.8031L350.283 89.6071C347.548 93.5911 347.099 98.7121 349.105 103.108C358.392 123.464 385.077 182.847 395.166 214.9C395.991 217.52 399.837 217.117 400.072 214.381C400.79 206.014 399.885 192.185 392.261 172.15C382.268 145.888 373.404 122.654 369.269 111.822C367.636 107.545 366.802 103.011 366.802 98.4331V71.9231C366.801 69.9791 364.29 69.2001 363.19 70.8031Z" fill="#9FABCE"/>
<path d="M330.947 373.267L329.938 370.007C313.166 315.825 311.001 257.705 323.692 202.274L337.867 140.359C339.697 132.367 350.029 131.53 352.974 139.132C364.574 169.074 382.922 220.938 384.709 253.601C388.784 328.096 375.734 330.35 366.245 371.782C361.863 390.911 336.735 391.965 330.947 373.267Z" fill="#FF4858"/>
<path d="M179.834 373.267L180.843 370.007C197.616 315.825 199.78 257.705 187.089 202.274L172.914 140.359C171.084 132.367 160.752 131.53 157.807 139.132C146.207 169.074 127.859 220.938 126.072 253.601C121.997 328.096 135.047 330.35 144.536 371.782C148.918 390.911 174.046 391.965 179.834 373.267Z" fill="#FF4858"/>
</svg>
