<svg id="Layer_2" enable-background="new 0 0 512 512" viewBox="0 0 512 512" xmlns="http://www.w3.org/2000/svg"><g><g><path d="m391.162 7.631h-276.35c-4.418 0-8 3.582-8 8v75.376c0 .84.133 1.676.392 2.475.154.473 3.898 11.733 15.394 25.538 8.242 9.897 11.749 23.036 9.62 36.046l-8.755 53.504c-.077.471-.112.948-.104 1.425l1.428 85.668c-2.813 5.314-10.695 21.029-18.735 44.541-9.029 26.405-19.953 68.092-20.726 116.742-.037 2.307.925 4.518 2.638 6.065 1.744 1.575 43.943 38.576 150.035 38.576 3.909 0 7.245-2.825 7.89-6.68l7.098-42.418 7.098 42.418c.645 3.855 3.982 6.68 7.89 6.68 106.092 0 148.29-37.001 150.035-38.576 1.713-1.546 2.674-3.757 2.638-6.065-.772-48.65-11.697-90.337-20.726-116.742-8.04-23.512-15.922-39.227-18.735-44.541l1.428-85.668c.008-.477-.027-.954-.104-1.425l-8.755-53.504c-2.129-13.011 1.377-26.149 9.62-36.046 11.496-13.805 15.24-25.065 15.394-25.538.26-.799.392-1.634.392-2.475v-75.376c0-4.418-3.582-8-8-8z" fill="#484f69"/></g><g><path d="m246.957 69.564v38.609c0 2.916-2.364 5.279-5.279 5.279h-34.61c-3.408 0-6.557-1.817-8.262-4.767l-4.026-6.963c-3.769-6.519-2.219-14.806 3.652-19.522 9.015-7.244 23.896-16.403 42.774-17.896 3.091-.245 5.751 2.159 5.751 5.26z" fill="#9fabce"/></g><g><path d="m240.573 190.258h-24.602c-6.239 0-11.296-5.058-11.296-11.296v-44.872c0-6.239 5.058-11.296 11.296-11.296h24.602c3.525 0 6.383 2.858 6.383 6.383v54.697c.001 3.526-2.857 6.384-6.383 6.384z" fill="#9fabce"/></g><g><path d="m241.881 197.523h-23.593c-6.563 0-11.883 5.32-11.883 11.883v21.057c0 32.231 7.746 63.991 22.585 92.603l8.385 16.168c2.447 4.718 9.581 2.978 9.581-2.337v-134.299c.001-2.803-2.272-5.075-5.075-5.075z" fill="#9fabce"/></g><g><path d="m154.548 92.9 15.916 18.076c6.706 7.616 10.405 17.415 10.405 27.563v22.063c0 1.734-2.036 2.668-3.35 1.536l-13.895-11.965c-8.016-6.902-12.625-16.955-12.625-27.533v-28.4c0-1.869 2.314-2.743 3.549-1.34z" fill="#9fabce"/></g><g><path d="m157.14 155.36 15.766 14.607c5.078 4.704 7.964 11.313 7.964 18.234v16.516c0 3.311-4.049 4.917-6.318 2.506l-16.227-17.241c-4.705-4.999-7.325-11.605-7.325-18.47v-13.469c-.001-3.192 3.799-4.852 6.14-2.683z" fill="#9fabce"/></g><g><path d="m152.508 191.165 12.614 13.48c17.793 19.013 28.047 43.859 28.845 69.887l.311 10.155c.135 4.417-5.358 6.548-8.237 3.196l-31.21-36.337c-7.949-9.255-11.874-21.3-10.905-33.461l1.962-24.605c.265-3.32 4.345-4.747 6.62-2.315z" fill="#9fabce"/></g><path d="m201.743 341.16 30.358 43.147c4.292 6.1 6.346 13.495 5.814 20.934l-5.659 79.226c-.53 7.423-10.935 8.623-13.141 1.516l-14.44-46.511-9.162-96.009c-.335-3.509 4.202-5.186 6.23-2.303z" fill="#ff004f"/><g><path d="m259.016 69.564v38.609c0 2.916 2.364 5.279 5.279 5.279h34.61c3.408 0 6.557-1.817 8.262-4.767l4.026-6.963c3.769-6.519 2.219-14.806-3.652-19.522-9.015-7.244-23.896-16.403-42.774-17.896-3.092-.245-5.751 2.159-5.751 5.26z" fill="#9fabce"/></g><g><path d="m265.4 190.258h24.602c6.239 0 11.296-5.058 11.296-11.296v-44.872c0-6.239-5.058-11.296-11.296-11.296h-24.602c-3.526 0-6.384 2.858-6.384 6.383v54.697c0 3.526 2.858 6.384 6.384 6.384z" fill="#9fabce"/></g><g><path d="m264.092 197.523h23.593c6.563 0 11.883 5.32 11.883 11.883v21.057c0 32.231-7.746 63.991-22.585 92.603l-8.385 16.168c-2.447 4.718-9.581 2.978-9.581-2.337v-134.299c-.001-2.803 2.271-5.075 5.075-5.075z" fill="#9fabce"/></g><g><path d="m351.425 92.9-15.916 18.076c-6.706 7.616-10.405 17.415-10.405 27.563v22.063c0 1.734 2.036 2.668 3.35 1.536l13.895-11.965c8.016-6.902 12.625-16.955 12.625-27.533v-28.4c0-1.869-2.314-2.743-3.549-1.34z" fill="#9fabce"/></g><g><path d="m348.833 155.36-15.766 14.607c-5.078 4.704-7.964 11.313-7.964 18.234v16.516c0 3.311 4.049 4.917 6.318 2.506l16.227-17.241c4.705-4.999 7.325-11.605 7.325-18.47v-13.469c.001-3.192-3.8-4.852-6.14-2.683z" fill="#9fabce"/></g><g><path d="m353.465 191.165-12.614 13.48c-17.793 19.013-28.047 43.859-28.845 69.887l-.311 10.155c-.135 4.417 5.358 6.548 8.237 3.196l31.21-36.337c7.949-9.255 11.874-21.3 10.905-33.461l-1.962-24.605c-.265-3.32-4.345-4.747-6.62-2.315z" fill="#9fabce"/></g><path d="m304.229 341.16-30.358 43.147c-4.292 6.1-6.346 13.495-5.814 20.934l5.659 79.226c.53 7.423 10.935 8.623 13.141 1.516l14.44-46.511 9.162-96.009c.336-3.509-4.201-5.186-6.23-2.303z" fill="#ff004f"/><g><path d="m147.392 250.498 12.907 18.804c2.735 3.984 3.184 9.105 1.178 13.501-9.287 20.356-35.972 79.739-46.061 111.792-.825 2.62-4.671 2.217-4.906-.519-.718-8.367.187-22.196 7.811-42.231 9.993-26.262 18.857-49.496 22.992-60.328 1.633-4.277 2.467-8.811 2.467-13.389v-26.51c.001-1.944 2.512-2.723 3.612-1.12z" fill="#9fabce"/></g><g><path d="m361.331 250.498-12.907 18.804c-2.735 3.984-3.184 9.105-1.178 13.501 9.287 20.356 35.972 79.739 46.061 111.792.824 2.62 4.671 2.217 4.906-.519.718-8.367-.187-22.196-7.811-42.231-9.993-26.262-18.857-49.496-22.992-60.328-1.633-4.277-2.467-8.811-2.467-13.389v-26.51c-.001-1.944-2.511-2.723-3.612-1.12z" fill="#9fabce"/></g><g><path d="m192.729 486.212c1.942-30.942-.539-62.169-7.502-92.586l-14.175-61.915c-1.83-7.992-12.162-8.829-15.107-1.227-11.6 29.942-29.948 81.806-31.735 114.469-.398 7.278-.631 13.858-.721 19.861 10.436 6.391 33.527 17.848 69.24 21.398z" fill="#9fabce"/></g><g><path d="m313.243 486.212c-1.942-30.942.539-62.169 7.502-92.586l14.175-61.915c1.83-7.992 12.162-8.829 15.107-1.227 11.6 29.942 29.948 81.806 31.735 114.469.398 7.278.631 13.858.721 19.861-10.435 6.391-33.527 17.848-69.24 21.398z" fill="#9fabce"/></g><g><path d="m246.71 30.568v16.119c0 2.743-2.006 5.133-4.863 5.794l-20.888 4.832c-10.774 2.492-27.945 10.577-27.945 10.577-5.973 6.163-36.108-43.292-12.473-43.292h59.763c3.538 0 6.406 2.673 6.406 5.97z" fill="#9fabce"/></g><g><path d="m258.77 30.568v16.119c0 2.743 2.006 5.133 4.863 5.794l20.888 4.832c10.774 2.492 27.945 10.577 27.945 10.577 5.973 6.163 37.243-43.292 12.473-43.292h-59.763c-3.538 0-6.406 2.673-6.406 5.97z" fill="#9fabce"/></g></g></svg>