<svg  viewBox="0 0 512 512" fill="none" xmlns="http://www.w3.org/2000/svg">
<path d="M376.936 9.82812H376.931H133.673C131.531 9.82812 129.478 10.6871 127.975 12.2131C126.471 13.7391 125.643 15.8041 125.674 17.9451L127.106 115.962C124.297 121.268 116.411 136.987 108.367 160.511C99.338 186.916 88.414 228.603 87.642 277.253C86.616 341.89 99.551 412.255 107.279 454.298C110.579 472.251 113.186 486.431 113.186 491.75C113.186 496.157 116.75 499.734 121.157 499.75L210.709 500.073H210.738C213.584 500.073 216.216 498.561 217.649 496.102C232.082 471.341 243.49 435.367 251.557 389.18C252.96 381.149 254.202 373.157 255.303 365.277C256.404 373.157 257.646 381.149 259.049 389.18C267.116 435.367 278.524 471.341 292.957 496.102C294.391 498.561 297.023 500.073 299.868 500.073H299.897L389.449 499.75C393.856 499.734 397.42 496.157 397.42 491.75C397.42 486.431 400.027 472.25 403.327 454.297C407.168 433.402 412.428 404.787 416.474 374.048C421.294 337.434 423.416 305.772 422.964 277.253C422.192 228.603 411.267 186.916 402.239 160.511C394.195 136.987 386.309 121.268 383.5 115.962L384.929 18.1511C384.933 18.0441 384.935 17.9371 384.935 17.8281C384.934 13.4091 381.354 9.82812 376.936 9.82812Z" fill="#484F69"/>
<path d="M244.197 17.8281H220.604C214.041 17.8281 208.721 23.1481 208.721 29.7111V50.7681C208.721 82.9991 216.467 114.759 231.306 143.371L239.691 159.539C242.138 164.257 249.272 162.517 249.272 157.202V22.9031C249.272 20.1001 247 17.8281 244.197 17.8281Z" fill="#9FABCE"/>
<path d="M165.625 23.0123L167.438 24.9493C185.231 43.9623 195.485 68.8083 196.283 94.8363L196.594 104.991C196.729 109.408 191.236 111.539 188.357 108.187L157.147 71.8503C149.198 62.5953 145.273 50.5503 146.242 38.3893L146.947 29.5433C147.694 20.1773 159.206 16.1523 165.625 23.0123Z" fill="#9FABCE"/>
<path d="M204.059 161.465L234.417 204.612C238.709 210.712 240.763 218.107 240.231 225.546L232.587 332.562C232.47 334.197 230.178 334.462 229.692 332.896L206.991 259.777L197.829 163.768C197.493 160.259 202.03 158.582 204.059 161.465Z" fill="#FF4858"/>
<path d="M112.232 227.313C113.066 224.324 117.497 225.095 117.255 228.189C114.944 257.678 112.743 315.589 126.265 354.908C133.562 376.126 138.564 388.374 141.954 395.418C146.042 403.913 147.583 413.403 146.447 422.763L145.133 433.593C144.264 440.754 135.035 443.01 130.906 437.095C119.646 420.966 104.44 388.598 103.109 330.447C101.879 276.757 107.36 244.782 112.232 227.313Z" fill="#9FABCE"/>
<path d="M207.957 295.538L211.82 307.358C222.575 340.265 226.328 375.057 222.839 409.501L219.359 443.848C217.604 461.17 200.249 472.404 183.727 466.912C171.004 462.683 163.262 449.813 165.488 436.591L166.691 429.446C168.922 416.196 174.182 403.58 182.401 392.952C191.28 381.47 202.462 355.321 203.648 296.173C203.698 293.689 207.185 293.177 207.957 295.538Z" fill="#9FABCE"/>
<path d="M266.407 17.8281H290C296.563 17.8281 301.883 23.1481 301.883 29.7111V50.7681C301.883 82.9991 294.137 114.759 279.298 143.371L270.913 159.539C268.466 164.257 261.332 162.517 261.332 157.202V22.9031C261.331 20.1001 263.604 17.8281 266.407 17.8281Z" fill="#9FABCE"/>
<path d="M344.978 23.0123L343.165 24.9493C325.372 43.9623 315.118 68.8083 314.32 94.8363L314.009 104.991C313.874 109.408 319.367 111.539 322.246 108.187L353.456 71.8503C361.405 62.5953 365.33 50.5503 364.361 38.3893L363.656 29.5433C362.91 20.1773 351.398 16.1523 344.978 23.0123Z" fill="#9FABCE"/>
<path d="M306.545 161.465L276.187 204.612C271.895 210.712 269.841 218.107 270.373 225.546L278.017 332.562C278.134 334.197 280.426 334.462 280.912 332.896L303.613 259.777L312.775 163.768C313.11 160.259 308.573 158.582 306.545 161.465Z" fill="#FF4858"/>
<path d="M404.08 228.957C403.371 225.936 398.911 226.523 399.025 229.624C400.114 259.183 399.918 317.136 384.781 355.862C376.613 376.76 371.108 388.791 367.429 395.688C362.993 404.007 361.061 413.425 361.809 422.823L362.674 433.698C363.246 440.889 372.374 443.525 376.744 437.786C388.661 422.136 405.193 390.425 408.929 332.379C412.378 278.787 408.225 246.612 404.08 228.957Z" fill="#9FABCE"/>
<path d="M302.647 295.538L298.784 307.358C288.029 340.265 284.276 375.057 287.765 409.501L291.245 443.848C293 461.17 310.355 472.404 326.877 466.912C339.6 462.683 347.342 449.813 345.116 436.591L343.913 429.446C341.682 416.196 336.422 403.58 328.203 392.952C319.324 381.47 308.142 355.321 306.956 296.173C306.906 293.689 303.418 293.177 302.647 295.538Z" fill="#9FABCE"/>
<path d="M149.708 70.8031L162.615 89.6071C165.35 93.5911 165.799 98.7121 163.793 103.108C154.506 123.464 127.821 182.847 117.732 214.9C116.907 217.52 113.061 217.117 112.826 214.381C112.108 206.014 113.013 192.185 120.637 172.15C130.63 145.888 139.494 122.654 143.629 111.822C145.262 107.545 146.096 103.011 146.096 98.4331V71.9231C146.097 69.9791 148.607 69.2001 149.708 70.8031Z" fill="#9FABCE"/>
<path d="M363.647 70.8031L350.74 89.6071C348.005 93.5911 347.556 98.7121 349.562 103.108C358.849 123.464 385.534 182.847 395.623 214.9C396.447 217.52 400.294 217.117 400.529 214.381C401.247 206.014 400.342 192.185 392.718 172.15C382.725 145.888 373.861 122.654 369.726 111.822C368.093 107.545 367.259 103.011 367.259 98.4331V71.9231C367.258 69.9791 364.747 69.2001 363.647 70.8031Z" fill="#9FABCE"/>
<path d="M331.404 373.267L330.395 370.007C313.623 315.825 311.458 257.705 324.149 202.274L338.324 140.359C340.154 132.367 350.486 131.53 353.431 139.132C365.031 169.074 383.379 220.938 385.166 253.601C389.241 328.096 376.191 330.35 366.702 371.782C362.32 390.911 337.192 391.965 331.404 373.267Z" fill="#9FABCE"/>
<path d="M180.291 373.267L181.3 370.007C198.073 315.825 200.237 257.705 187.546 202.274L173.371 140.359C171.541 132.367 161.209 131.53 158.264 139.132C146.664 169.074 128.316 220.938 126.529 253.601C122.454 328.096 135.504 330.35 144.993 371.782C149.375 390.911 174.503 391.965 180.291 373.267Z" fill="#9FABCE"/>
</svg>
