<svg id="Layer_2" enable-background="new 0 0 512 512" viewBox="0 0 512 512" xmlns="http://www.w3.org/2000/svg"><g><g><path d="m376.936 9.828h-.005-243.258c-2.142 0-4.195.859-5.698 2.385-1.504 1.526-2.332 3.591-2.301 5.732l1.432 98.017c-2.809 5.306-10.695 21.025-18.739 44.549-9.029 26.405-19.953 68.092-20.725 116.742-1.026 64.637 11.909 135.002 19.637 177.045 3.3 17.953 5.907 32.133 5.907 37.452 0 4.407 3.564 7.984 7.971 8l89.552.323h.029c2.846 0 5.478-1.512 6.911-3.971 14.433-24.761 25.841-60.735 33.908-106.922 1.403-8.031 2.645-16.023 3.746-23.903 1.101 7.88 2.343 15.872 3.746 23.903 8.067 46.187 19.475 82.161 33.908 106.922 1.434 2.459 4.066 3.971 6.911 3.971h.029l89.552-.323c4.407-.016 7.971-3.593 7.971-8 0-5.319 2.607-19.5 5.907-37.453 3.841-20.895 9.101-49.51 13.147-80.249 4.82-36.614 6.942-68.276 6.49-96.795-.772-48.65-11.697-90.337-20.725-116.742-8.044-23.524-15.93-39.243-18.739-44.549l1.429-97.811c.004-.107.006-.214.006-.323-.001-4.419-3.581-8-7.999-8z" fill="#484f69"/></g><g><path d="m244.197 17.828h-23.593c-6.563 0-11.883 5.32-11.883 11.883v21.057c0 32.231 7.746 63.991 22.585 92.603l8.385 16.168c2.447 4.718 9.581 2.978 9.581-2.337v-134.299c0-2.803-2.272-5.075-5.075-5.075z" fill="#9fabce"/></g><g><path d="m165.625 23.012 1.813 1.937c17.793 19.013 28.047 43.859 28.845 69.887l.311 10.155c.135 4.417-5.358 6.548-8.237 3.196l-31.21-36.337c-7.949-9.255-11.874-21.3-10.905-33.461l.705-8.846c.747-9.366 12.259-13.391 18.678-6.531z" fill="#9fabce"/></g><g><path d="m204.059 161.465 30.358 43.147c4.292 6.1 6.346 13.495 5.814 20.934l-7.644 107.016c-.117 1.635-2.409 1.9-2.895.334l-22.701-73.119-9.162-96.009c-.336-3.509 4.201-5.186 6.23-2.303z" fill="#9fabce"/></g><path d="m112.232 227.313c.834-2.989 5.265-2.218 5.023.876-2.311 29.489-4.512 87.4 9.01 126.719 7.297 21.218 12.299 33.466 15.689 40.51 4.088 8.495 5.629 17.985 4.493 27.345l-1.314 10.83c-.869 7.161-10.098 9.417-14.227 3.502-11.26-16.129-26.466-48.497-27.797-106.648-1.23-53.69 4.251-85.665 9.123-103.134z" fill="#ff8564"/><path d="m207.957 295.538 3.863 11.82c10.755 32.907 14.508 67.699 11.019 102.143l-3.48 34.347c-1.755 17.322-19.11 28.556-35.632 23.064-12.723-4.229-20.465-17.099-18.239-30.321l1.203-7.145c2.231-13.25 7.491-25.866 15.71-36.494 8.879-11.482 20.061-37.631 21.247-96.779.05-2.484 3.537-2.996 4.309-.635z" fill="#FF4858"/><g><path d="m266.407 17.828h23.593c6.563 0 11.883 5.32 11.883 11.883v21.057c0 32.231-7.746 63.991-22.585 92.603l-8.385 16.168c-2.447 4.718-9.581 2.978-9.581-2.337v-134.299c-.001-2.803 2.272-5.075 5.075-5.075z" fill="#9fabce"/></g><g><path d="m344.978 23.012-1.813 1.937c-17.793 19.013-28.047 43.859-28.845 69.887l-.311 10.155c-.135 4.417 5.358 6.548 8.237 3.196l31.21-36.337c7.949-9.255 11.874-21.3 10.905-33.461l-.705-8.846c-.746-9.366-12.258-13.391-18.678-6.531z" fill="#9fabce"/></g><g><path d="m306.545 161.465-30.358 43.147c-4.292 6.1-6.346 13.495-5.814 20.934l7.644 107.016c.117 1.635 2.409 1.9 2.895.334l22.701-73.119 9.162-96.009c.335-3.509-4.202-5.186-6.23-2.303z" fill="#9fabce"/></g><path d="m404.08 228.957c-.709-3.021-5.169-2.434-5.055.667 1.089 29.559.893 87.512-14.244 126.238-8.168 20.898-13.673 32.929-17.352 39.826-4.436 8.319-6.368 17.737-5.62 27.135l.865 10.875c.572 7.191 9.7 9.827 14.07 4.088 11.917-15.65 28.449-47.361 32.185-105.407 3.449-53.592-.704-85.767-4.849-103.422z" fill="#ff8564"/><path d="m302.647 295.538-3.863 11.82c-10.755 32.907-14.508 67.699-11.019 102.143l3.48 34.347c1.755 17.322 19.11 28.556 35.632 23.064 12.723-4.229 20.465-17.099 18.239-30.321l-1.203-7.145c-2.231-13.25-7.491-25.866-15.71-36.494-8.879-11.482-20.061-37.631-21.247-96.779-.05-2.484-3.538-2.996-4.309-.635z" fill="#FF4858"/><g><path d="m149.708 70.803 12.907 18.804c2.735 3.984 3.184 9.105 1.178 13.501-9.287 20.356-35.972 79.739-46.061 111.792-.825 2.62-4.671 2.217-4.906-.519-.718-8.367.187-22.196 7.811-42.231 9.993-26.262 18.857-49.496 22.992-60.328 1.633-4.277 2.467-8.811 2.467-13.389v-26.51c.001-1.944 2.511-2.723 3.612-1.12z" fill="#9fabce"/></g><g><path d="m363.647 70.803-12.907 18.804c-2.735 3.984-3.184 9.105-1.178 13.501 9.287 20.356 35.972 79.739 46.061 111.792.824 2.62 4.671 2.217 4.906-.519.718-8.367-.187-22.196-7.811-42.231-9.993-26.262-18.857-49.496-22.992-60.328-1.633-4.277-2.467-8.811-2.467-13.389v-26.51c-.001-1.944-2.512-2.723-3.612-1.12z" fill="#9fabce"/></g><g fill="#ff8564"><path d="m331.404 373.267-1.009-3.26c-16.772-54.182-18.937-112.302-6.246-167.733l14.175-61.915c1.83-7.992 12.162-8.829 15.107-1.227 11.6 29.942 29.948 81.806 31.735 114.469 4.075 74.495-8.975 76.749-18.464 118.181-4.382 19.129-29.51 20.183-35.298 1.485z"/><path d="m180.291 373.267 1.009-3.26c16.773-54.182 18.937-112.302 6.246-167.733l-14.175-61.915c-1.83-7.992-12.162-8.829-15.107-1.227-11.6 29.942-29.948 81.806-31.735 114.469-4.075 74.495 8.975 76.749 18.464 118.181 4.382 19.129 29.51 20.183 35.298 1.485z"/></g></g></svg>