<svg id="Layer_1" enable-background="new 0 0 395.691 260.273" height="512" viewBox="0 0 395.691 260.273" width="512" xmlns="http://www.w3.org/2000/svg"><g><path d="m280.09 79.527c-.833-6.297-4.306-12.206-10.053-15.935-2.488-1.615-5.177-2.669-7.919-3.206l-5.65 8.59z"/><path d="m239.226 95.186c1.629 2.379 3.743 4.484 6.313 6.152 10.424 6.766 24.357 3.8 31.123-6.624 1.759-2.711 2.855-5.659 3.338-8.656l-26.873-12.003zm9.596-9.584s9.93 10.025 20.172 10.404c0 0-17.839 10.199-20.172-10.404z"/><path d="m224.923 204.503 4.951 44.862c.691 6.269 5.997 10.907 12.161 10.907.448 0 .902-.024 1.358-.075 6.725-.742 11.574-6.795 10.832-13.52l-5.311-48.125c2.729-.093 5.16-1.567 6.535-3.801l5.238.871-.496 2.98c-.181 1.085.56 2.121 1.645 2.301l3.157.525c1.085.18 2.121-.56 2.301-1.645l1.737-10.446c.18-1.085-.56-2.121-1.645-2.301l-3.157-.525c-1.085-.18-2.12.56-2.301 1.645l-.496 2.98-4.748-.79 5.909-65.937c.229-2.552-.772-4.925-2.508-6.551-.424-.455-.902-.872-1.447-1.226l-25.422-16.5 2.182-3.317 48.59-73.866 1.931 1.25 2.628 1.702-1.642 2.536c-.598.923-.331 2.168.592 2.766l2.686 1.739c.923.598 2.168.331 2.766-.592l5.755-8.889c.598-.923.332-2.168-.592-2.766l-2.686-1.739c-.923-.598-2.168-.331-2.766.592l-1.642 2.536-3.041-1.969-2.059-1.333c.513-3.033-.753-6.223-3.488-8.021-2.771-1.824-6.256-1.701-8.849.034l-2.046-1.325-3.261-2.111 1.642-2.536c.598-.923.332-2.168-.592-2.766l-2.686-1.739c-.923-.598-2.168-.331-2.766.592l-5.753 8.89c-.598.923-.331 2.168.592 2.766l2.686 1.739c.923.598 2.168.331 2.766-.592l1.642-2.536 2.823 1.828 1.931 1.25-48.776 74.149-6.128 9.316c-.036.053-.077.101-.113.156l-37.235 57.368-53.353 82.203c-3.719 5.729-2.086 13.385 3.64 17.101 5.728 3.717 13.385 2.091 17.103-3.638l45.433-70zm16.101-18.639-12.458-8.698 15.358-23.663z"/><path d="m101.211 117.906-13.213 20.08c1.515 2.415 3.542 4.56 6.079 6.23 9.458 6.223 22.17 3.601 28.394-5.857 2.028-3.082 3.1-6.509 3.319-9.945zm-6.032 9.906s10.841 9.032 21.072 8.432c0-.001-16.785 11.854-21.072-8.432z"/><path d="m125.071 121.582c-1.283-4.602-4.153-8.784-8.458-11.616-2.537-1.669-5.31-2.682-8.127-3.117l-3.925 5.965z"/><path d="m109.201 162.517c.275-2.064-.535-4.021-1.989-5.3-.304-.307-.642-.59-1.019-.838l-23.064-15.177 34.617-52.609 1.93 1.25 1.357.879-1.235 1.907c-.45.695-.249 1.631.445 2.08l2.02 1.308c.694.45 1.631.249 2.08-.445l4.329-6.686c.45-.695.249-1.631-.445-2.08l-2.02-1.308c-.694-.45-1.63-.249-2.08.445l-1.235 1.907-1.82-1.178-2.136-1.383c.109-2.059-.841-4.12-2.688-5.335-1.872-1.232-4.181-1.275-6.044-.318l-2.132-1.381-2.286-1.48 1.235-1.907c.45-.694.249-1.631-.445-2.08l-2.02-1.308c-.694-.45-1.631-.249-2.08.445l-4.329 6.686c-.45.694-.249 1.631.445 2.08l2.02 1.308c.695.45 1.631.249 2.08-.445l1.235-1.907 1.815 1.175 1.931 1.25-37.643 57.205c-.02.029-.042.054-.062.084l-21.353 32.451-46.907 71.285c-3.148 4.785-1.822 11.221 2.967 14.372 4.784 3.147 11.219 1.82 14.368-2.965l27.407-41.65c1.463 2.691 4.13 4.683 7.397 5.14l25.551 3.568 7.401 30.636c1.106 4.579 5.201 7.654 9.713 7.653.777 0 1.567-.091 2.356-.281 5.368-1.298 8.669-6.701 7.372-12.069l-7.983-33.04c1.287-.272 2.432-.968 3.282-1.941l2.528.427 1.86.315-.379 2.24c-.138.816.417 1.596 1.232 1.734l2.373.401c.816.138 1.596-.417 1.734-1.232l1.328-7.853c.138-.816-.417-1.596-1.232-1.734l-2.373-.401c-.816-.138-1.596.417-1.734 1.232l-.379 2.24-1.249-.211-2.269-.384zm-17.555 40.977c-.858-.389-1.778-.665-2.744-.8l-5.498-.768 10.59-16.094z"/><path d="m354.777 137.987c1.515 2.415 3.542 4.56 6.079 6.229 9.458 6.223 22.17 3.601 28.394-5.857 2.028-3.082 3.101-6.509 3.32-9.945l-24.579-10.508zm7.181-10.175s10.841 9.032 21.072 8.432c0-.001-16.785 11.854-21.072-8.432z"/><path d="m391.85 121.582c-1.283-4.602-4.153-8.784-8.458-11.616-2.537-1.669-5.309-2.682-8.126-3.117l-3.925 5.965z"/><path d="m387.022 94.71 2.02 1.308c.694.45 1.631.249 2.08-.445l4.329-6.686c.45-.695.249-1.631-.445-2.08l-2.02-1.308c-.694-.45-1.631-.249-2.08.445l-1.235 1.907-1.82-1.178-2.136-1.383c.109-2.059-.842-4.12-2.688-5.335-1.872-1.232-4.181-1.275-6.044-.318l-2.132-1.381-2.286-1.48 1.235-1.907c.45-.694.249-1.631-.445-2.08l-2.02-1.308c-.695-.45-1.631-.249-2.08.445l-4.329 6.686c-.45.694-.249 1.631.445 2.08l2.019 1.308c.694.45 1.631.249 2.08-.445l1.235-1.907 1.815 1.175 1.931 1.25-37.641 57.205c-.02.029-.042.054-.062.084l-21.353 32.451-46.907 71.286c-3.148 4.785-1.822 11.221 2.967 14.372 4.784 3.147 11.219 1.82 14.368-2.965l27.407-41.65c1.463 2.691 4.13 4.683 7.397 5.14l25.551 3.568 7.401 30.636c1.106 4.579 5.201 7.654 9.713 7.653.777 0 1.567-.091 2.356-.281 5.368-1.298 8.669-6.701 7.372-12.069l-7.983-33.04c1.287-.272 2.432-.968 3.282-1.941l2.528.427 1.86.315-.379 2.24c-.138.816.417 1.596 1.232 1.734l2.373.401c.816.138 1.596-.417 1.734-1.232l1.328-7.853c.138-.816-.417-1.596-1.232-1.734l-2.373-.401c-.816-.138-1.596.417-1.734 1.232l-.379 2.24-1.249-.211-2.27-.384 6.221-46.776c.275-2.064-.535-4.021-1.989-5.3-.304-.307-.642-.59-1.019-.838l-23.064-15.177 34.617-52.609 1.93 1.25 1.357.879-1.235 1.907c-.449.692-.249 1.628.446 2.078zm-28.597 108.784c-.858-.389-1.778-.665-2.744-.8l-5.498-.768 10.59-16.094z"/></g></svg>