<svg id="Layer_2" enable-background="new 0 0 512 512" viewBox="0 0 512 512" xmlns="http://www.w3.org/2000/svg"><g><g><path d="m384.891 4.612c-.429 0-.858.034-1.284.104l-76.598 12.454c-17.194 2.796-34.744 4.213-52.163 4.213s-34.969-1.418-52.163-4.213l-76.599-12.455c-.426-.069-.855-.104-1.284-.104-.811 0-1.619.123-2.398.368-2.203.692-54.126 17.43-68.852 59.146-12.363 35.022-5.801 71.956-2.555 85.742-10.916 8.808-35.98 34.384-37.773 84.578-.051 1.437.286 2.861.975 4.122l52.646 96.326c1.384 2.532 4.024 4.122 6.908 4.163.037.001.075.001.112.001 2.842 0 5.475-1.509 6.91-3.969 19.521-33.465 19.788-63.519 19.211-73.545l15.19-19.627c2.29 3.812 5.327 8.26 9.282 13.009 8.243 9.897 11.749 23.036 9.62 36.046l-8.755 53.505c-.078.475-.112.956-.104 1.436l1.463 80.921c.027 1.491.47 2.944 1.279 4.196.487.754 12.166 18.666 33.233 36.696 12.433 10.641 25.595 19.136 39.12 25.247 17.086 7.72 34.777 11.635 52.583 11.635 17.78 0 35.654-3.904 53.125-11.604 13.818-6.09 27.406-14.555 40.388-25.16 21.999-17.971 34.626-35.809 35.152-36.56.916-1.306 1.421-2.856 1.45-4.451l1.463-80.921c.009-.481-.026-.962-.104-1.436l-8.755-53.505c-2.129-13.011 1.377-26.149 9.62-36.046 3.955-4.75 6.993-9.198 9.282-13.009l15.19 19.627c-.577 10.026-.31 40.081 19.211 73.545 1.435 2.46 4.068 3.969 6.91 3.969.037 0 .074 0 .112-.001 2.885-.04 5.525-1.631 6.908-4.163l52.646-96.326c.689-1.261 1.026-2.685.975-4.122-1.793-50.194-26.857-75.77-37.773-84.578 3.246-13.786 9.808-50.72-2.555-85.742-14.725-41.714-66.648-58.452-68.851-59.145-.778-.244-1.587-.367-2.398-.367z" fill="#484f69"/></g><g><path d="m169.103 32.674s-37.238-18.619-63.422-6.982-57.021 31.419-41.311 121.606c0 0 41.311-30.838 47.13-53.53s30.838-59.349 57.603-61.094z" fill="#9fabce"/></g><g><path d="m241.297 54.825c4.666 2.754 7.52 7.767 7.52 13.185v46.72c0 8.704-6.048 15.996-14.171 17.901-4.694 1.101-9.383 2.22-13.953 3.754l-49.851 16.732c-9.613 0-18.681-4.489-24.464-12.168-6.153-8.172-16.775-17.887-33.478-20.387-3.507-.525-5.224-4.54-3.125-7.399 5.659-7.711 14.206-20.645 16.854-31.613 4.073-16.874 36.075-45.966 58.185-47.712 16.315-1.289 43.406 13.269 56.483 20.987z" fill="#9fabce"/></g><g><path d="m108.86 141.749v28.823s-13.09 70.544-48.363 97.308c-5.13 3.892-12.553.702-13.298-5.694l-4.094-35.137c-.937-8.045.134-16.197 3.117-23.727l19.893-50.205s22.11-14.546 31.42-22.692c6.255 0 11.325 5.07 11.325 11.324z" fill="#9fabce"/></g><g><path d="m47.27 175.413c1.622-1.285 3.836.622 2.83 2.43-4.655 8.367-11.702 22.889-12.824 35.847-1.105 12.77-.772 30.815-.404 41.857.078 2.346-3.072 3.176-4.159 1.095l-5.407-10.35c-2.304-4.41-3.429-9.341-3.224-14.312.565-13.726 4.161-41.496 23.188-56.567z" fill="#9fabce"/></g><g><path d="m111.047 196.348v8.785c0 3.786-.666 7.54-1.997 11.084-2.851 7.595-8.865 20.797-18.739 29.621-1.047.936-2.627-.261-2.01-1.523 4.655-9.513 14.642-30.743 20.07-48.378.463-1.5 2.676-1.16 2.676.411z" fill="#9fabce"/></g><path d="m248.816 205.469v38.609c0 2.916-2.364 5.279-5.279 5.279h-34.61c-3.408 0-6.557-1.817-8.262-4.767l-4.026-6.963c-3.769-6.519-2.219-14.806 3.652-19.522 9.015-7.244 23.896-16.403 42.774-17.896 3.092-.245 5.751 2.158 5.751 5.26z" fill="#FF4858"/><g fill="#ff8564"><path d="m242.433 326.162h-24.602c-6.239 0-11.296-5.058-11.296-11.296v-44.872c0-6.239 5.058-11.296 11.296-11.296h24.602c3.526 0 6.383 2.858 6.383 6.383v54.697c0 3.526-2.858 6.384-6.383 6.384z"/><path d="m243.741 333.428h-23.593c-6.563 0-11.883 5.32-11.883 11.883v21.057c0 32.231 7.746 63.991 22.585 92.603l8.385 16.168c2.447 4.718 9.581 2.978 9.581-2.337v-134.299c0-2.803-2.272-5.075-5.075-5.075z"/><path d="m156.407 228.805 15.916 18.076c6.706 7.616 10.405 17.415 10.405 27.563v22.063c0 1.734-2.036 2.668-3.35 1.536l-13.895-11.965c-8.016-6.902-12.625-16.955-12.625-27.533v-28.4c0-1.869 2.314-2.743 3.549-1.34z"/><path d="m158.999 291.264 15.766 14.607c5.078 4.704 7.964 11.313 7.964 18.234v16.516c0 3.311-4.049 4.917-6.318 2.506l-16.227-17.241c-4.705-4.999-7.325-11.605-7.325-18.47v-13.469c-.001-3.191 3.8-4.851 6.14-2.683z"/><path d="m154.368 332.07 12.614 13.48c17.793 19.013 28.047 43.859 28.845 69.887l.311 10.155c.135 4.417-5.358 6.548-8.237 3.196l-31.21-36.337c-7.949-9.255-11.874-21.3-10.905-33.461l1.962-24.605c.264-3.32 4.344-4.747 6.62-2.315z"/></g><g><path d="m340.589 32.674s37.238-18.619 63.422-6.982c26.183 11.637 57.021 31.42 41.311 121.607 0 0-41.311-30.838-47.13-53.53s-30.838-59.35-57.603-61.095z" fill="#9fabce"/></g><g><path d="m268.395 54.825c-4.666 2.754-7.52 7.767-7.52 13.185v46.72c0 8.704 6.048 15.996 14.171 17.901 4.694 1.101 9.383 2.22 13.953 3.754l49.851 16.732c9.613 0 18.681-4.489 24.464-12.168 6.153-8.172 16.775-17.887 33.478-20.387 3.507-.525 5.224-4.54 3.125-7.399-5.659-7.711-14.206-20.645-16.854-31.613-4.073-16.874-36.075-45.966-58.185-47.712-16.316-1.289-43.406 13.269-56.483 20.987z" fill="#9fabce"/></g><g><path d="m400.832 141.749v28.823s13.09 70.544 48.363 97.308c5.13 3.892 12.553.702 13.298-5.694l4.094-35.137c.937-8.045-.134-16.197-3.117-23.727l-19.892-50.205s-22.11-14.546-31.42-22.692c-6.256 0-11.326 5.07-11.326 11.324z" fill="#9fabce"/></g><g><path d="m462.422 175.413c-1.622-1.285-3.836.622-2.83 2.43 4.655 8.367 11.702 22.889 12.824 35.847 1.105 12.77.772 30.815.404 41.857-.078 2.346 3.073 3.176 4.159 1.095l5.407-10.35c2.304-4.41 3.429-9.341 3.224-14.312-.566-13.726-4.161-41.496-23.188-56.567z" fill="#9fabce"/></g><g><path d="m398.645 196.348v8.785c0 3.786.666 7.54 1.997 11.084 2.851 7.595 8.865 20.797 18.739 29.621 1.047.936 2.627-.261 2.01-1.523-4.655-9.513-14.642-30.743-20.07-48.378-.464-1.5-2.676-1.16-2.676.411z" fill="#9fabce"/></g><path d="m260.876 205.469v38.609c0 2.916 2.364 5.279 5.279 5.279h34.61c3.408 0 6.557-1.817 8.262-4.767l4.026-6.963c3.769-6.519 2.219-14.806-3.652-19.522-9.015-7.244-23.896-16.403-42.774-17.896-3.092-.245-5.751 2.158-5.751 5.26z" fill="#FF4858"/><path d="m267.259 326.162h24.602c6.239 0 11.296-5.058 11.296-11.296v-44.872c0-6.239-5.058-11.296-11.296-11.296h-24.602c-3.526 0-6.383 2.858-6.383 6.383v54.697c0 3.526 2.857 6.384 6.383 6.384z" fill="#ff8564"/><path d="m265.951 333.428h23.593c6.563 0 11.883 5.32 11.883 11.883v21.057c0 32.231-7.746 63.991-22.585 92.603l-8.385 16.168c-2.447 4.718-9.581 2.978-9.581-2.337v-134.299c0-2.803 2.272-5.075 5.075-5.075z" fill="#ff8564"/><path d="m353.284 228.805-15.916 18.076c-6.706 7.616-10.405 17.415-10.405 27.563v22.063c0 1.734 2.036 2.668 3.35 1.536l13.895-11.965c8.016-6.902 12.625-16.955 12.625-27.533v-28.4c0-1.869-2.314-2.743-3.549-1.34z" fill="#ff8564"/><path d="m350.692 291.264-15.766 14.607c-5.078 4.704-7.964 11.313-7.964 18.234v16.516c0 3.311 4.049 4.917 6.318 2.506l16.227-17.241c4.705-4.999 7.325-11.605 7.325-18.47v-13.469c.001-3.191-3.799-4.851-6.14-2.683z" fill="#ff8564"/><path d="m355.324 332.07-12.614 13.48c-17.793 19.013-28.047 43.859-28.845 69.887l-.311 10.155c-.135 4.417 5.358 6.548 8.237 3.196l31.21-36.337c7.949-9.255 11.874-21.3 10.905-33.461l-1.962-24.605c-.265-3.32-4.345-4.747-6.62-2.315z" fill="#ff8564"/><path d="m248.57 148.64v36.119c0 2.743-2.006 5.133-4.863 5.794l-20.888 4.832c-10.774 2.492-27.945 10.577-27.945 10.577-5.973 6.163-36.108-43.292-12.473-43.292l59.763-20c3.537 0 6.406 2.673 6.406 5.97z" fill="#FF4858"/><path d="m260.629 148.64v36.119c0 2.743 2.006 5.133 4.863 5.794l20.888 4.832c10.774 2.492 27.945 10.577 27.945 10.577 5.973 6.163 37.244-43.292 12.473-43.292l-59.763-20c-3.537 0-6.406 2.673-6.406 5.97z" fill="#FF4858"/></g></svg>