<svg  viewBox="0 0 512 512" fill="none" xmlns="http://www.w3.org/2000/svg">
<path d="M386.049 4.61184C385.62 4.61184 385.191 4.64584 384.765 4.71584L308.167 17.1698C290.973 19.9658 273.423 21.3828 256.004 21.3828C238.585 21.3828 221.034 19.9648 203.841 17.1698L127.242 4.71484C126.816 4.64584 126.387 4.61084 125.958 4.61084C125.147 4.61084 124.339 4.73384 123.56 4.97884C121.357 5.67084 69.434 22.4088 54.708 64.1248C42.345 99.1468 48.907 136.081 52.153 149.867C41.237 158.675 16.173 184.251 14.38 234.445C14.329 235.882 14.665 237.306 15.355 238.567L68.001 334.893C69.385 337.425 72.025 339.015 74.909 339.056C74.946 339.057 74.984 339.057 75.021 339.057C77.863 339.057 80.496 337.548 81.931 335.088C101.452 301.623 101.719 271.569 101.142 261.543L116.332 241.916C118.622 245.728 121.659 250.176 125.614 254.925C133.857 264.822 137.363 277.961 135.234 290.971L126.479 344.476C126.401 344.951 126.367 345.432 126.375 345.912L127.838 426.833C127.865 428.324 128.308 429.777 129.117 431.029C129.604 431.783 141.283 449.695 162.35 467.725C174.783 478.366 187.945 486.861 201.471 492.972C218.557 500.692 236.248 504.607 254.054 504.607C271.834 504.607 289.708 500.703 307.179 493.003C320.997 486.913 334.585 478.448 347.567 467.843C369.566 449.872 382.193 432.034 382.719 431.283C383.636 429.977 384.141 428.427 384.169 426.832L385.632 345.911C385.641 345.43 385.606 344.949 385.528 344.475L376.773 290.97C374.644 277.959 378.15 264.821 386.393 254.924C390.348 250.174 393.386 245.726 395.675 241.915L410.865 261.542C410.288 271.568 410.555 301.623 430.076 335.087C431.511 337.547 434.144 339.056 436.986 339.056C437.023 339.056 437.06 339.056 437.098 339.055C439.983 339.015 442.623 337.424 444.006 334.892L496.652 238.566C497.341 237.305 497.678 235.881 497.627 234.444C495.834 184.25 470.77 158.674 459.854 149.866C463.1 136.08 469.662 99.1458 457.299 64.1238C442.573 22.4098 390.65 5.67184 388.447 4.97884C387.669 4.73484 386.86 4.61184 386.049 4.61184Z" fill="#484F69"/>
<path d="M170.261 32.674C170.261 32.674 133.023 14.055 106.839 25.692C80.655 37.329 49.818 57.112 65.528 147.299C65.528 147.299 106.839 116.461 112.658 93.769C118.477 71.077 143.495 34.419 170.261 32.674Z" fill="#9FABCE"/>
<path d="M242.454 54.825C247.12 57.579 249.974 62.592 249.974 68.01V114.73C249.974 123.434 243.926 130.726 235.803 132.631C231.109 133.732 226.42 134.851 221.85 136.385L171.999 153.117C162.386 153.117 153.318 148.628 147.535 140.949C141.382 132.777 130.76 123.062 114.057 120.562C110.55 120.037 108.833 116.022 110.932 113.163C116.591 105.452 125.138 92.518 127.786 81.55C131.859 64.676 163.861 35.584 185.971 33.838C202.287 32.549 229.378 47.107 242.454 54.825Z" fill="#9FABCE"/>
<path d="M110.018 141.749V170.572C110.018 170.572 96.928 241.116 61.655 267.88C56.525 271.772 49.102 268.582 48.357 262.186L44.263 227.049C43.326 219.004 44.397 210.852 47.38 203.322L67.273 153.117C67.273 153.117 89.383 138.571 98.693 130.425C104.948 130.425 110.018 135.495 110.018 141.749Z" fill="#9FABCE"/>
<path d="M48.428 175.413C50.05 174.128 52.264 176.035 51.258 177.843C46.603 186.21 39.556 200.732 38.434 213.69C37.329 226.46 37.662 244.505 38.03 255.547C38.108 257.893 34.958 258.723 33.871 256.642L28.464 246.292C26.16 241.882 25.035 236.951 25.24 231.98C25.805 218.254 29.401 190.484 48.428 175.413Z" fill="#9FABCE"/>
<path d="M112.205 196.348V205.133C112.205 208.919 111.539 212.673 110.208 216.217C107.357 223.812 101.343 237.014 91.469 245.838C90.422 246.774 88.842 245.577 89.459 244.315C94.114 234.802 104.101 213.572 109.529 195.937C109.992 194.437 112.205 194.777 112.205 196.348Z" fill="#9FABCE"/>
<path d="M249.974 205.469V244.078C249.974 246.994 247.61 249.357 244.695 249.357H210.085C206.677 249.357 203.528 247.54 201.823 244.59L197.797 237.627C194.028 231.108 195.578 222.821 201.449 218.105C210.464 210.861 225.345 201.702 244.223 200.209C247.315 199.964 249.974 202.367 249.974 205.469Z" fill="#FF4858"/>
<path d="M243.591 326.162H218.989C212.75 326.162 207.693 321.104 207.693 314.866V269.994C207.693 263.755 212.751 258.698 218.989 258.698H243.591C247.116 258.698 249.974 261.556 249.974 265.081V319.778C249.974 323.304 247.116 326.162 243.591 326.162Z" fill="#FF4858"/>
<path d="M244.899 333.428H221.306C214.743 333.428 209.423 338.748 209.423 345.311V366.368C209.423 398.599 217.169 430.359 232.008 458.971L240.393 475.139C242.84 479.857 249.974 478.117 249.974 472.802V338.503C249.974 335.7 247.702 333.428 244.899 333.428Z" fill="#FF4858"/>
<path d="M157.565 228.805L173.481 246.881C180.187 254.497 183.886 264.296 183.886 274.444V296.507C183.886 298.241 181.85 299.175 180.536 298.043L166.641 286.078C158.625 279.176 154.016 269.123 154.016 258.545V230.145C154.016 228.276 156.33 227.402 157.565 228.805Z" fill="#9FABCE"/>
<path d="M160.157 291.264L175.923 305.871C181.001 310.575 183.887 317.184 183.887 324.105V340.621C183.887 343.932 179.838 345.538 177.569 343.127L161.342 325.886C156.637 320.887 154.017 314.281 154.017 307.416V293.947C154.016 290.756 157.817 289.096 160.157 291.264Z" fill="#9FABCE"/>
<path d="M155.526 332.07L168.14 345.55C185.933 364.563 196.187 389.409 196.985 415.437L197.296 425.592C197.431 430.009 191.938 432.14 189.059 428.788L157.849 392.451C149.9 383.196 145.975 371.151 146.944 358.99L148.906 334.385C149.17 331.065 153.25 329.638 155.526 332.07Z" fill="#9FABCE"/>
<path d="M341.747 32.674C341.747 32.674 378.985 14.055 405.169 25.692C431.353 37.329 462.19 57.112 446.48 147.299C446.48 147.299 405.169 116.461 399.35 93.769C393.532 71.076 368.512 34.419 341.747 32.674Z" fill="#9FABCE"/>
<path d="M269.553 54.825C264.887 57.579 262.033 62.592 262.033 68.01V114.73C262.033 123.434 268.081 130.726 276.204 132.631C280.897 133.732 285.587 134.851 290.157 136.385L340.008 153.117C349.621 153.117 358.689 148.628 364.472 140.949C370.625 132.777 381.247 123.062 397.95 120.562C401.457 120.037 403.174 116.022 401.075 113.163C395.416 105.452 386.869 92.518 384.221 81.55C380.148 64.676 348.146 35.584 326.036 33.838C309.72 32.549 282.63 47.107 269.553 54.825Z" fill="#9FABCE"/>
<path d="M401.99 141.749V170.572C401.99 170.572 415.081 241.116 450.353 267.88C455.483 271.772 462.906 268.582 463.651 262.186L467.745 227.049C468.682 219.004 467.611 210.852 464.628 203.322L444.735 153.117C444.735 153.117 422.625 138.571 413.315 130.425C407.06 130.425 401.99 135.495 401.99 141.749Z" fill="#9FABCE"/>
<path d="M463.58 175.413C461.958 174.128 459.744 176.035 460.75 177.843C465.406 186.21 472.452 200.732 473.574 213.69C474.679 226.46 474.346 244.505 473.978 255.547C473.9 257.893 477.051 258.723 478.137 256.642L483.544 246.292C485.848 241.882 486.973 236.951 486.768 231.98C486.202 218.254 482.607 190.484 463.58 175.413Z" fill="#9FABCE"/>
<path d="M399.803 196.348V205.133C399.803 208.919 400.469 212.673 401.8 216.217C404.651 223.812 410.665 237.014 420.539 245.838C421.586 246.774 423.166 245.577 422.549 244.315C417.894 234.802 407.907 213.572 402.479 195.937C402.015 194.437 399.803 194.777 399.803 196.348Z" fill="#9FABCE"/>
<path d="M262.033 205.469V244.078C262.033 246.994 264.397 249.357 267.312 249.357H301.922C305.33 249.357 308.479 247.54 310.184 244.59L314.21 237.627C317.979 231.108 316.429 222.821 310.558 218.105C301.543 210.861 286.662 201.702 267.784 200.209C264.693 199.964 262.033 202.367 262.033 205.469Z" fill="#FF4858"/>
<path d="M268.417 326.162H293.019C299.258 326.162 304.315 321.104 304.315 314.866V269.994C304.315 263.755 299.257 258.698 293.019 258.698H268.417C264.891 258.698 262.033 261.556 262.033 265.081V319.778C262.033 323.304 264.891 326.162 268.417 326.162Z" fill="#FF4858"/>
<path d="M267.109 333.428H290.702C297.265 333.428 302.585 338.748 302.585 345.311V366.368C302.585 398.599 294.839 430.359 280 458.971L271.615 475.139C269.168 479.857 262.034 478.117 262.034 472.802V338.503C262.033 335.7 264.306 333.428 267.109 333.428Z" fill="#FF4858"/>
<path d="M354.442 228.805L338.526 246.881C331.82 254.497 328.121 264.296 328.121 274.444V296.507C328.121 298.241 330.157 299.175 331.471 298.043L345.366 286.078C353.382 279.176 357.991 269.123 357.991 258.545V230.145C357.991 228.276 355.677 227.402 354.442 228.805Z" fill="#9FABCE"/>
<path d="M351.85 291.264L336.084 305.871C331.006 310.575 328.12 317.184 328.12 324.105V340.621C328.12 343.932 332.169 345.538 334.438 343.127L350.665 325.886C355.37 320.887 357.99 314.281 357.99 307.416V293.947C357.991 290.756 354.191 289.096 351.85 291.264Z" fill="#9FABCE"/>
<path d="M356.482 332.07L343.868 345.55C326.075 364.563 315.821 389.409 315.023 415.437L314.712 425.592C314.577 430.009 320.07 432.14 322.949 428.788L354.159 392.451C362.108 383.196 366.033 371.151 365.064 358.99L363.102 334.385C362.837 331.065 358.757 329.638 356.482 332.07Z" fill="#9FABCE"/>
<path d="M249.728 148.179V184.298C249.728 187.041 247.722 189.431 244.865 190.092L223.977 194.924C213.203 197.416 196.032 205.501 196.032 205.501C190.059 211.664 159.924 162.209 183.559 162.209L243.322 142.209C246.859 142.209 249.728 144.882 249.728 148.179Z" fill="#FF4858"/>
<path d="M261.787 148.179V184.298C261.787 187.041 263.793 189.431 266.65 190.092L287.538 194.924C298.312 197.416 315.483 205.501 315.483 205.501C321.456 211.664 352.726 162.209 327.956 162.209L268.193 142.209C264.656 142.209 261.787 144.882 261.787 148.179Z" fill="#FF4858"/>
</svg>
