<svg  viewBox="0 0 512 512" fill="none" xmlns="http://www.w3.org/2000/svg">
<path d="M301.269 37.4619C300.176 37.4619 299.079 37.6859 298.048 38.1389L278.068 46.9279C270.915 50.0749 263.325 51.6709 255.511 51.6709C247.316 51.6709 239.39 49.9239 231.954 46.4779L214.101 38.2039C213.03 37.7079 211.882 37.4619 210.738 37.4619C209.235 37.4619 207.738 37.8849 206.431 38.7199C204.13 40.1899 202.737 42.7319 202.737 45.4619V68.0149L122.954 106.909C116.687 108.987 68.761 126.05 54.708 165.858C42.345 200.88 48.907 237.814 52.153 251.6C41.237 260.408 16.173 285.984 14.38 336.178C14.324 337.735 14.725 339.275 15.532 340.608L70.904 432.041C72.356 434.439 74.954 435.897 77.746 435.897C77.821 435.897 77.896 435.896 77.971 435.894C80.848 435.813 83.461 434.193 84.811 431.65C101.469 400.294 101.686 372.781 101.141 363.277L116.332 343.649C118.621 347.461 121.659 351.908 125.614 356.658C133.856 366.555 137.363 379.694 135.234 392.704L126.479 446.208C125.786 450.442 128.556 454.468 132.758 455.335L209.275 471.116C224.369 474.229 239.838 475.807 255.25 475.807C270.372 475.807 285.555 474.287 300.377 471.289L379.219 455.341C383.436 454.488 386.223 450.453 385.528 446.208L376.773 392.704C374.644 379.693 378.15 366.555 386.393 356.658C390.348 351.908 393.386 347.46 395.675 343.649L410.865 363.276C410.288 373.302 410.555 403.357 430.076 436.821C431.511 439.281 434.144 440.79 436.986 440.79C437.023 440.79 437.06 440.79 437.098 440.789C439.983 440.749 442.623 439.158 444.007 436.626L496.653 340.3C497.342 339.038 497.679 337.614 497.628 336.178C495.835 285.984 470.771 260.408 459.855 251.6C463.101 237.814 469.663 200.88 457.3 165.858C443.247 126.049 395.321 108.987 389.054 106.909L309.27 68.0159V45.4619C309.27 42.7589 307.905 40.2389 305.642 38.7619C304.322 37.9009 302.799 37.4619 301.269 37.4619Z" fill="#484F69"/>
<path d="M249.728 250.095V286.214C249.728 288.957 247.722 291.347 244.865 292.008L223.977 296.84C213.203 299.332 196.032 307.417 196.032 307.417C190.059 313.58 159.924 264.125 183.559 264.125L243.322 244.125C246.859 244.125 249.728 246.798 249.728 250.095Z" fill="#9FABCE"/>
<path d="M261.787 250.095V286.214C261.787 288.957 263.793 291.347 266.65 292.008L287.538 296.84C298.312 299.332 315.483 307.417 315.483 307.417C321.456 313.58 352.726 264.125 327.956 264.125L268.193 244.125C264.656 244.125 261.787 246.798 261.787 250.095Z" fill="#9FABCE"/>
<path d="M221.021 60.4129L233.547 76.7339C235.947 79.8619 237.798 83.3739 239.021 87.1219L254.557 134.75C254.734 135.294 254.825 135.862 254.825 136.434C254.825 141.737 248.015 143.897 244.954 139.566C232.572 122.049 213.376 89.6579 217.061 61.4479C217.315 59.5009 219.825 58.8529 221.021 60.4129Z" fill="#9FABCE"/>
<path d="M146.787 109.587L197.642 84.5569C203.032 81.9039 209.484 84.9189 210.909 90.7549C212.782 98.4239 216.069 108.984 221.62 119.611C224.457 125.042 219.837 131.362 213.808 130.266L148.003 118.301C143.609 117.502 142.779 111.559 146.787 109.587Z" fill="#9FABCE"/>
<path d="M170.261 134.408C170.261 134.408 133.023 115.789 106.839 127.426C80.655 139.063 49.818 158.846 65.528 249.033C65.528 249.033 106.839 218.195 112.658 195.503C118.477 172.811 143.495 136.153 170.261 134.408Z" fill="#FF4858"/>
<path d="M242.455 156.559C247.121 159.313 249.975 164.326 249.975 169.744V216.464C249.975 225.168 243.927 232.46 235.804 234.365C231.111 235.466 226.421 236.585 221.851 238.119L172 254.851C162.387 254.851 153.319 250.362 147.536 242.683C141.383 234.511 130.761 224.796 114.058 222.296C110.551 221.771 108.834 217.756 110.933 214.897C116.592 207.186 125.139 194.252 127.787 183.284C131.86 166.41 163.862 137.318 185.972 135.572C202.287 134.283 229.378 148.841 242.455 156.559Z" fill="#9FABCE"/>
<path d="M110.018 243.483V272.306C110.018 272.306 96.928 342.85 61.655 369.614C56.525 373.506 49.102 370.316 48.357 363.92L44.263 328.783C43.326 320.738 44.397 312.586 47.38 305.056L67.273 254.851C67.273 254.851 89.383 240.305 98.693 232.159C104.948 232.159 110.018 237.229 110.018 243.483Z" fill="#9FABCE"/>
<path d="M48.428 277.147C50.05 275.863 52.264 277.769 51.258 279.577C46.603 287.944 39.556 302.466 38.434 315.424C37.329 328.194 37.662 346.239 38.03 357.281C38.108 359.627 34.958 360.457 33.871 358.376L28.464 348.026C26.16 343.616 25.035 338.685 25.24 333.714C25.805 319.988 29.401 292.218 48.428 277.147Z" fill="#9FABCE"/>
<path d="M112.205 298.082V306.867C112.205 310.653 111.539 314.407 110.208 317.952C107.357 325.547 101.343 338.749 91.469 347.573C90.422 348.509 88.842 347.312 89.459 346.05C94.114 336.537 104.101 315.307 109.529 297.672C109.992 296.171 112.205 296.511 112.205 298.082Z" fill="#9FABCE"/>
<path d="M249.974 307.203V345.812C249.974 348.728 247.61 351.091 244.695 351.091H210.085C206.677 351.091 203.528 349.274 201.823 346.324L197.797 339.361C194.028 332.842 195.578 324.555 201.449 319.839C210.464 312.595 225.345 303.436 244.223 301.943C247.315 301.698 249.974 304.101 249.974 307.203Z" fill="#9FABCE"/>
<path d="M243.591 427.896H218.989C212.75 427.896 207.693 422.838 207.693 416.6V371.728C207.693 365.489 212.751 360.432 218.989 360.432H243.591C247.117 360.432 249.974 363.29 249.974 366.815V421.512C249.974 425.038 247.116 427.896 243.591 427.896Z" fill="#9FABCE"/>
<path d="M157.565 330.539L173.481 348.615C180.187 356.231 183.886 366.03 183.886 376.178V398.241C183.886 399.975 181.85 400.909 180.536 399.777L166.641 387.812C158.625 380.91 154.016 370.857 154.016 360.279V331.879C154.016 330.01 156.33 329.136 157.565 330.539Z" fill="#9FABCE"/>
<path d="M160.157 392.998L175.923 407.605C181.001 412.309 183.887 418.918 183.887 425.839V442.355C183.887 445.666 179.838 447.272 177.569 444.861L161.342 427.62C156.637 422.621 154.017 416.015 154.017 409.15V395.68C154.016 392.49 157.817 390.83 160.157 392.998Z" fill="#9FABCE"/>
<path d="M290.986 60.4129L278.46 76.7339C276.06 79.8619 274.209 83.3739 272.986 87.1219L257.45 134.75C257.273 135.294 257.182 135.862 257.182 136.434C257.182 141.737 263.992 143.897 267.053 139.566C279.435 122.049 298.631 89.6579 294.946 61.4479C294.693 59.5009 292.183 58.8529 290.986 60.4129Z" fill="#9FABCE"/>
<path d="M365.221 109.587L314.366 84.5569C308.976 81.9039 302.524 84.9189 301.099 90.7549C299.226 98.4239 295.939 108.984 290.388 119.611C287.551 125.042 292.171 131.362 298.2 130.266L364.005 118.301C368.399 117.502 369.229 111.559 365.221 109.587Z" fill="#9FABCE"/>
<path d="M341.747 134.408C341.747 134.408 378.985 115.789 405.169 127.426C431.353 139.063 462.19 158.846 446.48 249.033C446.48 249.033 405.169 218.195 399.35 195.503C393.531 172.811 368.512 136.153 341.747 134.408Z" fill="#FF4858"/>
<path d="M269.553 156.559C264.887 159.313 262.033 164.326 262.033 169.744V216.464C262.033 225.168 268.081 232.46 276.204 234.365C280.898 235.466 285.587 236.585 290.157 238.119L340.008 254.851C349.621 254.851 358.689 250.362 364.472 242.683C370.625 234.511 381.247 224.796 397.95 222.296C401.457 221.771 403.174 217.756 401.075 214.897C395.416 207.186 386.869 194.252 384.221 183.284C380.148 166.41 348.146 137.318 326.036 135.572C309.72 134.283 282.63 148.841 269.553 156.559Z" fill="#9FABCE"/>
<path d="M401.99 243.483V272.306C401.99 272.306 415.08 342.85 450.353 369.614C455.483 373.506 462.906 370.316 463.651 363.92L467.745 328.783C468.682 320.738 467.611 312.586 464.628 305.056L444.735 254.851C444.735 254.851 422.625 240.305 413.315 232.159C407.06 232.159 401.99 237.229 401.99 243.483Z" fill="#9FABCE"/>
<path d="M463.58 277.147C461.958 275.863 459.744 277.769 460.75 279.577C465.405 287.944 472.452 302.466 473.574 315.424C474.679 328.194 474.346 346.239 473.978 357.281C473.9 359.627 477.05 360.457 478.137 358.376L483.544 348.026C485.848 343.616 486.973 338.685 486.768 333.714C486.202 319.988 482.607 292.218 463.58 277.147Z" fill="#9FABCE"/>
<path d="M399.803 298.082V306.867C399.803 310.653 400.469 314.407 401.8 317.952C404.651 325.547 410.665 338.749 420.539 347.573C421.586 348.509 423.166 347.312 422.549 346.05C417.894 336.537 407.907 315.307 402.479 297.672C402.015 296.171 399.803 296.511 399.803 298.082Z" fill="#9FABCE"/>
<path d="M262.034 307.203V345.812C262.034 348.728 264.398 351.091 267.313 351.091H301.923C305.331 351.091 308.48 349.274 310.185 346.324L314.211 339.361C317.98 332.842 316.43 324.555 310.559 319.839C301.544 312.595 286.663 303.436 267.785 301.943C264.693 301.698 262.034 304.101 262.034 307.203Z" fill="#9FABCE"/>
<path d="M268.417 427.896H293.019C299.258 427.896 304.315 422.838 304.315 416.6V371.728C304.315 365.489 299.257 360.432 293.019 360.432H268.417C264.892 360.432 262.034 363.29 262.034 366.815V421.512C262.034 425.038 264.892 427.896 268.417 427.896Z" fill="#9FABCE"/>
<path d="M354.442 330.539L338.526 348.615C331.82 356.231 328.121 366.03 328.121 376.178V398.241C328.121 399.975 330.157 400.909 331.471 399.777L345.366 387.812C353.382 380.91 357.991 370.857 357.991 360.279V331.879C357.991 330.01 355.677 329.136 354.442 330.539Z" fill="#9FABCE"/>
<path d="M351.85 392.998L336.084 407.605C331.006 412.309 328.12 418.918 328.12 425.839V442.355C328.12 445.666 332.169 447.272 334.438 444.861L350.665 427.62C355.37 422.621 357.99 416.015 357.99 409.15V395.68C357.991 392.49 354.191 390.83 351.85 392.998Z" fill="#9FABCE"/>
</svg>
