<svg  viewBox="0 0 512 512" fill="none" xmlns="http://www.w3.org/2000/svg">
<path d="M301.269 37.4619C300.176 37.4619 299.079 37.6859 298.048 38.1389L278.068 46.9279C270.915 50.0749 263.325 51.6709 255.511 51.6709C247.317 51.6709 239.39 49.9239 231.954 46.4779L214.101 38.2039C213.03 37.7078 211.882 37.4619 210.738 37.4619C209.235 37.4619 207.738 37.8849 206.432 38.7199C204.13 40.1898 202.738 42.7318 202.738 45.4619V68.0148L122.954 106.909C116.687 108.987 68.7612 126.05 54.7082 165.858C42.3452 200.88 48.9072 237.814 52.1532 251.6C41.2372 260.408 16.1732 285.983 14.3802 336.178C14.3242 337.735 14.7252 339.275 15.5322 340.608L70.9042 432.041C72.3562 434.439 74.9542 435.897 77.7462 435.897C77.8212 435.897 77.8962 435.896 77.9712 435.894C80.8482 435.813 83.4612 434.193 84.8112 431.65C101.469 400.293 101.686 372.781 101.141 363.277L116.332 343.649C118.621 347.461 121.659 351.908 125.614 356.658C133.856 366.555 137.363 379.694 135.235 392.704L126.479 446.208C125.787 450.442 128.556 454.468 132.758 455.335L209.275 471.116C224.37 474.229 239.838 475.807 255.25 475.807C270.372 475.807 285.555 474.287 300.377 471.289L379.219 455.341C383.436 454.488 386.223 450.453 385.528 446.208L376.773 392.704C374.644 379.693 378.15 366.555 386.393 356.658C390.348 351.908 393.386 347.46 395.675 343.649L410.866 363.276C410.288 373.302 410.555 403.357 430.076 436.821C431.511 439.281 434.144 440.79 436.986 440.79C437.023 440.79 437.06 440.79 437.098 440.789C439.983 440.749 442.623 439.158 444.007 436.626L496.653 340.3C497.342 339.038 497.679 337.614 497.628 336.178C495.835 285.983 470.771 260.408 459.855 251.6C463.102 237.814 469.663 200.88 457.301 165.858C443.247 126.049 395.321 108.987 389.054 106.909L309.27 68.0159V45.4619C309.27 42.7589 307.905 40.2389 305.642 38.7619C304.323 37.9009 302.799 37.4619 301.269 37.4619Z" fill="#484F69"/>
<path d="M249.729 250.095V286.214C249.729 288.957 247.724 291.347 244.867 292.008L223.978 296.84C213.205 299.332 196.033 307.417 196.033 307.417C190.06 313.58 159.925 264.125 183.561 264.125L243.323 244.125C246.86 244.125 249.729 246.798 249.729 250.095Z" fill="#9FABCE"/>
<path d="M261.787 250.095V286.214C261.787 288.957 263.794 291.347 266.651 292.008L287.538 296.84C298.313 299.332 315.483 307.417 315.483 307.417C321.457 313.58 352.726 264.125 327.957 264.125L268.193 244.125C264.656 244.125 261.787 246.798 261.787 250.095Z" fill="#9FABCE"/>
<path d="M221.022 60.4129L233.548 76.7338C235.948 79.8619 237.799 83.3739 239.022 87.1218L254.558 134.75C254.735 135.294 254.826 135.862 254.826 136.434C254.826 141.737 248.016 143.897 244.955 139.566C232.573 122.049 213.377 89.6579 217.062 61.4479C217.316 59.5009 219.826 58.8528 221.022 60.4129Z" fill="#9FABCE"/>
<path d="M146.787 109.587L197.642 84.5569C203.032 81.9039 209.484 84.9189 210.909 90.7546C212.782 98.4244 216.069 108.984 221.62 119.611C224.457 125.042 219.837 131.362 213.808 130.266L148.003 118.301C143.609 117.502 142.779 111.559 146.787 109.587Z" fill="#FF4858"/>
<path d="M170.261 134.408C170.261 134.408 133.023 115.789 106.839 127.426C80.6547 139.063 49.8177 158.846 65.5278 249.033C65.5278 249.033 106.839 218.195 112.658 195.503C118.477 172.811 143.495 136.153 170.261 134.408Z" fill="#9FABCE"/>
<path d="M242.454 156.558C247.12 159.313 249.975 164.325 249.975 169.744V216.464C249.975 225.168 243.926 232.46 235.803 234.364C231.11 235.466 226.42 236.585 221.85 238.119L172 254.85C162.386 254.85 153.318 250.362 147.535 242.683C141.382 234.51 130.76 224.796 114.057 222.296C110.55 221.771 108.833 217.756 110.932 214.896C116.591 207.186 125.138 194.252 127.787 183.284C131.86 166.41 163.861 137.317 185.971 135.571C202.286 134.283 229.377 148.841 242.454 156.558Z" fill="#9FABCE"/>
<path d="M110.018 243.482V272.305C110.018 272.305 96.9276 342.85 61.6545 369.614C56.5245 373.506 49.1015 370.316 48.3565 363.92L44.2625 328.782C43.3255 320.738 44.3965 312.586 47.3795 305.056L67.2725 254.851C67.2725 254.851 89.3824 240.305 98.6923 232.159C104.947 232.159 110.018 237.229 110.018 243.482Z" fill="#9FABCE"/>
<path d="M48.4285 277.147C50.0505 275.863 52.2645 277.769 51.2585 279.577C46.6035 287.944 39.5565 302.466 38.4345 315.424C37.3294 328.194 37.6625 346.239 38.0305 357.281C38.1084 359.627 34.9585 360.457 33.8715 358.376L28.4645 348.026C26.1605 343.616 25.0355 338.685 25.2404 333.714C25.8054 319.988 29.4015 292.218 48.4285 277.147Z" fill="#9FABCE"/>
<path d="M112.206 298.082V306.867C112.206 310.653 111.539 314.407 110.209 317.952C107.358 325.547 101.344 338.749 91.4697 347.573C90.4227 348.509 88.8423 347.312 89.4592 346.05C94.1142 336.537 104.102 315.307 109.53 297.672C109.993 296.171 112.206 296.511 112.206 298.082Z" fill="#9FABCE"/>
<path d="M249.975 307.202V345.811C249.975 348.727 247.611 351.09 244.696 351.09H210.086C206.677 351.09 203.529 349.273 201.824 346.324L197.798 339.36C194.028 332.842 195.579 324.555 201.45 319.839C210.464 312.595 225.346 303.436 244.224 301.942C247.316 301.698 249.975 304.101 249.975 307.202Z" fill="#9FABCE"/>
<path d="M243.592 427.895H218.99C212.75 427.895 207.694 422.838 207.694 416.6V371.727C207.694 365.488 212.751 360.432 218.99 360.432H243.592C247.118 360.432 249.975 363.289 249.975 366.815V421.512C249.975 425.038 247.117 427.895 243.592 427.895Z" fill="#9FABCE"/>
<path d="M157.565 330.539L173.482 348.615C180.187 356.231 183.886 366.03 183.886 376.178V398.241C183.886 399.975 181.85 400.909 180.536 399.777L166.641 387.812C158.625 380.91 154.016 370.857 154.016 360.279V331.879C154.016 330.01 156.331 329.136 157.565 330.539Z" fill="#9FABCE"/>
<path d="M160.157 392.997L175.922 407.605C181 412.308 183.886 418.917 183.886 425.839V442.355C183.886 445.666 179.837 447.272 177.568 444.86L161.341 427.62C156.637 422.621 154.016 416.014 154.016 409.149V395.679C154.016 392.49 157.816 390.83 160.157 392.997Z" fill="#9FABCE"/>
<path d="M290.985 60.4129L278.459 76.7338C276.059 79.8619 274.208 83.3739 272.986 87.1218L257.449 134.75C257.272 135.294 257.181 135.862 257.181 136.434C257.181 141.737 263.991 143.897 267.052 139.566C279.434 122.049 298.63 89.6579 294.945 61.4479C294.692 59.5009 292.182 58.8528 290.985 60.4129Z" fill="#9FABCE"/>
<path d="M365.221 109.587L314.366 84.5569C308.976 81.9039 302.524 84.9189 301.1 90.7546C299.226 98.4244 295.939 108.984 290.389 119.611C287.551 125.042 292.171 131.362 298.2 130.266L364.005 118.301C368.399 117.502 369.229 111.559 365.221 109.587Z" fill="#FF4858"/>
<path d="M341.748 134.408C341.748 134.408 378.986 115.789 405.17 127.426C431.354 139.063 462.191 158.846 446.481 249.033C446.481 249.033 405.17 218.195 399.351 195.503C393.532 172.811 368.513 136.153 341.748 134.408Z" fill="#9FABCE"/>
<path d="M269.554 156.558C264.887 159.313 262.033 164.325 262.033 169.744V216.464C262.033 225.168 268.081 232.46 276.204 234.364C280.899 235.466 285.588 236.585 290.157 238.119L340.008 254.85C349.621 254.85 358.689 250.362 364.472 242.683C370.626 234.51 381.247 224.796 397.95 222.296C401.458 221.771 403.174 217.756 401.075 214.896C395.417 207.186 386.87 194.252 384.221 183.284C380.148 166.41 348.146 137.317 326.037 135.571C309.721 134.283 282.63 148.841 269.554 156.558Z" fill="#9FABCE"/>
<path d="M401.99 243.482V272.305C401.99 272.305 415.079 342.85 450.353 369.614C455.483 373.506 462.905 370.316 463.651 363.92L467.744 328.782C468.681 320.738 467.61 312.586 464.627 305.056L444.734 254.851C444.734 254.851 422.624 240.305 413.315 232.159C407.06 232.159 401.99 237.229 401.99 243.482Z" fill="#9FABCE"/>
<path d="M463.581 277.147C461.959 275.863 459.744 277.769 460.751 279.577C465.405 287.944 472.452 302.466 473.574 315.424C474.68 328.194 474.347 346.239 473.979 357.281C473.9 359.627 477.051 360.457 478.138 358.376L483.545 348.026C485.849 343.616 486.973 338.685 486.769 333.714C486.203 319.988 482.608 292.218 463.581 277.147Z" fill="#9FABCE"/>
<path d="M399.805 298.082V306.867C399.805 310.653 400.47 314.407 401.801 317.952C404.652 325.547 410.666 338.749 420.54 347.573C421.587 348.509 423.167 347.312 422.55 346.05C417.895 336.537 407.908 315.307 402.48 297.672C402.016 296.171 399.805 296.511 399.805 298.082Z" fill="#9FABCE"/>
<path d="M262.033 307.202V345.811C262.033 348.727 264.398 351.09 267.313 351.09H301.922C305.33 351.09 308.479 349.273 310.184 346.324L314.21 339.36C317.979 332.842 316.43 324.555 310.559 319.839C301.543 312.595 286.662 303.436 267.785 301.942C264.692 301.698 262.033 304.101 262.033 307.202Z" fill="#9FABCE"/>
<path d="M268.416 427.895H293.018C299.257 427.895 304.314 422.838 304.314 416.6V371.727C304.314 365.488 299.256 360.432 293.018 360.432H268.416C264.892 360.432 262.033 363.289 262.033 366.815V421.512C262.033 425.038 264.892 427.895 268.416 427.895Z" fill="#9FABCE"/>
<path d="M354.442 330.539L338.526 348.615C331.819 356.231 328.121 366.03 328.121 376.178V398.241C328.121 399.975 330.157 400.909 331.47 399.777L345.366 387.812C353.381 380.91 357.99 370.857 357.99 360.279V331.879C357.99 330.01 355.677 329.136 354.442 330.539Z" fill="#9FABCE"/>
<path d="M351.851 392.997L336.084 407.605C331.007 412.308 328.121 418.917 328.121 425.839V442.355C328.121 445.666 332.17 447.272 334.438 444.86L350.666 427.62C355.371 422.621 357.99 416.014 357.99 409.149V395.679C357.992 392.49 354.192 390.83 351.851 392.997Z" fill="#9FABCE"/>
</svg>
