<svg width="61" height="60" viewBox="0 0 61 60" fill="none" xmlns="http://www.w3.org/2000/svg">
<path d="M30.3648 59.4485C24.1474 59.4485 17.0985 55.2567 16.8015 55.0784C16.665 54.9965 16.5794 54.8508 16.5744 54.6915L16.4112 49.5837C16.4102 49.5533 16.4122 49.5229 16.4171 49.4931L17.3942 43.5215C17.6517 41.9479 17.2267 40.3576 16.2279 39.1585C15.5883 38.3903 15.1747 37.7023 14.9228 37.2116L12.7367 40.036C12.8064 40.8928 12.9091 44.3076 10.66 48.1633C10.588 48.2867 10.4638 48.3704 10.3225 48.3908C10.1811 48.412 10.0382 48.3665 9.93421 48.2687L3.55194 42.2742C3.45761 42.1855 3.40405 42.0619 3.40405 41.9325V37.1446C3.40405 37.139 3.40417 37.1335 3.40429 37.1278C3.61476 31.2361 6.70921 28.399 7.63616 27.6784C7.45651 26.5353 6.95085 22.3469 8.38792 18.276C9.89858 13.9967 15.1188 12.162 15.7458 11.9554L24.1442 6.95603L24.939 1.73076C24.9689 1.53447 25.1191 1.37826 25.3141 1.34087L27.9591 0.833687C29.5544 0.527945 31.1732 0.522554 32.7703 0.818101L35.5921 1.34029C35.7883 1.37673 35.9401 1.5333 35.9702 1.73076L36.765 6.95603L45.1635 11.9554C45.7904 12.162 51.0107 13.9967 52.5213 18.276C53.9714 22.3835 53.288 26.4583 53.0655 27.5294C53.91 28.3926 57.1119 32.0478 57.3253 38.024C57.3254 38.0295 57.3255 38.0351 57.3255 38.0407V41.9326C57.3255 42.0598 57.274 42.1814 57.1826 42.2697L50.9799 48.264C50.8765 48.3641 50.7332 48.4105 50.5901 48.3914C50.4474 48.3716 50.3218 48.2875 50.2493 48.1633C48.0001 44.3077 48.1029 40.8929 48.1725 40.036L45.9866 37.2115C45.7346 37.7023 45.3212 38.3903 44.6815 39.1585C43.6828 40.3576 43.2578 41.948 43.5151 43.5215L44.4923 49.4931C44.4973 49.523 44.4992 49.5535 44.4983 49.5837L44.3349 54.6915C44.3298 54.8524 44.2424 54.9995 44.1034 55.081C43.799 55.2593 36.5794 59.4485 30.3648 59.4485Z" fill="#484F69"/>
<path d="M29.854 3.09617V7.85082C29.854 9.15207 29.3237 10.3937 28.3925 11.2729L27.5983 12.0227L28.4191 12.7175C29.3276 13.4865 29.854 14.634 29.854 15.8452V35.5532C29.854 35.9163 29.3858 36.0426 29.2131 35.7262L22.9853 26.7022C22.7613 26.2921 22.67 25.8202 22.7212 25.3528C22.9755 23.0355 23.1098 15.6087 17.7649 13.4116C17.2223 13.1886 17.1799 12.416 17.6988 12.1396L24.6755 8.42433L28.7387 2.71988C29.0917 2.22429 29.854 2.48152 29.854 3.09617Z" fill="#FF004F"/>
<path d="M13.8935 13.4507C14.5998 13.1139 15.4148 13.0888 16.1477 13.3632C17.3692 13.8206 19.2363 14.5664 20.1403 16.5034C20.7275 17.7617 14.5102 17.276 13.9066 21.9881C13.8242 22.6311 13.4918 23.2176 12.9815 23.6175C12.5747 23.9364 12.4829 23.9365 9.72606 26.4163C9.33021 26.7724 8.69646 26.5788 8.57071 26.0613C7.92161 23.3912 7.09087 16.6944 13.8935 13.4507Z" fill="#FF004F"/>
<path d="M14.5655 23.3142C14.5604 21.2593 15.852 19.4251 17.7884 18.7376L20.061 17.9306C20.6051 17.6715 21.1447 18.0581 21.2753 18.6465C21.6371 20.2754 22.0874 22.3141 21.6835 25.5148C21.6285 25.95 21.3298 26.3167 20.9143 26.4575L15.5382 28.2789C15.0422 28.4469 14.5322 28.0657 14.5531 27.5425C14.5706 27.1059 14.5702 25.1431 14.5655 23.3142Z" fill="#FF004F"/>
<path d="M15.8154 28.881C15.259 29.0032 14.8702 29.505 14.8803 30.0747C14.9026 31.3313 15.0373 33.5107 15.6438 35.306C17.009 39.3471 20.188 42.2794 20.4955 45.3313C20.5145 45.5195 20.7314 45.6155 20.8855 45.5057L27.8731 37.6188C28.3838 37.255 28.5306 36.5604 28.2106 36.0211L22.4087 27.7058C22.0743 27.2751 21.502 27.1078 20.9886 27.2916C19.7616 27.731 17.4685 28.5179 15.8154 28.881Z" fill="#FF004F"/>
<path d="M10.7395 27.381C10.1268 28.7357 9.27399 30.8958 9.04817 32.847C8.94798 33.7131 8.61809 34.5368 8.06286 35.209C7.72137 35.6223 7.37614 36.2089 7.19192 37.0073C6.94079 38.0957 6.17005 39.0895 5.54602 39.7491C5.18216 40.1337 4.53364 39.9158 4.47528 39.3897C4.1986 36.8943 4.26212 30.9701 10.1046 26.8541C10.4592 26.6043 10.9182 26.9857 10.7395 27.381Z" fill="#9FABCE"/>
<path d="M13.3449 24.9001C13.5737 24.6228 14.0245 24.8056 13.9958 25.164C13.8572 26.8946 13.6726 30.238 14.0981 32.2592C14.5888 34.59 11.5849 38.7125 9.31876 40.3505C8.89536 40.6566 8.33333 40.2208 8.52001 39.7327L9.18329 37.9985C9.68344 36.6905 9.95684 35.3045 9.96516 33.9042C9.977 31.8821 10.4882 28.36 13.3449 24.9001Z" fill="#9FABCE"/>
<path d="M29.8539 38.2687V56.9131C29.8539 57.4066 29.2959 57.6769 28.9271 57.3622L26.8793 55.6147C25.6402 54.5573 24.0817 53.9786 22.4729 53.9786C21.7671 53.9786 21.1835 53.4119 21.1418 52.6858L20.8487 47.5891C20.8139 46.9843 21.0831 46.4035 21.5614 46.0512L28.959 37.7943C29.3336 37.5185 29.8539 37.7943 29.8539 38.2687Z" fill="#FF004F"/>
<path d="M18.6446 42.7572C18.6446 42.7572 19.9446 48.0618 20.4126 53.133C20.4487 53.5237 20.0769 53.8376 19.6857 53.8695L18.6815 53.9704C18.2632 54.0045 17.8906 53.7066 17.8319 53.2911L17.6184 51.7812C17.4294 50.4452 17.4925 49.0856 17.8045 47.7728L18.6446 42.7572Z" fill="#9FABCE"/>
<path d="M30.8445 3.09617V7.85082C30.8445 9.15207 31.3748 10.3937 32.3059 11.2729L33.1001 12.0227L32.2793 12.7175C31.3709 13.4865 30.8445 14.634 30.8445 15.8452V35.5532C30.8445 35.9163 31.3126 36.0426 31.4854 35.7262L37.7132 26.7022C37.9371 26.2921 38.0284 25.8202 37.9772 25.3528C37.7229 23.0355 37.5886 15.6087 42.9335 13.4116C43.4761 13.1886 43.5185 12.416 42.9995 12.1396L36.023 8.42433L31.9599 2.71988C31.6069 2.22429 30.8445 2.48152 30.8445 3.09617Z" fill="#FF004F"/>
<path d="M46.8053 13.4507C46.0991 13.1139 45.284 13.0888 44.5511 13.3632C43.3297 13.8206 41.4625 14.5664 40.5585 16.5034C39.9725 17.7592 46.3453 17.3453 46.8193 21.9707C46.8867 22.6276 47.2182 23.2298 47.7396 23.6351C48.1283 23.9372 48.2671 23.9828 50.9726 26.4163C51.3685 26.7724 52.0023 26.5788 52.128 26.0613C52.7771 23.3912 53.6078 16.6944 46.8053 13.4507Z" fill="#FF004F"/>
<path d="M46.133 23.3142C46.1381 21.2593 44.8465 19.4251 42.9101 18.7376L40.6375 17.9306C40.0933 17.6715 39.5538 18.0581 39.4232 18.6465C39.0615 20.2754 38.6111 22.3141 39.015 25.5148C39.07 25.95 39.3687 26.3167 39.7842 26.4575L45.1603 28.2789C45.6563 28.4469 46.1664 28.0657 46.1454 27.5425C46.1279 27.1059 46.1284 25.1431 46.133 23.3142Z" fill="#FF004F"/>
<path d="M44.8833 28.881C45.4397 29.0032 45.8284 29.505 45.8183 30.0747C45.796 31.3313 45.6613 33.5107 45.0548 35.306C43.6896 39.3471 40.5106 42.2794 40.2031 45.3313C40.1842 45.5195 39.9672 45.6155 39.8131 45.5057L32.8255 37.736C32.3148 37.3722 32.1681 36.6776 32.488 36.1383L38.2899 27.7058C38.6243 27.2751 39.1966 27.1078 39.71 27.2916C40.937 27.731 43.2302 28.5179 44.8833 28.881Z" fill="#FF004F"/>
<path d="M49.9589 27.381C50.5717 28.7357 51.4244 30.8958 51.6503 32.847C51.7505 33.7131 52.0803 34.5368 52.6356 35.209C52.9771 35.6223 53.3223 36.2089 53.5065 37.0073C53.7576 38.0957 54.5284 39.0895 55.1524 39.7491C55.5163 40.1337 56.1648 39.9158 56.2232 39.3897C56.4998 36.8943 56.4363 30.9701 50.5938 26.8541C50.2391 26.6043 49.7801 26.9857 49.9589 27.381Z" fill="#9FABCE"/>
<path d="M47.3536 24.9001C47.1248 24.6228 46.6739 24.8056 46.7027 25.164C46.8413 26.8946 47.0259 30.238 46.6004 32.2592C46.1097 34.59 49.1136 38.7125 51.3797 40.3505C51.8031 40.6566 52.3652 40.2208 52.1785 39.7327L51.5152 37.9985C51.015 36.6905 50.7416 35.3045 50.7333 33.9042C50.7215 31.8821 50.2103 28.36 47.3536 24.9001Z" fill="#9FABCE"/>
<path d="M30.8445 38.2687V56.9131C30.8445 57.4066 31.4024 57.6769 31.7712 57.3622L33.8191 55.6147C35.0582 54.5573 36.6167 53.9786 38.2255 53.9786C38.9314 53.9786 39.515 53.4119 39.5567 52.6858L39.8498 47.5891C39.8846 46.9843 39.6154 46.4035 39.137 46.0512L31.7394 37.7943C31.3649 37.5185 30.8445 37.7943 30.8445 38.2687Z" fill="#FF004F"/>
<path d="M42.0539 42.7572C42.0539 42.7572 40.7539 48.0618 40.2859 53.133C40.2498 53.5237 40.6216 53.8376 41.0128 53.8695L42.017 53.9704C42.4353 54.0045 42.8079 53.7066 42.8666 53.2911L43.0801 51.7812C43.2691 50.4452 43.206 49.0856 42.894 47.7728L42.0539 42.7572Z" fill="#9FABCE"/>
</svg>
