<svg width="101" height="100" viewBox="0 0 101 100" fill="none" xmlns="http://www.w3.org/2000/svg">
<path d="M59.2047 7.3168C58.9912 7.3168 58.777 7.36054 58.5756 7.44902L54.6734 9.16562C53.2764 9.78027 51.7939 10.092 50.2676 10.092C48.667 10.092 47.1189 9.75078 45.6668 9.07773L42.1799 7.46172C41.9707 7.36484 41.7465 7.3168 41.5231 7.3168C41.2295 7.3168 40.9371 7.39941 40.6818 7.5625C40.2324 7.84961 39.9604 8.34609 39.9604 8.8793V13.2842L24.3777 20.8807C23.1537 21.2865 13.7932 24.6191 11.0484 32.3941C8.63379 39.2344 9.91543 46.448 10.5494 49.1406C8.41738 50.8609 3.52207 55.8563 3.17188 65.6598C3.16094 65.9639 3.23926 66.2646 3.39688 66.525L14.2117 84.383C14.4953 84.8514 15.0027 85.1361 15.548 85.1361C15.5627 85.1361 15.5773 85.1359 15.592 85.1355C16.1541 85.1197 16.6643 84.8033 16.9279 84.3066C20.1814 78.1824 20.2238 72.8088 20.1174 70.9525L23.0844 67.1189C23.5314 67.8635 24.1248 68.7322 24.8973 69.6598C26.5072 71.5928 27.192 74.159 26.7762 76.7L25.0662 87.15C24.9309 87.977 25.4719 88.7633 26.2926 88.9326L41.2373 92.0148C44.1854 92.6228 47.2065 92.9311 50.2168 92.9311C53.1703 92.9311 56.1357 92.6342 59.0307 92.0486L74.4295 88.9338C75.2531 88.7672 75.7975 87.9791 75.6617 87.15L73.9518 76.7C73.5359 74.1588 74.2207 71.5928 75.8307 69.6598C76.6031 68.732 77.1965 67.8633 77.6436 67.1189L80.6104 70.9523C80.4977 72.9105 80.5498 78.7805 84.3625 85.3166C84.6428 85.7971 85.157 86.0918 85.7121 86.0918C85.7193 86.0918 85.7268 86.0918 85.734 86.0916C86.2975 86.0838 86.8131 85.773 87.0832 85.2785L97.3656 66.4648C97.5004 66.2184 97.566 65.9402 97.5561 65.6598C97.2059 55.8563 92.3106 50.8609 90.1785 49.1406C90.8125 46.448 92.0941 39.2344 89.6795 32.3941C86.9348 24.6189 77.5742 21.2865 76.3502 20.8807L60.7676 13.2842V8.8793C60.7676 8.35137 60.501 7.85918 60.059 7.5707C59.8008 7.40254 59.5035 7.3168 59.2047 7.3168Z" fill="#484F69"/>
<path d="M43.5313 11.7994L45.9777 14.9871C46.4465 15.598 46.808 16.284 47.0469 17.016L50.0813 26.3184C50.1158 26.4246 50.1336 26.5355 50.1336 26.6473C50.1336 27.683 48.8035 28.1049 48.2057 27.259C45.7873 23.8377 42.0381 17.5113 42.7578 12.0016C42.8074 11.6213 43.2977 11.4947 43.5313 11.7994Z" fill="#FF4858"/>
<path d="M29.0324 21.4037L38.965 16.515C40.0178 15.9969 41.2779 16.5857 41.5562 17.7256C41.9221 19.2234 42.5641 21.2859 43.6482 23.3615C44.2023 24.4223 43.3 25.6566 42.1225 25.4426L29.2699 23.1057C28.4117 22.9496 28.2496 21.7889 29.0324 21.4037Z" fill="#FF4858"/>
<path d="M33.6172 26.2516C33.6172 26.2516 26.3441 22.615 21.2301 24.8879C16.116 27.1607 10.0932 31.0246 13.1615 48.6393C13.1615 48.6393 21.2301 42.6162 22.3666 38.1842C23.5031 33.7521 28.3897 26.5924 33.6172 26.2516Z" fill="#FF4858"/>
<path d="M47.7176 30.5779C48.6289 31.1158 49.1863 32.0949 49.1863 33.1531V42.2781C49.1863 43.9781 48.0051 45.4023 46.4186 45.7744C45.5018 45.9895 44.5859 46.208 43.6934 46.5076L33.9568 49.7756C32.0793 49.7756 30.3082 48.8988 29.1787 47.399C27.977 45.8029 25.9023 43.9055 22.64 43.4172C21.9551 43.3146 21.6197 42.5305 22.0297 41.9721C23.135 40.466 24.8043 37.9398 25.3215 35.7977C26.117 32.5019 32.3674 26.8199 36.6857 26.4789C39.8723 26.2271 45.1635 29.0705 47.7176 30.5779Z" fill="#FF4858"/>
<path d="M21.851 47.5553V53.1848C21.851 53.1848 19.2943 66.9629 12.4051 72.1902C11.4031 72.9504 9.95332 72.3273 9.80781 71.0781L9.0082 64.2154C8.8252 62.6441 9.03438 61.052 9.61699 59.5812L13.5023 49.7756C13.5023 49.7756 17.8207 46.9346 19.6391 45.3436C20.8607 45.3436 21.851 46.3338 21.851 47.5553Z" fill="#FF4858"/>
<path d="M9.82168 54.1303C10.1385 53.8795 10.5709 54.2518 10.3744 54.6049C9.46524 56.2391 8.08887 59.0754 7.86973 61.6063C7.65391 64.1004 7.71895 67.6248 7.79082 69.7814C7.80606 70.2397 7.19082 70.4018 6.97852 69.9953L5.92246 67.9738C5.47246 67.1125 5.25273 66.1494 5.29277 65.1785C5.40313 62.4977 6.10547 57.0738 9.82168 54.1303Z" fill="#FF4858"/>
<path d="M22.2781 58.2191V59.935C22.2781 60.6744 22.1481 61.4076 21.8881 62.1C21.3313 63.5834 20.1566 66.1619 18.2281 67.8854C18.0236 68.0682 17.715 67.8344 17.8356 67.5879C18.7447 65.7299 20.6953 61.5834 21.7555 58.1391C21.8459 57.8459 22.2781 57.9123 22.2781 58.2191Z" fill="#FF4858"/>
<path d="M49.1861 60.0006V67.5414C49.1861 68.1109 48.7244 68.5725 48.1551 68.5725H41.3953C40.7297 68.5725 40.1147 68.2176 39.7816 67.6414L38.9953 66.2814C38.2592 65.0082 38.5619 63.3896 39.7086 62.4685C41.4693 61.0537 44.3758 59.2648 48.0629 58.9732C48.6668 58.9254 49.1861 59.3947 49.1861 60.0006Z" fill="#FF4858"/>
<path d="M47.9395 83.5734H43.1344C41.9158 83.5734 40.9281 82.5855 40.9281 81.3672V72.6031C40.9281 71.3846 41.916 70.3969 43.1344 70.3969H47.9395C48.6281 70.3969 49.1861 70.9551 49.1861 71.6435V82.3266C49.1861 83.0152 48.6279 83.5734 47.9395 83.5734Z" fill="#FF4858"/>
<path d="M31.1375 64.5584L34.2461 68.0889C35.5559 69.5764 36.2783 71.4902 36.2783 73.4723V77.7814C36.2783 78.1201 35.8807 78.3025 35.624 78.0814L32.9102 75.7445C31.3445 74.3965 30.4443 72.433 30.4443 70.367V64.8201C30.4443 64.4551 30.8963 64.2844 31.1375 64.5584Z" fill="#FF4858"/>
<path d="M31.6438 76.7574L34.7231 79.6104C35.7148 80.5291 36.2785 81.8199 36.2785 83.1717V86.3975C36.2785 87.0442 35.4877 87.3578 35.0445 86.8869L31.875 83.5195C30.9561 82.5432 30.4443 81.2529 30.4443 79.9121V77.2813C30.4443 76.6582 31.1867 76.334 31.6438 76.7574Z" fill="#FF4858"/>
<path d="M57.1963 11.7994L54.75 14.9871C54.2813 15.598 53.9197 16.284 53.6809 17.016L50.6465 26.3184C50.6119 26.4246 50.5941 26.5355 50.5941 26.6473C50.5941 27.683 51.9242 28.1049 52.5221 27.259C54.9404 23.8377 58.6897 17.5113 57.9699 12.0016C57.9203 11.6213 57.4301 11.4947 57.1963 11.7994Z" fill="#FF4858"/>
<path d="M71.6953 21.4037L61.7627 16.515C60.71 15.9969 59.4498 16.5857 59.1715 17.7256C58.8057 19.2234 58.1637 21.2859 57.0795 23.3615C56.5254 24.4223 57.4277 25.6566 58.6053 25.4426L71.4578 23.1057C72.316 22.9496 72.4781 21.7889 71.6953 21.4037Z" fill="#FF4858"/>
<path d="M67.1105 26.2516C67.1105 26.2516 74.3836 22.615 79.4977 24.8879C84.6115 27.1607 90.6346 31.0246 87.5662 48.6393C87.5662 48.6393 79.4977 42.6162 78.3611 38.1842C77.2246 33.7521 72.3381 26.5924 67.1105 26.2516Z" fill="#FF4858"/>
<path d="M53.0102 30.5779C52.0988 31.1158 51.5414 32.0949 51.5414 33.1531V42.2781C51.5414 43.9781 52.7227 45.4023 54.3092 45.7744C55.226 45.9895 56.1418 46.208 57.0344 46.5076L66.7709 49.7756C68.6484 49.7756 70.4195 48.8988 71.549 47.399C72.7508 45.8029 74.8254 43.9055 78.0877 43.4172C78.7727 43.3146 79.108 42.5305 78.6981 41.9721C77.5928 40.466 75.9234 37.9398 75.4063 35.7977C74.6107 32.5019 68.3604 26.8199 64.042 26.4789C60.8553 26.2271 55.5643 29.0705 53.0102 30.5779Z" fill="#FF4858"/>
<path d="M78.8768 47.5553V53.1848C78.8768 53.1848 81.4334 66.9629 88.3227 72.1902C89.3246 72.9504 90.7744 72.3273 90.9199 71.0781L91.7195 64.2154C91.9025 62.6441 91.6934 61.052 91.1107 59.5812L87.2254 49.7756C87.2254 49.7756 82.907 46.9346 81.0887 45.3436C79.867 45.3436 78.8768 46.3338 78.8768 47.5553Z" fill="#FF4858"/>
<path d="M90.9061 54.1303C90.5893 53.8795 90.1568 54.2518 90.3533 54.6049C91.2625 56.2391 92.6389 59.0754 92.858 61.6063C93.0738 64.1004 93.0088 67.6248 92.9369 69.7814C92.9217 70.2397 93.5371 70.4018 93.7492 69.9953L94.8053 67.9738C95.2553 67.1125 95.475 66.1494 95.435 65.1785C95.3244 62.4977 94.6223 57.0738 90.9061 54.1303Z" fill="#FF4858"/>
<path d="M78.4496 58.2191V59.935C78.4496 60.6744 78.5797 61.4076 78.8397 62.1C79.3965 63.5834 80.5711 66.1619 82.4996 67.8854C82.7041 68.0682 83.0127 67.8344 82.8922 67.5879C81.983 65.7299 80.0324 61.5834 78.9723 58.1391C78.8817 57.8459 78.4496 57.9123 78.4496 58.2191Z" fill="#FF4858"/>
<path d="M51.5416 60.0006V67.5414C51.5416 68.1109 52.0033 68.5725 52.5727 68.5725H59.3324C59.9981 68.5725 60.6131 68.2176 60.9461 67.6414L61.7324 66.2814C62.4686 65.0082 62.1658 63.3896 61.0191 62.4685C59.2584 61.0537 56.352 59.2648 52.6649 58.9732C52.0609 58.9254 51.5416 59.3947 51.5416 60.0006Z" fill="#FF4858"/>
<path d="M52.7883 83.5734H57.5934C58.8119 83.5734 59.7996 82.5855 59.7996 81.3672V72.6031C59.7996 71.3846 58.8117 70.3969 57.5934 70.3969H52.7883C52.0996 70.3969 51.5416 70.9551 51.5416 71.6435V82.3266C51.5416 83.0152 52.0996 83.5734 52.7883 83.5734Z" fill="#FF4858"/>
<path d="M69.5901 64.5584L66.4815 68.0889C65.1717 69.5764 64.4492 71.4902 64.4492 73.4723V77.7814C64.4492 78.1201 64.8469 78.3025 65.1035 78.0814L67.8174 75.7445C69.383 74.3965 70.2832 72.433 70.2832 70.367V64.8201C70.2832 64.4551 69.8313 64.2844 69.5901 64.5584Z" fill="#FF4858"/>
<path d="M69.0838 76.7574L66.0045 79.6104C65.0127 80.5291 64.449 81.8199 64.449 83.1717V86.3975C64.449 87.0442 65.2398 87.3578 65.683 86.8869L68.8523 83.5195C69.7713 82.5432 70.283 81.2529 70.283 79.9121V77.2813C70.2832 76.6582 69.541 76.334 69.0838 76.7574Z" fill="#FF4858"/>
<path d="M49.1381 48.8467V55.9012C49.1381 56.4369 48.7463 56.9037 48.1883 57.0328L44.1086 57.9766C42.0043 58.4633 38.6506 60.0424 38.6506 60.0424C37.484 61.2461 31.5983 51.5869 36.2145 51.5869L47.8869 47.6807C48.5777 47.6807 49.1381 48.2027 49.1381 48.8467Z" fill="#FF4858"/>
<path d="M51.4934 48.8467V55.9012C51.4934 56.4369 51.8852 56.9037 52.4432 57.0328L56.5229 57.9766C58.6272 58.4633 61.9809 60.0424 61.9809 60.0424C63.1475 61.2461 69.2551 51.5869 64.417 51.5869L52.7445 47.6807C52.0537 47.6807 51.4934 48.2027 51.4934 48.8467Z" fill="#FF4858"/>
</svg>
