<svg width="164" height="164" viewBox="0 0 164 164" fill="none" xmlns="http://www.w3.org/2000/svg">
<path d="M96.5486 11.9996C96.1985 11.9996 95.8471 12.0713 95.5169 12.2164L89.1173 15.0316C86.8262 16.0397 84.395 16.5506 81.8917 16.5506C79.2665 16.5506 76.728 15.991 74.3465 14.8872L68.6279 12.2369C68.2849 12.078 67.9171 11.9992 67.5504 11.9992C67.069 11.9992 66.5895 12.1347 66.1708 12.4022C65.4338 12.8731 64.9876 13.6873 64.9876 14.5617V21.7861L39.4321 34.2443C37.4247 34.9099 22.0731 40.3754 17.572 53.1267C13.612 64.345 15.7139 76.1751 16.7536 80.591C13.2962 83.3806 5.40752 91.4233 4.67657 107.147C3.75215 109.204 0.983366 116.503 4.18585 124.215C7.05457 131.122 13.785 136.268 24.19 139.507C24.4427 139.586 24.6993 139.624 24.952 139.624C25.9572 139.624 26.9018 139.028 27.3121 138.059C30.7077 130.028 31.9861 119.489 32.2885 116.565L37.3116 110.075C38.0448 111.296 39.0179 112.721 40.2847 114.242C42.9251 117.412 44.0481 121.621 43.3662 125.788L40.5618 142.926C40.3398 144.282 41.2271 145.572 42.5731 145.85L67.0824 150.904C71.9175 151.901 76.8721 152.407 81.8088 152.407C86.6525 152.407 91.5158 151.92 96.2632 150.959L121.517 145.851C122.868 145.578 123.761 144.285 123.538 142.926L120.734 125.788C120.052 121.62 121.175 117.412 123.815 114.242C125.082 112.72 126.055 111.295 126.788 110.075L131.681 116.397C131.618 117.982 131.57 121.253 131.99 124.979C132.804 132.187 134.921 137.413 138.285 140.512C138.764 140.954 139.386 141.191 140.021 141.191C140.257 141.191 140.495 141.158 140.729 141.091C148.644 138.817 154.295 134.622 157.525 128.623C162.421 119.528 159.998 109.397 159.432 107.361C158.764 91.4941 150.819 83.3934 147.346 80.591C148.385 76.1751 150.487 64.3447 146.527 53.1267C142.026 40.3754 126.675 34.9102 124.667 34.2446L99.1111 21.7864V14.5621C99.1111 13.6963 98.6739 12.8891 97.949 12.416C97.5262 12.1402 97.0387 11.9996 96.5486 11.9996Z" fill="white"/>
<path d="M70.8441 19.351L74.8564 24.5789C75.6251 25.5808 76.218 26.7057 76.6098 27.9063L81.5861 43.1621C81.6428 43.3364 81.672 43.5183 81.672 43.7015C81.672 45.4001 79.4907 46.092 78.5102 44.7047C74.5441 39.0938 68.3954 28.7186 69.5757 19.6826C69.6567 19.0589 70.4607 18.8514 70.8441 19.351Z" fill="#012030"/>
<path d="M47.0657 35.1021L63.3552 27.0847C65.0817 26.2349 67.1484 27.2006 67.6048 29.07C68.2048 31.5265 69.2576 34.909 71.0357 38.3129C71.9444 40.0525 70.4646 42.0769 68.5334 41.7258L47.4552 37.8933C46.0481 37.6374 45.7822 35.7338 47.0657 35.1021Z" fill="#012030"/>
<path d="M54.5848 43.0526C54.5848 43.0526 42.657 37.0887 34.2699 40.8161C25.8829 44.5436 16.0054 50.8804 21.0375 79.7684C21.0375 79.7684 34.2699 69.8906 36.1338 62.6221C37.9977 55.3535 46.0116 43.6115 54.5848 43.0526Z" fill="#012030"/>
<path d="M77.7094 50.1478C79.204 51.03 80.1182 52.6357 80.1182 54.3711V69.3361C80.1182 72.1241 78.1809 74.4599 75.579 75.0701C74.0755 75.4227 72.5735 75.7811 71.1097 76.2725L55.1418 81.632C52.0627 81.632 49.1581 80.1941 47.3057 77.7344C45.3348 75.1168 41.9325 72.005 36.5823 71.2042C35.4589 71.036 34.909 69.75 35.5813 68.8342C37.3939 66.3643 40.1317 62.2214 40.9798 58.7082C42.2845 53.3032 52.5351 43.9847 59.6172 43.4254C64.8434 43.0125 73.5207 47.6756 77.7094 50.1478Z" fill="#012030"/>
<path d="M35.2885 77.9907V87.223C35.2885 87.223 31.0956 109.819 19.7972 118.392C18.154 119.639 15.7763 118.617 15.5377 116.568L14.2263 105.313C13.9262 102.736 14.2693 100.125 15.2248 97.7133L21.5967 81.632C21.5967 81.632 28.6788 76.9727 31.661 74.3634C33.6642 74.3634 35.2885 75.9874 35.2885 77.9907Z" fill="#012030"/>
<path d="M15.5601 88.7737C16.0797 88.3624 16.7889 88.9729 16.4666 89.552C14.9756 92.2321 12.7183 96.8837 12.3589 101.034C12.005 105.125 12.1117 110.905 12.2295 114.442C12.2545 115.193 11.2455 115.459 10.8974 114.792L9.16542 111.477C8.42742 110.065 8.06707 108.485 8.13274 106.893C8.31403 102.496 9.46556 93.6011 15.5601 88.7737Z" fill="#012030"/>
<path d="M35.9887 95.4794V98.2933C35.9887 99.506 35.7754 100.708 35.349 101.844C34.4358 104.277 32.5095 108.506 29.3467 111.332C29.0113 111.632 28.5052 111.248 28.7029 110.844C30.1939 107.797 33.3929 100.997 35.1316 95.3481C35.2802 94.8673 35.9887 94.9762 35.9887 95.4794Z" fill="#012030"/>
<path d="M80.1182 98.401V110.768C80.1182 111.702 79.3609 112.459 78.4272 112.459H67.3412C66.2496 112.459 65.2409 111.877 64.6948 110.932L63.4052 108.702C62.198 106.613 62.6945 103.959 64.575 102.448C67.4626 100.128 72.2292 97.1943 78.276 96.7161C79.2661 96.6376 80.1182 97.4073 80.1182 98.401Z" fill="#012030"/>
<path d="M78.0733 137.06H70.1933C68.1948 137.06 66.575 135.44 66.575 133.442V119.069C66.575 117.071 68.1952 115.451 70.1933 115.451H78.0736C79.203 115.451 80.1181 116.366 80.1181 117.495V135.016C80.1181 136.145 79.2027 137.06 78.0733 137.06Z" fill="#012030"/>
<path d="M50.5184 105.876L55.6165 111.666C57.7645 114.105 58.9493 117.244 58.9493 120.495V127.562C58.9493 128.117 58.2972 128.416 57.8763 128.054L53.4255 124.221C50.8579 122.01 49.3816 118.79 49.3816 115.402V106.305C49.3816 105.706 50.1228 105.426 50.5184 105.876Z" fill="#012030"/>
<path d="M51.3487 125.882L56.3987 130.561C58.0253 132.068 58.9497 134.185 58.9497 136.402V141.692C58.9497 142.752 57.6527 143.267 56.926 142.495L51.7282 136.972C50.2212 135.371 49.382 133.255 49.382 131.056V126.741C49.3816 125.719 50.5988 125.188 51.3487 125.882Z" fill="#012030"/>
<path d="M93.2548 19.351L89.2426 24.5789C88.4739 25.5808 87.881 26.7057 87.4892 27.9063L82.5128 43.1621C82.4562 43.3364 82.427 43.5183 82.427 43.7015C82.427 45.4001 84.6083 46.092 85.5888 44.7047C89.5549 39.0938 95.7036 28.7186 94.5233 19.6826C94.4422 19.0589 93.6383 18.8514 93.2548 19.351Z" fill="#012030"/>
<path d="M117.033 35.1021L100.744 27.0847C99.0172 26.2349 96.9506 27.2006 96.4941 29.07C95.8942 31.5265 94.8413 34.909 93.0633 38.3129C92.1546 40.0525 93.6344 42.0769 95.5656 41.7258L116.644 37.8933C118.051 37.6374 118.317 35.7338 117.033 35.1021Z" fill="#012030"/>
<path d="M109.514 43.0526C109.514 43.0526 121.442 37.0887 129.829 40.8161C138.216 44.5436 148.094 50.8804 143.062 79.7684C143.062 79.7684 129.829 69.8906 127.965 62.6221C126.101 55.3535 118.087 43.6115 109.514 43.0526Z" fill="#012030"/>
<path d="M86.3896 50.1478C84.895 51.03 83.9808 52.6357 83.9808 54.3711V69.3361C83.9808 72.1241 85.9181 74.4599 88.52 75.0701C90.0235 75.4227 91.5255 75.7811 92.9893 76.2725L108.957 81.632C112.036 81.632 114.941 80.1941 116.793 77.7344C118.764 75.1168 122.167 72.005 127.517 71.2042C128.64 71.036 129.19 69.75 128.518 68.8342C126.705 66.3643 123.967 62.2214 123.119 58.7082C121.815 53.3032 111.564 43.9847 104.482 43.4254C99.2556 43.0125 90.5783 47.6756 86.3896 50.1478Z" fill="#012030"/>
<path d="M128.81 77.9907V87.223C128.81 87.223 133.003 109.819 144.302 118.392C145.945 119.639 148.323 118.617 148.561 116.568L149.873 105.313C150.173 102.736 149.83 100.125 148.874 97.7133L142.502 81.632C142.502 81.632 135.42 76.9727 132.438 74.3634C130.435 74.3634 128.81 75.9874 128.81 77.9907Z" fill="#012030"/>
<path d="M148.539 88.7737C148.019 88.3624 147.31 88.9729 147.632 89.552C149.123 92.2321 151.38 96.8837 151.74 101.034C152.094 105.125 151.987 110.905 151.869 114.442C151.844 115.193 152.853 115.459 153.201 114.792L154.933 111.477C155.671 110.065 156.032 108.485 155.966 106.893C155.785 102.496 154.633 93.6011 148.539 88.7737Z" fill="#012030"/>
<path d="M128.11 95.4794V98.2933C128.11 99.506 128.324 100.708 128.75 101.844C129.663 104.277 131.59 108.506 134.752 111.332C135.088 111.632 135.594 111.248 135.396 110.844C133.905 107.797 130.706 100.997 128.967 95.3481C128.819 94.8673 128.11 94.9762 128.11 95.4794Z" fill="#012030"/>
<path d="M83.9808 98.401V110.768C83.9808 111.702 84.7381 112.459 85.6718 112.459H96.7578C97.8494 112.459 98.8581 111.877 99.4042 110.932L100.694 108.702C101.901 106.613 101.405 103.959 99.524 102.448C96.6364 100.128 91.8698 97.1943 85.823 96.7161C84.8329 96.6376 83.9808 97.4073 83.9808 98.401Z" fill="#012030"/>
<path d="M86.0257 137.06H93.906C95.9045 137.06 97.5243 135.44 97.5243 133.442V119.069C97.5243 117.071 95.9041 115.451 93.906 115.451H86.0257C84.8963 115.451 83.9811 116.366 83.9811 117.495V135.016C83.9808 136.145 84.8963 137.06 86.0257 137.06Z" fill="#012030"/>
<path d="M113.581 105.876L108.482 111.666C106.334 114.105 105.15 117.244 105.15 120.495V127.562C105.15 128.117 105.802 128.416 106.223 128.054L110.673 124.221C113.241 122.01 114.717 118.79 114.717 115.402V106.305C114.717 105.706 113.976 105.426 113.581 105.876Z" fill="#012030"/>
<path d="M112.75 125.882L107.7 130.561C106.074 132.068 105.149 134.185 105.149 136.402V141.692C105.149 142.752 106.446 143.267 107.173 142.495L112.371 136.972C113.878 135.371 114.717 133.255 114.717 131.056V126.741C114.717 125.719 113.5 125.188 112.75 125.882Z" fill="#012030"/>
<path d="M80.1934 80.1086V91.6779C80.1934 92.5565 79.5509 93.3221 78.6358 93.5338L71.9451 95.0816C68.494 95.8798 62.9939 98.4695 62.9939 98.4695C61.0807 100.444 51.4281 84.6025 58.9987 84.6025L78.1415 78.1963C79.2745 78.1963 80.1934 79.0525 80.1934 80.1086Z" fill="#012030"/>
<path d="M84.0561 80.1086V91.6779C84.0561 92.5565 84.6986 93.3221 85.6138 93.5338L92.3045 95.0816C95.7555 95.8798 101.256 98.4695 101.256 98.4695C103.169 100.444 113.185 84.6025 105.251 84.6025L86.108 78.1963C84.9747 78.1963 84.0561 79.0525 84.0561 80.1086Z" fill="#012030"/>
</svg>
