<svg width="61" height="60" viewBox="0 0 61 60" fill="none" xmlns="http://www.w3.org/2000/svg">
<path d="M35.8227 4.39007C35.6946 4.39007 35.5661 4.41632 35.4452 4.46941L33.104 5.49937C32.2657 5.86816 31.3763 6.05507 30.4604 6.05507C29.5 6.05507 28.5713 5.85034 27.7 5.44652L25.6078 4.47691C25.4823 4.41878 25.3478 4.38995 25.2136 4.38995C25.0375 4.38995 24.862 4.43952 24.7089 4.53738C24.4392 4.70964 24.276 5.00753 24.276 5.32745V7.9705L14.9264 12.5284C14.192 12.7719 8.57556 14.7715 6.92884 19.4366C5.48005 23.5409 6.24903 27.8689 6.62942 29.4845C5.3645 30.5051 2.47841 33.4475 2.21098 39.2003C1.87278 39.9526 0.859813 42.6232 2.03145 45.4444C3.08098 47.9716 5.54333 49.854 9.35005 51.0392C9.44251 51.0681 9.53638 51.0818 9.62884 51.0818C9.99657 51.0818 10.3422 50.8641 10.4923 50.5092C11.7346 47.5712 12.2023 43.7155 12.3129 42.6457L14.1506 40.2714C14.4189 40.7181 14.7749 41.2393 15.2384 41.7958C16.2043 42.9558 16.6152 44.4954 16.3657 46.02L15.3397 52.29C15.2585 52.7862 15.5831 53.258 16.0756 53.3596L25.0424 55.2088C26.8113 55.5736 28.624 55.7585 30.4301 55.7585C32.2022 55.7585 33.9815 55.5804 35.7183 55.2291L44.9576 53.3601C45.4516 53.2602 45.7784 52.7873 45.6969 52.2899L44.6709 46.0199C44.4215 44.4951 44.8323 42.9555 45.7983 41.7957C46.2618 41.2391 46.6178 40.7178 46.886 40.2712L48.6762 42.5843C48.653 43.1641 48.6353 44.3608 48.7891 45.7239C49.0868 48.3612 49.8615 50.2732 51.092 51.407C51.2674 51.5686 51.495 51.6551 51.7273 51.6551C51.8138 51.6551 51.9008 51.6431 51.9861 51.6186C54.8821 50.7866 56.9495 49.2519 58.131 47.0573C59.9224 43.7297 59.036 40.0233 58.829 39.2783C58.5844 33.4734 55.6777 30.5098 54.407 29.4845C54.7874 27.8689 55.5564 23.5407 54.1076 19.4366C52.4607 14.7715 46.8444 12.772 46.11 12.5285L36.7602 7.97062V5.32757C36.7602 5.01081 36.6002 4.7155 36.335 4.54241C36.1804 4.44152 36.002 4.39007 35.8227 4.39007Z" fill="#484F69"/>
<path d="M26.4186 7.07965L27.8865 8.99226C28.1677 9.35883 28.3846 9.77039 28.528 10.2096L30.3486 15.791C30.3693 15.8548 30.38 15.9213 30.38 15.9884C30.38 16.6098 29.5819 16.8629 29.2232 16.3554C27.7722 14.3026 25.5227 10.5068 25.9545 7.20094C25.9842 6.97277 26.2783 6.89683 26.4186 7.07965Z" fill="#9FABCE"/>
<path d="M17.7191 12.8422L23.6787 9.90901C24.3103 9.59811 25.0664 9.95143 25.2334 10.6353C25.4529 11.5341 25.8381 12.7716 26.4886 14.0169C26.8211 14.6533 26.2797 15.394 25.5731 15.2655L17.8616 13.8634C17.3468 13.7698 17.2495 13.0733 17.7191 12.8422Z" fill="#9FABCE"/>
<path d="M20.47 15.7509C20.47 15.7509 16.1062 13.569 13.0377 14.9327C9.9693 16.2964 6.35559 18.6147 8.1966 29.1835C8.1966 29.1835 13.0377 25.5697 13.7196 22.9105C14.4016 20.2513 17.3335 15.9554 20.47 15.7509Z" fill="#9FABCE"/>
<path d="M28.9304 18.3467C29.4772 18.6695 29.8117 19.2569 29.8117 19.8919V25.3669C29.8117 26.3869 29.1029 27.2414 28.151 27.4646C27.6009 27.5937 27.0514 27.7248 26.5159 27.9046L20.674 29.8653C19.5475 29.8653 18.4848 29.3393 17.8071 28.4394C17.0861 27.4817 15.8413 26.3433 13.8839 26.0503C13.4729 25.9888 13.2717 25.5183 13.5177 25.1832C14.1809 24.2796 15.1825 22.7639 15.4928 21.4786C15.9701 19.5012 19.7203 16.0919 22.3113 15.8873C24.2234 15.7363 27.398 17.4423 28.9304 18.3467Z" fill="#9FABCE"/>
<path d="M13.4105 28.5331V31.9108C13.4105 31.9108 11.8765 40.1777 7.74296 43.3141C7.14179 43.7702 6.2719 43.3964 6.1846 42.6469L5.70483 38.5292C5.59503 37.5865 5.72054 36.6312 6.07011 35.7487L8.40132 29.8653C8.40132 29.8653 10.9923 28.1607 12.0833 27.2061C12.8162 27.2061 13.4105 27.8003 13.4105 28.5331Z" fill="#FF004F"/>
<path d="M6.19279 32.4781C6.38286 32.3277 6.64232 32.551 6.52443 32.7629C5.97892 33.7434 5.1531 35.4452 5.02161 36.9637C4.89212 38.4602 4.93114 40.5749 4.97427 41.8688C4.98341 42.1438 4.61427 42.241 4.48689 41.9972L3.85325 40.7843C3.58325 40.2675 3.45142 39.6896 3.47544 39.1071C3.54177 37.4986 3.96306 34.2443 6.19279 32.4781Z" fill="#FF004F"/>
<path d="M13.6667 34.9315V35.961C13.6667 36.4046 13.5886 36.8446 13.4326 37.26C13.0985 38.15 12.3938 39.6971 11.2367 40.7312C11.114 40.8409 10.9288 40.7006 11.0011 40.5527C11.5466 39.4379 12.717 36.95 13.3531 34.8834C13.4074 34.7075 13.6667 34.7474 13.6667 34.9315Z" fill="#FF004F"/>
<path d="M29.8115 36.0003V40.5248C29.8115 40.8665 29.5345 41.1434 29.1929 41.1434H25.137C24.7376 41.1434 24.3686 40.9305 24.1688 40.5848L23.697 39.7688C23.2553 39.0049 23.437 38.0338 24.125 37.4811C25.1814 36.6322 26.9253 35.5589 29.1375 35.3839C29.4998 35.3552 29.8115 35.6368 29.8115 36.0003Z" fill="#9FABCE"/>
<path d="M29.0634 50.144H26.1804C25.4493 50.144 24.8567 49.5513 24.8567 48.8203V43.5618C24.8567 42.8307 25.4494 42.2381 26.1804 42.2381H29.0635C29.4767 42.2381 29.8115 42.573 29.8115 42.9861V49.3959C29.8115 49.8091 29.4766 50.144 29.0634 50.144Z" fill="#9FABCE"/>
<path d="M18.9823 38.735L20.8475 40.8533C21.6333 41.7458 22.0668 42.8941 22.0668 44.0833V46.6688C22.0668 46.872 21.8282 46.9815 21.6742 46.8488L20.0459 45.4467C19.1065 44.6379 18.5664 43.4598 18.5664 42.2202V38.892C18.5664 38.673 18.8376 38.5706 18.9823 38.735Z" fill="#9FABCE"/>
<path d="M19.2862 46.0544L21.1338 47.7662C21.7288 48.3174 22.067 49.0919 22.067 49.903V51.8385C22.067 52.2265 21.5925 52.4147 21.3267 52.1321L19.425 50.1117C18.8737 49.5259 18.5667 48.7517 18.5667 47.9472V46.3687C18.5665 45.9949 19.0118 45.8004 19.2862 46.0544Z" fill="#9FABCE"/>
<path d="M34.6177 7.07965L33.1498 8.99226C32.8685 9.35883 32.6516 9.77039 32.5083 10.2096L30.6877 15.791C30.6669 15.8548 30.6562 15.9213 30.6562 15.9884C30.6562 16.6098 31.4543 16.8629 31.813 16.3554C33.264 14.3026 35.5136 10.5068 35.0817 7.20094C35.0521 6.97277 34.7579 6.89683 34.6177 7.07965Z" fill="#9FABCE"/>
<path d="M43.3172 12.8422L37.3576 9.90901C36.726 9.59811 35.9699 9.95143 35.8029 10.6353C35.5834 11.5341 35.1982 12.7716 34.5477 14.0169C34.2152 14.6533 34.7566 15.394 35.4631 15.2655L43.1747 13.8634C43.6895 13.7698 43.7867 13.0733 43.3172 12.8422Z" fill="#9FABCE"/>
<path d="M40.5662 15.7509C40.5662 15.7509 44.93 13.569 47.9984 14.9327C51.0667 16.2964 54.6806 18.6147 52.8396 29.1835C52.8396 29.1835 47.9984 25.5697 47.3165 22.9105C46.6346 20.2513 43.7027 15.9554 40.5662 15.7509Z" fill="#9FABCE"/>
<path d="M32.1061 18.3467C31.5593 18.6695 31.2249 19.2569 31.2249 19.8919V25.3669C31.2249 26.3869 31.9336 27.2414 32.8855 27.4646C33.4356 27.5937 33.9851 27.7248 34.5206 27.9046L40.3625 29.8653C41.4891 29.8653 42.5517 29.3393 43.2294 28.4394C43.9505 27.4817 45.1952 26.3433 47.1526 26.0503C47.5636 25.9888 47.7648 25.5183 47.5188 25.1832C46.8557 24.2796 45.8541 22.7639 45.5438 21.4786C45.0665 19.5012 41.3162 16.0919 38.7252 15.8873C36.8132 15.7363 33.6386 17.4423 32.1061 18.3467Z" fill="#9FABCE"/>
<path d="M47.6257 28.5331V31.9108C47.6257 31.9108 49.1597 40.1777 53.2933 43.3141C53.8944 43.7702 54.7643 43.3964 54.8516 42.6469L55.3314 38.5292C55.4412 37.5865 55.3157 36.6312 54.9661 35.7487L52.6349 29.8653C52.6349 29.8653 50.0439 28.1607 48.9529 27.2061C48.22 27.2061 47.6257 27.8003 47.6257 28.5331Z" fill="#FF004F"/>
<path d="M54.8434 32.4781C54.6534 32.3277 54.3939 32.551 54.5118 32.7629C55.0573 33.7434 55.8831 35.4452 56.0146 36.9637C56.1441 38.4602 56.1051 40.5749 56.062 41.8688C56.0528 42.1438 56.4221 42.241 56.5493 41.9972L57.183 40.7843C57.453 40.2675 57.5848 39.6896 57.5608 39.1071C57.4946 37.4986 57.0733 34.2443 54.8434 32.4781Z" fill="#FF004F"/>
<path d="M47.3696 34.9315V35.961C47.3696 36.4046 47.4477 36.8446 47.6036 37.26C47.9378 38.15 48.6425 39.6971 49.7996 40.7312C49.9223 40.8409 50.1075 40.7006 50.0352 40.5527C49.4897 39.4379 48.3193 36.95 47.6832 34.8834C47.6288 34.7075 47.3696 34.7474 47.3696 34.9315Z" fill="#FF004F"/>
<path d="M31.2249 36.0003V40.5248C31.2249 40.8665 31.5019 41.1434 31.8435 41.1434H35.8993C36.2987 41.1434 36.6677 40.9305 36.8675 40.5848L37.3393 39.7688C37.781 39.0049 37.5994 38.0338 36.9114 37.4811C35.8549 36.6322 34.1111 35.5589 31.8988 35.3839C31.5366 35.3552 31.2249 35.6368 31.2249 36.0003Z" fill="#9FABCE"/>
<path d="M31.9729 50.144H34.8559C35.587 50.144 36.1797 49.5513 36.1797 48.8203V43.5618C36.1797 42.8307 35.5869 42.2381 34.8559 42.2381H31.9729C31.5597 42.2381 31.2249 42.573 31.2249 42.9861V49.3959C31.2247 49.8091 31.5597 50.144 31.9729 50.144Z" fill="#9FABCE"/>
<path d="M42.054 38.735L40.1888 40.8533C39.403 41.7458 38.9695 42.8941 38.9695 44.0833V46.6688C38.9695 46.872 39.2081 46.9815 39.3621 46.8488L40.9904 45.4467C41.9298 44.6379 42.4699 43.4598 42.4699 42.2202V38.892C42.4699 38.673 42.1987 38.5706 42.054 38.735Z" fill="#9FABCE"/>
<path d="M41.7501 46.0544L39.9025 47.7662C39.3074 48.3174 38.9692 49.0919 38.9692 49.903V51.8385C38.9692 52.2265 39.4437 52.4147 39.7096 52.1321L41.6112 50.1117C42.1626 49.5259 42.4696 48.7517 42.4696 47.9472V46.3687C42.4697 45.9949 42.0243 45.8004 41.7501 46.0544Z" fill="#9FABCE"/>
<path d="M29.8391 29.308V33.5407C29.8391 33.8621 29.604 34.1422 29.2692 34.2197L26.8214 34.7859C25.5588 35.078 23.5466 36.0254 23.5466 36.0254C22.8467 36.7477 19.3152 30.9521 22.0849 30.9521L29.0884 28.6084C29.5029 28.6084 29.8391 28.9216 29.8391 29.308Z" fill="#9FABCE"/>
<path d="M31.2522 29.308V33.5407C31.2522 33.8621 31.4873 34.1422 31.8221 34.2197L34.2699 34.7859C35.5325 35.078 37.5447 36.0254 37.5447 36.0254C38.2447 36.7477 41.9092 30.9521 39.0064 30.9521L32.0029 28.6084C31.5883 28.6084 31.2522 28.9216 31.2522 29.308Z" fill="#9FABCE"/>
</svg>
