<svg viewBox="0 0 60 60" fill="none" xmlns="http://www.w3.org/2000/svg">
<path d="M44.1186 1.15173H44.118H15.6112C15.3602 1.15173 15.1196 1.2524 14.9435 1.43123C14.7672 1.61005 14.6702 1.85205 14.6738 2.10294L14.8416 13.5893C14.5125 14.2111 13.5883 16.0532 12.6457 18.8099C11.5876 21.9042 10.3074 26.7894 10.2169 32.4906C10.0967 40.0651 11.6125 48.3111 12.5182 53.2379C12.9049 55.3418 13.2104 57.0035 13.2104 57.627C13.2104 58.1434 13.628 58.5626 14.1445 58.5645L24.6389 58.6023H24.6423C24.9758 58.6023 25.2842 58.4251 25.4521 58.137C27.1435 55.2353 28.4804 51.0196 29.4257 45.607C29.5902 44.6659 29.7357 43.7295 29.8647 42.8059C29.9936 43.7294 30.1393 44.6658 30.3037 45.607C31.2491 51.0196 32.5859 55.2353 34.2773 58.137C34.4453 58.4251 34.7538 58.6023 35.0872 58.6023H35.0906L45.585 58.5645C46.1014 58.5626 46.5191 58.1434 46.5191 57.627C46.5191 57.0037 46.8246 55.3418 47.2113 53.2379C47.6614 50.7893 48.2778 47.436 48.7519 43.8338C49.3167 39.5431 49.5655 35.8327 49.5125 32.4906C49.422 26.7894 48.1418 21.9042 47.0838 18.8099C46.1411 16.0532 45.217 14.2111 44.8878 13.5893L45.0553 2.12708C45.0557 2.11455 45.056 2.10201 45.056 2.08923C45.0559 1.57138 44.6363 1.15173 44.1186 1.15173Z" fill="#484F69"/>
<path d="M28.5633 2.08923H25.7985C25.0294 2.08923 24.406 2.71267 24.406 3.48177V5.94939C24.406 9.72646 25.3137 13.4483 27.0527 16.8013L28.0353 18.696C28.3221 19.2489 29.1581 19.045 29.1581 18.4221V2.68396C29.1581 2.35548 28.8918 2.08923 28.5633 2.08923Z" fill="#9FABCE"/>
<path d="M19.3555 2.6967L19.568 2.92369C21.6531 5.15178 22.8548 8.06342 22.9483 11.1136L22.9847 12.3036C23.0005 12.8212 22.3568 13.071 22.0195 12.6781L18.362 8.4199C17.4305 7.33533 16.9705 5.92381 17.0841 4.49869L17.1667 3.46205C17.2543 2.36447 18.6033 1.89279 19.3555 2.6967Z" fill="#9FABCE"/>
<path d="M23.8596 18.9217L27.4172 23.978C27.9201 24.6929 28.1608 25.5595 28.0985 26.4312L27.2027 38.9721C27.189 39.1638 26.9204 39.1948 26.8635 39.0113L24.2032 30.4427L23.1295 19.1916C23.0901 18.7804 23.6218 18.5839 23.8596 18.9217Z" fill="#FF004F"/>
<path d="M13.0987 26.6382C13.1964 26.2879 13.7157 26.3783 13.6873 26.7409C13.4165 30.1966 13.1585 36.983 14.7432 41.5907C15.5983 44.0772 16.1844 45.5125 16.5817 46.338C17.0608 47.3335 17.2414 48.4456 17.1082 49.5425L16.9542 50.8116C16.8524 51.6508 15.7709 51.9152 15.287 51.222C13.9675 49.3319 12.1855 45.5388 12.0296 38.7242C11.8854 32.4324 12.5277 28.6853 13.0987 26.6382Z" fill="#FF004F"/>
<path d="M24.3163 34.6334L24.769 36.0185C26.0293 39.8748 26.4691 43.952 26.0603 47.9884L25.6525 52.0135C25.4468 54.0434 23.413 55.3599 21.4768 54.7163C19.9859 54.2207 19.0786 52.7125 19.3395 51.163L19.4804 50.3257C19.7419 48.773 20.3583 47.2946 21.3215 46.0491C22.362 44.7035 23.6722 41.6392 23.8113 34.7078C23.8172 34.4167 24.2258 34.3567 24.3163 34.6334Z" fill="#FF004F"/>
<path d="M31.166 2.08923H33.9308C34.6999 2.08923 35.3234 2.71267 35.3234 3.48177V5.94939C35.3234 9.72646 34.4156 13.4483 32.6767 16.8013L31.6941 18.696C31.4073 19.2489 30.5713 19.045 30.5713 18.4221V2.68396C30.5712 2.35548 30.8375 2.08923 31.166 2.08923Z" fill="#9FABCE"/>
<path d="M40.3736 2.6967L40.1611 2.92369C38.076 5.15178 36.8744 8.06342 36.7809 11.1136L36.7444 12.3036C36.7286 12.8212 37.3723 13.071 37.7097 12.6781L41.3672 8.4199C42.2988 7.33533 42.7587 5.92381 42.6452 4.49869L42.5626 3.46205C42.475 2.36447 41.1259 1.89279 40.3736 2.6967Z" fill="#9FABCE"/>
<path d="M35.8697 18.9217L32.3121 23.978C31.8091 24.6929 31.5684 25.5595 31.6308 26.4312L32.5265 38.9721C32.5403 39.1638 32.8088 39.1948 32.8658 39.0113L35.5261 30.4427L36.5997 19.1916C36.639 18.7804 36.1073 18.5839 35.8697 18.9217Z" fill="#FF004F"/>
<path d="M47.2994 26.8309C47.2163 26.4769 46.6937 26.5457 46.707 26.9091C46.8347 30.373 46.8117 37.1644 45.0378 41.7026C44.0806 44.1516 43.4355 45.5614 43.0044 46.3697C42.4845 47.3446 42.2581 48.4482 42.3458 49.5496L42.4472 50.824C42.5142 51.6667 43.5839 51.9756 44.096 51.303C45.4925 49.4691 47.4299 45.7529 47.8677 38.9507C48.2719 32.6704 47.7852 28.8998 47.2994 26.8309Z" fill="#FF004F"/>
<path d="M35.4129 34.6334L34.9602 36.0185C33.6998 39.8748 33.26 43.952 33.6689 47.9884L34.0767 52.0135C34.2824 54.0434 36.3161 55.3599 38.2523 54.7163C39.7433 54.2207 40.6506 52.7125 40.3897 51.163L40.2487 50.3257C39.9873 48.773 39.3709 47.2946 38.4077 46.0491C37.3672 44.7035 36.0569 41.6392 35.9178 34.7078C35.912 34.4167 35.5032 34.3567 35.4129 34.6334Z" fill="#FF004F"/>
<path d="M17.4904 8.29727L19.0029 10.5009C19.3234 10.9677 19.376 11.5679 19.141 12.083C18.0527 14.4685 14.9255 21.4274 13.7432 25.1836C13.6465 25.4907 13.1958 25.4434 13.1683 25.1228C13.0841 24.1423 13.1902 22.5217 14.0836 20.1739C15.2547 17.0963 16.2934 14.3736 16.778 13.1042C16.9694 12.603 17.0671 12.0716 17.0671 11.5352V8.42851C17.0672 8.2007 17.3614 8.10941 17.4904 8.29727Z" fill="#FF004F"/>
<path d="M42.5612 8.29727L41.0486 10.5009C40.7281 10.9677 40.6755 11.5679 40.9106 12.083C41.9989 14.4685 45.126 21.4274 46.3084 25.1836C46.405 25.4907 46.8557 25.4434 46.8833 25.1228C46.9674 24.1423 46.8614 22.5217 45.9679 20.1739C44.7969 17.0963 43.7581 14.3736 43.2735 13.1042C43.0822 12.603 42.9844 12.0716 42.9844 11.5352V8.42851C42.9843 8.2007 42.6901 8.10941 42.5612 8.29727Z" fill="#FF004F"/>
<path d="M38.7826 43.7422L38.6644 43.3602C36.6989 37.0107 36.4452 30.1998 37.9324 23.7039L39.5936 16.4483C39.808 15.5117 41.0188 15.4136 41.3639 16.3045C42.7233 19.8133 44.8735 25.8911 45.0829 29.7188C45.5604 38.4487 44.0311 38.7129 42.9191 43.5682C42.4056 45.8098 39.4609 45.9334 38.7826 43.7422Z" fill="#FF004F"/>
<path d="M21.0741 43.7422L21.1924 43.3602C23.158 37.0107 23.4116 30.1998 21.9243 23.7039L20.2632 16.4483C20.0488 15.5117 18.838 15.4136 18.4929 16.3045C17.1335 19.8133 14.9833 25.8911 14.7739 29.7188C14.2964 38.4487 15.8257 38.7129 16.9377 43.5682C17.4512 45.8098 20.3959 45.9334 21.0741 43.7422Z" fill="#FF004F"/>
</svg>
