<svg viewBox="0 0 60 60" fill="none" xmlns="http://www.w3.org/2000/svg">
<path d="M45.1044 0.540522C45.0541 0.540522 45.0038 0.544507 44.9539 0.55271L35.9776 2.01216C33.9627 2.33982 31.906 2.50587 29.8647 2.50587C27.8234 2.50587 25.7668 2.3397 23.7519 2.01216L14.7754 0.552593C14.7255 0.544507 14.6752 0.540405 14.625 0.540405C14.5299 0.540405 14.4352 0.554819 14.3439 0.58353C14.0858 0.664624 8.00106 2.62611 6.27536 7.5147C4.82657 11.6188 5.59555 15.947 5.97594 17.5626C4.69672 18.5948 1.75954 21.592 1.54942 27.4741C1.54344 27.6425 1.58293 27.8093 1.66368 27.9571L7.83313 39.2453C7.99532 39.542 8.30469 39.7284 8.64266 39.7332C8.647 39.7333 8.65145 39.7333 8.65579 39.7333C8.98883 39.7333 9.29739 39.5565 9.46555 39.2682C11.7532 35.3465 11.7845 31.8245 11.7168 30.6496L13.4969 28.3496C13.7653 28.7963 14.1212 29.3176 14.5847 29.8741C15.5506 31.0339 15.9615 32.5736 15.712 34.0982L14.686 40.3683C14.6769 40.424 14.6729 40.4804 14.6738 40.5366L14.8453 50.0195C14.8484 50.1943 14.9004 50.3645 14.9952 50.5113C15.0522 50.5996 16.4209 52.6987 18.8897 54.8116C20.3466 56.0586 21.8891 57.0541 23.474 57.7702C25.4763 58.6749 27.5495 59.1337 29.6361 59.1337C31.7197 59.1337 33.8143 58.6762 35.8617 57.7738C37.481 57.0602 39.0733 56.0682 40.5947 54.8254C43.1727 52.7194 44.6524 50.629 44.714 50.541C44.8214 50.388 44.8806 50.2063 44.884 50.0194L45.0554 40.5365C45.0565 40.4801 45.0523 40.4238 45.0432 40.3682L44.0172 34.0981C43.7677 32.5734 44.1786 31.0338 45.1446 29.874C45.6081 29.3173 45.9641 28.7961 46.2323 28.3495L48.0124 30.6495C47.9448 31.8244 47.9761 35.3465 50.2637 39.2681C50.4318 39.5563 50.7404 39.7332 51.0734 39.7332C51.0778 39.7332 51.0821 39.7332 51.0866 39.7331C51.4247 39.7284 51.734 39.5419 51.8961 39.2452L58.0656 27.957C58.1463 27.8092 58.1858 27.6424 58.1798 27.474C57.9697 21.5919 55.0325 18.5947 53.7533 17.5625C54.1337 15.9469 54.9027 11.6187 53.4539 7.51459C51.7283 2.62623 45.6436 0.664741 45.3854 0.58353C45.2942 0.554937 45.1994 0.540522 45.1044 0.540522Z" fill="#484F69"/>
<path d="M19.8167 3.82909C19.8167 3.82909 15.4529 1.64718 12.3844 3.01089C9.31598 4.3746 5.70227 6.6928 7.54328 17.2616C7.54328 17.2616 12.3844 13.6478 13.0663 10.9885C13.7482 8.32933 16.6802 4.03358 19.8167 3.82909Z" fill="#9FABCE"/>
<path d="M28.2769 6.42487C28.8237 6.74761 29.1581 7.33507 29.1581 7.96999V13.445C29.1581 14.465 28.4494 15.3195 27.4975 15.5428C26.9474 15.6718 26.3979 15.8029 25.8623 15.9827L20.0204 17.9435C18.8939 17.9435 17.8312 17.4174 17.1535 16.5175C16.4325 15.5599 15.1877 14.4214 13.2303 14.1284C12.8194 14.0669 12.6182 13.5964 12.8641 13.2614C13.5273 12.3577 14.5289 10.842 14.8392 9.55671C15.3165 7.57929 19.0667 4.17007 21.6578 3.96546C23.5697 3.8144 26.7444 5.52042 28.2769 6.42487Z" fill="#9FABCE"/>
<path d="M12.7569 16.6112V19.9889C12.7569 19.9889 11.2229 28.2558 7.08939 31.3922C6.48822 31.8483 5.61834 31.4745 5.53103 30.7249L5.05127 26.6073C4.94146 25.6645 5.06697 24.7092 5.41654 23.8268L7.74775 17.9434C7.74775 17.9434 10.3388 16.2388 11.4298 15.2842C12.1628 15.2842 12.7569 15.8783 12.7569 16.6112Z" fill="#9FABCE"/>
<path d="M5.53946 20.5563C5.72954 20.4057 5.989 20.6292 5.87111 20.8411C5.3256 21.8216 4.49978 23.5234 4.36829 25.0419C4.2388 26.5384 4.27782 28.653 4.32095 29.947C4.33009 30.2219 3.96095 30.3192 3.83357 30.0753L3.19993 28.8624C2.92993 28.3457 2.7981 27.7678 2.82212 27.1853C2.88833 25.5767 3.30974 22.3224 5.53946 20.5563Z" fill="#9FABCE"/>
<path d="M13.0133 23.0096V24.039C13.0133 24.4827 12.9353 24.9226 12.7793 25.3379C12.4452 26.228 11.7405 27.7751 10.5833 28.8092C10.4607 28.9188 10.2755 28.7786 10.3478 28.6307C10.8933 27.5159 12.0637 25.028 12.6998 22.9614C12.754 22.7856 13.0133 22.8254 13.0133 23.0096Z" fill="#9FABCE"/>
<path d="M29.1582 24.0785V28.603C29.1582 28.9447 28.8811 29.2216 28.5395 29.2216H24.4837C24.0843 29.2216 23.7153 29.0087 23.5155 28.663L23.0437 27.847C22.602 27.0831 22.7836 26.1119 23.4716 25.5593C24.5281 24.7104 26.272 23.6371 28.4842 23.4621C28.8466 23.4334 29.1582 23.715 29.1582 24.0785Z" fill="#FF4858"/>
<path d="M28.4102 38.2221H25.5271C24.796 38.2221 24.2034 37.6294 24.2034 36.8983V31.6399C24.2034 30.9088 24.7961 30.3162 25.5271 30.3162H28.4102C28.8234 30.3162 29.1582 30.6511 29.1582 31.0642V37.474C29.1582 37.8872 28.8233 38.2221 28.4102 38.2221Z" fill="#FF4858"/>
<path d="M28.5633 39.0736H25.7985C25.0294 39.0736 24.406 39.697 24.406 40.4661V42.9338C24.406 46.7108 25.3137 50.4327 27.0527 53.7857L28.0353 55.6804C28.3221 56.2333 29.1581 56.0293 29.1581 55.4065V39.6683C29.1581 39.3399 28.8918 39.0736 28.5633 39.0736Z" fill="#FF4858"/>
<path d="M18.329 26.8131L20.1941 28.9314C20.98 29.8239 21.4135 30.9722 21.4135 32.1614V34.747C21.4135 34.9502 21.1749 35.0596 21.0209 34.927L19.3926 33.5248C18.4532 32.716 17.9131 31.5379 17.9131 30.2983V26.9702C17.9131 26.7511 18.1843 26.6487 18.329 26.8131Z" fill="#FF4858"/>
<path d="M18.6329 34.1326L20.4804 35.8443C21.0755 36.3956 21.4137 37.1701 21.4137 37.9811V39.9166C21.4137 40.3046 20.9392 40.4928 20.6733 40.2102L18.7717 38.1898C18.2204 37.604 17.9133 36.8299 17.9133 36.0254V34.447C17.9132 34.073 18.3586 33.8785 18.6329 34.1326Z" fill="#FF4858"/>
<path d="M18.09 38.9144L19.5683 40.4941C21.6534 42.7222 22.855 45.6339 22.9485 48.684L22.985 49.8741C23.0008 50.3917 22.3571 50.6414 22.0197 50.2486L18.3623 45.9903C17.4308 44.9058 16.9708 43.4942 17.0843 42.0691L17.3143 39.1857C17.3452 38.7967 17.8233 38.6294 18.09 38.9144Z" fill="#FF4858"/>
<path d="M39.9128 3.82909C39.9128 3.82909 44.2767 1.64718 47.3451 3.01089C50.4134 4.3746 54.0273 6.69292 52.1862 17.2617C52.1862 17.2617 47.3451 13.6479 46.6632 10.9887C45.9813 8.32944 43.0494 4.03358 39.9128 3.82909Z" fill="#9FABCE"/>
<path d="M31.4525 6.42487C30.9057 6.74761 30.5713 7.33507 30.5713 7.96999V13.445C30.5713 14.465 31.28 15.3195 32.232 15.5428C32.782 15.6718 33.3315 15.8029 33.8671 15.9827L39.709 17.9435C40.8355 17.9435 41.8982 17.4174 42.5759 16.5175C43.2969 15.5599 44.5417 14.4214 46.4991 14.1284C46.91 14.0669 47.1112 13.5964 46.8653 13.2614C46.2021 12.3577 45.2005 10.842 44.8902 9.55671C44.4129 7.57929 40.6627 4.17007 38.0716 3.96546C36.1596 3.8144 32.985 5.52042 31.4525 6.42487Z" fill="#9FABCE"/>
<path d="M46.9724 16.6112V19.9889C46.9724 19.9889 48.5064 28.2558 52.64 31.3922C53.2411 31.8483 54.111 31.4745 54.1983 30.7249L54.6781 26.6073C54.7879 25.6645 54.6624 24.7092 54.3128 23.8268L51.9817 17.9434C51.9817 17.9434 49.3907 16.2388 48.2997 15.2842C47.5666 15.2842 46.9724 15.8783 46.9724 16.6112Z" fill="#9FABCE"/>
<path d="M54.1901 20.5563C54 20.4057 53.7406 20.6292 53.8585 20.8411C54.404 21.8216 55.2298 23.5234 55.3613 25.0419C55.4908 26.5384 55.4518 28.653 55.4086 29.947C55.3995 30.2219 55.7687 30.3192 55.896 30.0753L56.5296 28.8624C56.7996 28.3457 56.9315 27.7678 56.9075 27.1853C56.8411 25.5767 56.4198 22.3224 54.1901 20.5563Z" fill="#9FABCE"/>
<path d="M46.7161 23.0096V24.039C46.7161 24.4827 46.7941 24.9226 46.9501 25.3379C47.2842 26.228 47.989 27.7751 49.1461 28.8092C49.2688 28.9188 49.4539 28.7786 49.3816 28.6307C48.8361 27.5159 47.6658 25.028 47.0297 22.9614C46.9753 22.7856 46.7161 22.8254 46.7161 23.0096Z" fill="#9FABCE"/>
<path d="M30.5713 24.0785V28.603C30.5713 28.9447 30.8483 29.2216 31.1899 29.2216H35.2458C35.6452 29.2216 36.0142 29.0087 36.214 28.663L36.6858 27.847C37.1275 27.0831 36.9458 26.1119 36.2578 25.5593C35.2014 24.7104 33.4575 23.6371 31.2452 23.4621C30.8829 23.4334 30.5713 23.715 30.5713 24.0785Z" fill="#FF4858"/>
<path d="M31.3193 38.2222H34.2023C34.9335 38.2222 35.5261 37.6295 35.5261 36.8985V31.64C35.5261 30.9089 34.9334 30.3163 34.2023 30.3163H31.3193C30.9061 30.3163 30.5713 30.6512 30.5713 31.0643V37.4741C30.5713 37.8873 30.9061 38.2222 31.3193 38.2222Z" fill="#FF4858"/>
<path d="M31.166 39.0736H33.9308C34.6999 39.0736 35.3234 39.697 35.3234 40.4661V42.9338C35.3234 46.7108 34.4156 50.4327 32.6767 53.7857L31.6941 55.6804C31.4073 56.2333 30.5713 56.0293 30.5713 55.4065V39.6683C30.5713 39.3399 30.8375 39.0736 31.166 39.0736Z" fill="#FF4858"/>
<path d="M41.4004 26.8131L39.5353 28.9314C38.7494 29.8239 38.3159 30.9722 38.3159 32.1614V34.747C38.3159 34.9502 38.5545 35.0596 38.7085 34.927L40.3368 33.5248C41.2762 32.716 41.8163 31.5379 41.8163 30.2983V26.9702C41.8163 26.7511 41.5451 26.6487 41.4004 26.8131Z" fill="#FF4858"/>
<path d="M41.0968 34.1326L39.2492 35.8443C38.6541 36.3956 38.3159 37.1701 38.3159 37.9811V39.9166C38.3159 40.3046 38.7904 40.4928 39.0563 40.2102L40.9579 38.1898C41.5093 37.604 41.8163 36.8299 41.8163 36.0254V34.447C41.8164 34.073 41.3711 33.8785 41.0968 34.1326Z" fill="#FF4858"/>
<path d="M41.6396 38.9146L40.1614 40.4942C38.0763 42.7223 36.8746 45.634 36.7811 48.6841L36.7447 49.8742C36.7289 50.3918 37.3726 50.6415 37.7099 50.2487L41.3674 45.9905C42.2989 44.9059 42.7589 43.4944 42.6453 42.0692L42.4154 39.1859C42.3843 38.7968 41.9062 38.6296 41.6396 38.9146Z" fill="#FF4858"/>
<path d="M29.1292 17.4188V21.6515C29.1292 21.973 28.8941 22.2531 28.5593 22.3305L26.1115 22.8968C24.8489 23.1888 22.8367 24.1363 22.8367 24.1363C22.1367 24.8585 18.6052 19.063 21.375 19.063L28.3784 16.7192C28.7929 16.7192 29.1292 17.0325 29.1292 17.4188Z" fill="#FF4858"/>
<path d="M30.5425 17.4188V21.6515C30.5425 21.973 30.7776 22.2531 31.1124 22.3305L33.5602 22.8968C34.8228 23.1888 36.835 24.1363 36.835 24.1363C37.5349 24.8585 41.1995 19.063 38.2967 19.063L31.2932 16.7192C30.8787 16.7192 30.5425 17.0325 30.5425 17.4188Z" fill="#FF4858"/>
</svg>
