<svg width="60" height="60" viewBox="0 0 60 60" fill="none" xmlns="http://www.w3.org/2000/svg">
<path d="M35.305 4.39008C35.1769 4.39008 35.0483 4.41633 34.9275 4.46941L32.5861 5.49937C31.7479 5.86816 30.8584 6.05519 29.9427 6.05519C28.9824 6.05519 28.0535 5.85047 27.1821 5.44664L25.09 4.47703C24.9645 4.4189 24.8299 4.39008 24.6959 4.39008C24.5197 4.39008 24.3443 4.43965 24.1912 4.5375C23.9215 4.70976 23.7583 5.00765 23.7583 5.32758V7.9705L14.4087 12.5284C13.6743 12.7719 8.05795 14.7715 6.41111 19.4365C4.96232 23.5406 5.73131 27.8688 6.1117 29.4844C4.83248 30.5166 1.89529 33.5137 1.68517 39.3959C1.67861 39.5783 1.7256 39.7588 1.82017 39.915L8.30908 50.6298C8.47924 50.9108 8.78369 51.0817 9.11088 51.0817C9.11967 51.0817 9.12846 51.0816 9.13724 51.0813C9.47439 51.0718 9.7806 50.882 9.93881 50.584C11.8909 46.9094 11.9163 43.6853 11.8525 42.5715L13.6327 40.2714C13.9009 40.7181 14.2569 41.2392 14.7204 41.7959C15.6863 42.9557 16.0972 44.4954 15.8478 46.02L14.8218 52.29C14.7406 52.7862 15.0652 53.258 15.5576 53.3596L24.5244 55.2089C26.2933 55.5737 28.106 55.7586 29.9121 55.7586C31.6842 55.7586 33.4635 55.5805 35.2004 55.2292L44.4397 53.3603C44.9339 53.2603 45.2605 52.7875 45.1791 52.29L44.1531 46.02C43.9036 44.4953 44.3145 42.9557 45.2804 41.7959C45.7439 41.2392 46.0999 40.718 46.3682 40.2714L48.1483 42.5714C48.0806 43.7463 48.1119 47.2684 50.3995 51.19C50.5677 51.4782 50.8763 51.6551 51.2093 51.6551C51.2136 51.6551 51.218 51.6551 51.2224 51.655C51.5605 51.6503 51.8699 51.4638 52.0321 51.1671L58.2015 39.8789C58.2823 39.731 58.3218 39.5641 58.3158 39.3959C58.1057 33.5137 55.1685 30.5166 53.8893 29.4844C54.2697 27.8688 55.0386 23.5406 53.5899 19.4365C51.943 14.7714 46.3267 12.7719 45.5923 12.5284L36.2426 7.97062V5.32758C36.2426 5.01082 36.0826 4.71551 35.8174 4.54242C35.6628 4.44152 35.4843 4.39008 35.305 4.39008Z" fill="#484F69"/>
<path d="M29.2651 29.308V33.5407C29.2651 33.8621 29.0301 34.1422 28.6953 34.2197L26.2474 34.7859C24.9849 35.078 22.9726 36.0254 22.9726 36.0254C22.2727 36.7477 18.7412 30.9521 21.511 30.9521L28.5144 28.6084C28.9289 28.6084 29.2651 28.9216 29.2651 29.308Z" fill="#9FABCE"/>
<path d="M30.6782 29.308V33.5407C30.6782 33.8621 30.9133 34.1422 31.2481 34.2197L33.6959 34.7859C34.9585 35.078 36.9707 36.0254 36.9707 36.0254C37.6707 36.7477 41.3351 30.9521 38.4324 30.9521L31.4289 28.6084C31.0144 28.6084 30.6782 28.9216 30.6782 29.308Z" fill="#9FABCE"/>
<path d="M25.901 7.07965L27.3689 8.99226C27.6502 9.35883 27.8671 9.77039 28.0104 10.2096L29.831 15.791C29.8518 15.8548 29.8624 15.9213 29.8624 15.9884C29.8624 16.6098 29.0644 16.8629 28.7057 16.3554C27.2546 14.3026 25.0051 10.5068 25.4369 7.20094C25.4667 6.97277 25.7609 6.89683 25.901 7.07965Z" fill="#9FABCE"/>
<path d="M17.2016 12.8422L23.1612 9.90901C23.7928 9.59811 24.5489 9.95143 24.7159 10.6353C24.9354 11.5341 25.3206 12.7716 25.9711 14.0169C26.3036 14.6533 25.7622 15.394 25.0556 15.2655L17.3441 13.8634C16.8292 13.7698 16.7319 13.0733 17.2016 12.8422Z" fill="#FF004F"/>
<path d="M19.9524 15.7509C19.9524 15.7509 15.5886 13.569 12.5202 14.9327C9.45172 16.2964 5.83801 18.6147 7.67903 29.1835C7.67903 29.1835 12.5202 25.5697 13.2021 22.9105C13.884 20.2513 16.8158 15.9554 19.9524 15.7509Z" fill="#FF004F"/>
<path d="M28.4126 18.3467C28.9594 18.6695 29.2939 19.2569 29.2939 19.8919V25.3669C29.2939 26.3869 28.5851 27.2414 27.6332 27.4646C27.0832 27.5937 26.5336 27.7248 25.9981 27.9046L20.1562 29.8653C19.0296 29.8653 17.967 29.3393 17.2893 28.4394C16.5682 27.4817 15.3235 26.3433 13.3661 26.0503C12.9551 25.9888 12.7539 25.5183 12.9999 25.1832C13.663 24.2796 14.6646 22.7639 14.975 21.4786C15.4523 19.5012 19.2025 16.0919 21.7935 15.8873C23.7054 15.7363 26.8801 17.4423 28.4126 18.3467Z" fill="#9FABCE"/>
<path d="M12.8927 28.5331V31.9108C12.8927 31.9108 11.3587 40.1777 7.22514 43.3141C6.62396 43.7702 5.75408 43.3964 5.66678 42.6469L5.18701 38.5292C5.07721 37.5865 5.20271 36.6312 5.55228 35.7487L7.8835 29.8653C7.8835 29.8653 10.4745 28.1607 11.5655 27.2061C12.2985 27.2061 12.8927 27.8003 12.8927 28.5331Z" fill="#9FABCE"/>
<path d="M5.67521 32.4781C5.86529 32.3277 6.12474 32.551 6.00685 32.7629C5.46134 33.7434 4.63552 35.4452 4.50404 36.9637C4.37454 38.4602 4.41357 40.5749 4.45669 41.8688C4.46583 42.1438 4.09669 42.241 3.96931 41.9972L3.33568 40.7843C3.06568 40.2675 2.93384 39.6896 2.95786 39.1071C3.02407 37.4986 3.44548 34.2443 5.67521 32.4781Z" fill="#9FABCE"/>
<path d="M13.1491 34.9315V35.961C13.1491 36.4046 13.071 36.8446 12.9151 37.26C12.581 38.15 11.8762 39.6971 10.7191 40.7312C10.5964 40.8409 10.4112 40.7006 10.4835 40.5527C11.029 39.4379 12.1994 36.95 12.8355 34.8834C12.8898 34.7075 13.1491 34.7474 13.1491 34.9315Z" fill="#9FABCE"/>
<path d="M29.2939 36.0003V40.5248C29.2939 40.8665 29.0169 41.1434 28.6753 41.1434H24.6194C24.22 41.1434 23.851 40.9305 23.6512 40.5848L23.1794 39.7688C22.7377 39.0049 22.9194 38.0338 23.6074 37.4811C24.6638 36.6322 26.4077 35.5589 28.62 35.3839C28.9823 35.3552 29.2939 35.6368 29.2939 36.0003Z" fill="#9FABCE"/>
<path d="M28.5459 50.144H25.6629C24.9317 50.144 24.3391 49.5513 24.3391 48.8203V43.5618C24.3391 42.8307 24.9318 42.2381 25.6629 42.2381H28.5459C28.9591 42.2381 29.2939 42.573 29.2939 42.9861V49.3959C29.2939 49.8091 28.959 50.144 28.5459 50.144Z" fill="#9FABCE"/>
<path d="M18.4647 38.7351L20.3299 40.8533C21.1157 41.7458 21.5492 42.8942 21.5492 44.0834V46.6689C21.5492 46.8721 21.3106 46.9815 21.1566 46.8489L19.5283 45.4467C18.5889 44.6379 18.0488 43.4598 18.0488 42.2202V38.8921C18.0488 38.6731 18.32 38.5706 18.4647 38.7351Z" fill="#9FABCE"/>
<path d="M18.7684 46.0544L20.6159 47.7662C21.211 48.3174 21.5492 49.0919 21.5492 49.903V51.8385C21.5492 52.2265 21.0747 52.4147 20.8088 52.1321L18.9072 50.1117C18.3559 49.5259 18.0488 48.7517 18.0488 47.9472V46.3687C18.0487 45.9949 18.4941 45.8004 18.7684 46.0544Z" fill="#9FABCE"/>
<path d="M34.0998 7.07965L32.6319 8.99226C32.3507 9.35883 32.1338 9.77039 31.9905 10.2096L30.1698 15.791C30.1491 15.8548 30.1384 15.9213 30.1384 15.9884C30.1384 16.6098 30.9365 16.8629 31.2952 16.3554C32.7462 14.3026 34.9957 10.5068 34.5639 7.20094C34.5342 6.97277 34.2401 6.89683 34.0998 7.07965Z" fill="#9FABCE"/>
<path d="M42.7993 12.8422L36.8398 9.90901C36.2081 9.59811 35.452 9.95143 35.2851 10.6353C35.0656 11.5341 34.6804 12.7716 34.0299 14.0169C33.6974 14.6533 34.2388 15.394 34.9453 15.2655L42.6568 13.8634C43.1718 13.7698 43.269 13.0733 42.7993 12.8422Z" fill="#FF004F"/>
<path d="M40.0486 15.7509C40.0486 15.7509 44.4124 13.569 47.4808 14.9327C50.5493 16.2964 54.163 18.6147 52.322 29.1835C52.322 29.1835 47.4808 25.5697 46.7989 22.9105C46.117 20.2513 43.1851 15.9554 40.0486 15.7509Z" fill="#FF004F"/>
<path d="M31.5883 18.3467C31.0415 18.6695 30.707 19.2569 30.707 19.8919V25.3669C30.707 26.3869 31.4158 27.2414 32.3677 27.4646C32.9178 27.5937 33.4673 27.7248 34.0028 27.9046L39.8447 29.8653C40.9712 29.8653 42.0339 29.3393 42.7116 28.4394C43.4327 27.4817 44.6774 26.3433 46.6348 26.0503C47.0458 25.9888 47.247 25.5183 47.001 25.1832C46.3379 24.2796 45.3363 22.7639 45.0259 21.4786C44.5486 19.5012 40.7984 16.0919 38.2074 15.8873C36.2954 15.7363 33.1207 17.4423 31.5883 18.3467Z" fill="#9FABCE"/>
<path d="M47.1082 28.5331V31.9108C47.1082 31.9108 48.6421 40.1777 52.7757 43.3141C53.3769 43.7702 54.2467 43.3964 54.3341 42.6469L54.8138 38.5292C54.9236 37.5865 54.7981 36.6312 54.4485 35.7487L52.1173 29.8653C52.1173 29.8653 49.5263 28.1607 48.4353 27.2061C47.7023 27.2061 47.1082 27.8003 47.1082 28.5331Z" fill="#9FABCE"/>
<path d="M54.3259 32.4781C54.1358 32.3277 53.8763 32.551 53.9942 32.7629C54.5397 33.7434 55.3655 35.4452 55.497 36.9637C55.6265 38.4602 55.5875 40.5749 55.5444 41.8688C55.5352 42.1438 55.9044 42.241 56.0318 41.9972L56.6654 40.7843C56.9354 40.2675 57.0672 39.6896 57.0432 39.1071C56.9769 37.4986 56.5556 34.2443 54.3259 32.4781Z" fill="#9FABCE"/>
<path d="M46.8521 34.9315V35.961C46.8521 36.4046 46.9301 36.8446 47.0861 37.26C47.4202 38.15 48.1249 39.6971 49.282 40.7312C49.4047 40.8409 49.5899 40.7006 49.5176 40.5527C48.9721 39.4379 47.8017 36.95 47.1656 34.8834C47.1113 34.7075 46.8521 34.7474 46.8521 34.9315Z" fill="#9FABCE"/>
<path d="M30.707 36.0003V40.5248C30.707 40.8665 30.9841 41.1434 31.3257 41.1434H35.3815C35.7809 41.1434 36.1499 40.9305 36.3497 40.5848L36.8215 39.7688C37.2632 39.0049 37.0816 38.0338 36.3936 37.4811C35.3371 36.6322 33.5932 35.5589 31.381 35.3839C31.0186 35.3552 30.707 35.6368 30.707 36.0003Z" fill="#9FABCE"/>
<path d="M31.455 50.144H34.3381C35.0692 50.144 35.6618 49.5513 35.6618 48.8203V43.5618C35.6618 42.8307 35.0691 42.2381 34.3381 42.2381H31.455C31.042 42.2381 30.707 42.573 30.707 42.9861V49.3959C30.707 49.8091 31.042 50.144 31.455 50.144Z" fill="#9FABCE"/>
<path d="M41.5362 38.7351L39.671 40.8533C38.8851 41.7458 38.4517 42.8942 38.4517 44.0834V46.6689C38.4517 46.8721 38.6903 46.9815 38.8442 46.8489L40.4726 45.4467C41.4119 44.6379 41.952 43.4598 41.952 42.2202V38.8921C41.952 38.6731 41.6809 38.5706 41.5362 38.7351Z" fill="#9FABCE"/>
<path d="M41.2325 46.0544L39.3849 47.7662C38.7899 48.3174 38.4517 49.0919 38.4517 49.903V51.8385C38.4517 52.2265 38.9262 52.4147 39.192 52.1321L41.0937 50.1117C41.645 49.5259 41.952 48.7517 41.952 47.9472V46.3687C41.9522 45.9949 41.5069 45.8004 41.2325 46.0544Z" fill="#9FABCE"/>
</svg>
