<svg viewBox="0 0 28 28" fill="none" xmlns="http://www.w3.org/2000/svg">
<path d="M16.4922 3.92168L16.9897 3.87193V3.87193L16.4922 3.92168ZM16.2174 2.71901L16.6119 2.41185V2.41185L16.2174 2.71901ZM17.0258 6.03671L17.3274 5.63788L17.0258 6.03671ZM17.4913 6.22953L17.5601 5.73429L17.4913 6.22953ZM19.3642 5.11132L19.6808 5.4983V5.4983L19.3642 5.11132ZM20.4089 4.4552L20.3471 3.95904L20.4089 4.4552ZM20.7541 4.47242L20.6433 4.95998L20.6433 4.95998L20.7541 4.47242ZM21.7284 5.22923L22.0819 4.87568V4.87568L21.7284 5.22923ZM22.7707 6.27161L22.4172 6.62517L22.7707 6.27161ZM23.5276 7.24585L23.04 7.35669L23.04 7.35669L23.5276 7.24585ZM23.5448 7.59108L23.0486 7.5293V7.5293L23.5448 7.59108ZM22.8886 8.63579L23.2756 8.9524V8.9524L22.8886 8.63579ZM21.7704 10.5087L22.2657 10.4399V10.4399L21.7704 10.5087ZM21.9632 10.9742L22.3621 10.6726V10.6726L21.9632 10.9742ZM24.0783 11.5078L24.0286 12.0053H24.0286L24.0783 11.5078ZM25.281 11.7826L24.9738 12.1771V12.1771L25.281 11.7826ZM25.5129 12.0389L25.9361 11.7725L25.5129 12.0389ZM25.513 15.961L25.9362 16.2274L25.513 15.961ZM25.2809 16.2175L24.9738 15.8229L24.9738 15.8229L25.2809 16.2175ZM24.0784 16.4922L24.1282 16.9897L24.0784 16.4922ZM21.9638 17.0256L21.565 16.7239V16.7239L21.9638 17.0256ZM21.7708 17.4915L21.2756 17.4228L21.2756 17.4228L21.7708 17.4915ZM22.8888 19.3639L22.5018 19.6805H22.5018L22.8888 19.3639ZM23.5448 20.4082L23.0486 20.4701V20.4701L23.5448 20.4082ZM23.5276 20.7538L23.04 20.6429V20.6429L23.5276 20.7538ZM20.7542 23.5271L20.6433 23.0395H20.6433L20.7542 23.5271ZM20.4089 23.5443L20.4707 23.0481H20.4707L20.4089 23.5443ZM19.3643 22.8882L19.6809 22.5012L19.6727 22.4945L19.6643 22.4882L19.3643 22.8882ZM19.3642 22.8881L19.0476 23.2751L19.0558 23.2818L19.0642 23.2881L19.3642 22.8881ZM17.4914 21.7699L17.4226 21.2747L17.4914 21.7699ZM17.0259 21.9628L16.7243 21.5639H16.7243L17.0259 21.9628ZM16.2173 25.2811L16.6118 25.5883L16.6118 25.5883L16.2173 25.2811ZM15.9612 25.5129L16.2277 25.936L15.9612 25.5129ZM12.0389 25.5129L12.3053 25.0898L12.3053 25.0898L12.0389 25.5129ZM11.7826 25.281L12.1771 24.9738L11.7826 25.281ZM11.5078 24.0783L11.0103 24.1281L11.5078 24.0783ZM10.9742 21.9632L11.2757 21.5644L11.2757 21.5644L10.9742 21.9632ZM10.5087 21.7704L10.5775 21.2752H10.5775L10.5087 21.7704ZM8.63577 22.8887L8.31915 22.5017L8.63577 22.8887ZM7.59101 23.5448L7.65278 24.041H7.65278L7.59101 23.5448ZM7.24583 23.5276L7.135 24.0152L7.135 24.0152L7.24583 23.5276ZM6.27156 22.7708L5.87156 23.0708L5.89288 23.0992L5.91801 23.1243L6.27156 22.7708ZM6.27155 22.7708L6.67155 22.4708L6.65023 22.4423L6.62511 22.4172L6.27155 22.7708ZM5.22921 21.7284L5.58276 21.3749L5.57237 21.3645L5.56139 21.3547L5.22921 21.7284ZM5.22919 21.7284L4.87564 22.0819L4.88603 22.0923L4.89701 22.1021L5.22919 21.7284ZM4.47238 20.7542L3.98482 20.865H3.98482L4.47238 20.7542ZM4.45516 20.4089L4.95133 20.4707L4.95133 20.4707L4.45516 20.4089ZM5.11129 19.3642L4.735 19.035L4.72955 19.0412L4.72431 19.0476L5.11129 19.3642ZM5.1113 19.3642L5.48759 19.6935L5.49304 19.6872L5.49828 19.6808L5.1113 19.3642ZM6.22954 17.4913L5.73429 17.5601L5.73429 17.5601L6.22954 17.4913ZM6.03672 17.0258L5.63788 17.3273L5.63788 17.3273L6.03672 17.0258ZM3.92168 16.4922L3.97143 15.9946H3.97143L3.92168 16.4922ZM2.71902 16.2174L2.41186 16.6119H2.41186L2.71902 16.2174ZM2.48708 15.9611L2.06394 16.2275L2.06394 16.2275L2.48708 15.9611ZM2.33334 14.7371H2.83334H2.33334ZM2.33334 13.2631H1.83334H2.33334ZM2.48714 12.0388L2.06404 11.7724L2.06404 11.7724L2.48714 12.0388ZM2.71893 11.7827L2.41172 11.3882L2.41172 11.3882L2.71893 11.7827ZM3.92182 11.5078L3.97158 12.0053H3.97158L3.92182 11.5078ZM6.03726 10.974L5.63837 10.6725H5.63837L6.03726 10.974ZM6.22995 10.5088L5.73472 10.4399V10.4399L6.22995 10.5088ZM5.1115 8.63545L5.49848 8.31884L5.1115 8.63545ZM4.45519 7.59038L4.95137 7.52869L4.45519 7.59038ZM4.4724 7.24549L3.98482 7.13473V7.13473L4.4724 7.24549ZM5.2294 6.27094L4.87584 5.91739L4.87584 5.91739L5.2294 6.27094ZM7.24588 4.47189L7.35671 4.95945L7.24588 4.47189ZM7.59107 4.45467L7.5293 4.95084L7.59107 4.45467ZM8.63591 5.11089L8.31929 5.49787L8.63591 5.11089ZM10.5086 6.2291L10.5773 6.72436L10.5086 6.2291ZM10.9744 6.03615L11.276 6.43493L11.276 6.43493L10.9744 6.03615ZM11.5079 3.92152L11.0103 3.87177V3.87177L11.5079 3.92152ZM11.7825 2.71911L11.388 2.41199L11.388 2.41199L11.7825 2.71911ZM12.039 2.487L11.7727 2.06384V2.06384L12.039 2.487ZM15.9611 2.48707L16.2275 2.06394V2.06394L15.9611 2.48707ZM16.9897 3.87193C16.9582 3.55693 16.9315 3.28427 16.8871 3.06339C16.8409 2.83379 16.7671 2.61113 16.6119 2.41185L15.8229 3.02617C15.845 3.05458 15.8761 3.10826 15.9067 3.26058C15.9391 3.42161 15.9612 3.63645 15.9947 3.97143L16.9897 3.87193ZM17.3274 5.63788C17.3006 5.61761 17.2308 5.54751 17.1631 5.23683C17.0963 4.93023 17.0527 4.50182 16.9897 3.87193L15.9947 3.97143C16.0551 4.57591 16.104 5.07328 16.1861 5.44973C16.2672 5.82212 16.4026 6.19234 16.7243 6.43554L17.3274 5.63788ZM17.5601 5.73429C17.4756 5.72255 17.3954 5.68935 17.3274 5.63788L16.7243 6.43554C16.9285 6.58998 17.1689 6.68955 17.4225 6.72478L17.5601 5.73429ZM19.0476 4.72434C18.5576 5.1252 18.2238 5.39727 17.9598 5.56683C17.6923 5.73863 17.5934 5.73891 17.5601 5.73429L17.4225 6.72478C17.822 6.78026 18.1795 6.6142 18.5002 6.40827C18.8244 6.20008 19.2106 5.88299 19.6808 5.4983L19.0476 4.72434ZM20.3471 3.95904C20.0965 3.99024 19.8869 4.09549 19.6919 4.22519C19.5043 4.34996 19.2926 4.52388 19.0476 4.72434L19.6808 5.4983C19.9414 5.28512 20.1089 5.14881 20.2456 5.05784C20.375 4.97181 20.4349 4.95582 20.4707 4.95137L20.3471 3.95904ZM20.865 3.98487C20.6952 3.94626 20.5199 3.93752 20.3471 3.95904L20.4707 4.95137C20.5283 4.9442 20.5867 4.94711 20.6433 4.95998L20.865 3.98487ZM22.0819 4.87568C21.8581 4.65183 21.6647 4.45772 21.4905 4.3149C21.3094 4.16644 21.1112 4.04085 20.865 3.98487L20.6433 4.95998C20.6784 4.96796 20.7364 4.98983 20.8566 5.08832C20.9836 5.19244 21.1367 5.34474 21.3748 5.58279L22.0819 4.87568ZM23.1243 5.91806L22.0819 4.87568L21.3748 5.58279L22.4172 6.62517L23.1243 5.91806ZM24.0151 7.13501C23.9591 6.88874 23.8335 6.69061 23.6851 6.50948C23.5423 6.33522 23.3481 6.14191 23.1243 5.91806L22.4172 6.62517C22.6552 6.86322 22.8075 7.01633 22.9117 7.14337C23.0101 7.26353 23.032 7.32158 23.04 7.35669L24.0151 7.13501ZM24.0409 7.65285C24.0625 7.48005 24.0537 7.30481 24.0151 7.13501L23.04 7.35669C23.0529 7.41329 23.0558 7.4717 23.0486 7.5293L24.0409 7.65285ZM23.2756 8.9524C23.4761 8.70739 23.65 8.49572 23.7748 8.30812C23.9045 8.11311 24.0097 7.90348 24.0409 7.65285L23.0486 7.5293C23.0442 7.56503 23.0282 7.62496 22.9421 7.75433C22.8512 7.8911 22.7148 8.05861 22.5017 8.31917L23.2756 8.9524ZM22.2657 10.4399C22.261 10.4066 22.2613 10.3077 22.4331 10.0402C22.6027 9.77615 22.8748 9.44235 23.2756 8.9524L22.5017 8.31917C22.117 8.78935 21.7999 9.17565 21.5917 9.49985C21.3857 9.82054 21.2197 10.1781 21.2752 10.5775L22.2657 10.4399ZM22.3621 10.6726C22.3106 10.6046 22.2774 10.5244 22.2657 10.4399L21.2752 10.5775C21.3104 10.8311 21.41 11.0715 21.5644 11.2757L22.3621 10.6726ZM24.1281 11.0103C23.4981 10.9473 23.0697 10.9037 22.7631 10.8369C22.4524 10.7692 22.3823 10.6994 22.3621 10.6726L21.5644 11.2757C21.8076 11.5974 22.1778 11.7328 22.5502 11.8139C22.9267 11.896 23.4241 11.9449 24.0286 12.0053L24.1281 11.0103ZM25.5882 11.3881C25.3889 11.2329 25.1662 11.1591 24.9366 11.1129C24.7157 11.0685 24.4431 11.0418 24.1281 11.0103L24.0286 12.0053C24.3636 12.0388 24.5784 12.0609 24.7394 12.0933C24.8918 12.1239 24.9454 12.155 24.9738 12.1771L25.5882 11.3881ZM25.9361 11.7725C25.8433 11.6251 25.7256 11.4951 25.5882 11.3881L24.9738 12.1771C25.0196 12.2128 25.0589 12.2561 25.0898 12.3053L25.9361 11.7725ZM26.1667 13.263C26.1667 12.9464 26.1673 12.6724 26.145 12.4482C26.1219 12.2151 26.0706 11.9862 25.9361 11.7725L25.0898 12.3053C25.109 12.3357 25.1346 12.3922 25.1499 12.5469C25.1661 12.7103 25.1667 12.9263 25.1667 13.263H26.1667ZM26.1667 14.7372V13.263H25.1667V14.7372H26.1667ZM25.9362 16.2274C26.0707 16.0137 26.1219 15.7848 26.145 15.5518C26.1672 15.3276 26.1667 15.0537 26.1667 14.7372H25.1667C25.1667 15.0738 25.1661 15.2897 25.1499 15.4531C25.1346 15.6077 25.109 15.6642 25.0898 15.6947L25.9362 16.2274ZM25.588 16.612C25.7255 16.505 25.8433 16.3748 25.9362 16.2274L25.0898 15.6947C25.0589 15.7438 25.0196 15.7872 24.9738 15.8229L25.588 16.612ZM24.1282 16.9897C24.4431 16.9582 24.7157 16.9315 24.9366 16.8871C25.1662 16.8409 25.3888 16.7671 25.588 16.612L24.9738 15.8229C24.9454 15.845 24.8917 15.8761 24.7394 15.9067C24.5784 15.9391 24.3636 15.9611 24.0287 15.9946L24.1282 16.9897ZM22.3626 17.3272C22.3828 17.3004 22.4529 17.2307 22.7636 17.1631C23.0701 17.0963 23.4984 17.0527 24.1282 16.9897L24.0287 15.9946C23.4243 16.0551 22.9271 16.104 22.5507 16.186C22.1784 16.2671 21.8082 16.4024 21.565 16.7239L22.3626 17.3272ZM22.2661 17.5602C22.2778 17.4756 22.311 17.3953 22.3626 17.3272L21.565 16.7239C21.4104 16.9283 21.3108 17.169 21.2756 17.4228L22.2661 17.5602ZM23.2758 19.0472C22.8751 18.5574 22.6031 18.2237 22.4335 17.9598C22.2618 17.6923 22.2615 17.5934 22.2661 17.5602L21.2756 17.4228C21.2202 17.8221 21.3862 18.1795 21.5921 18.5001C21.8003 18.8242 22.1173 19.2104 22.5018 19.6805L23.2758 19.0472ZM24.041 20.3464C24.0097 20.0958 23.9045 19.8863 23.7748 19.6913C23.6501 19.5038 23.4762 19.2922 23.2758 19.0472L22.5018 19.6805C22.715 19.941 22.8512 20.1084 22.9422 20.2451C23.0282 20.3745 23.0442 20.4344 23.0486 20.4701L24.041 20.3464ZM24.0151 20.8647C24.0538 20.6948 24.0625 20.5194 24.041 20.3464L23.0486 20.4701C23.0558 20.5278 23.0529 20.5862 23.04 20.6429L24.0151 20.8647ZM23.1245 22.0813C23.3483 21.8575 23.5423 21.6642 23.6851 21.49C23.8335 21.309 23.9591 21.1109 24.0151 20.8647L23.04 20.6429C23.032 20.678 23.0102 20.736 22.9117 20.8561C22.8076 20.9831 22.6554 21.1362 22.4174 21.3742L23.1245 22.0813ZM22.082 23.1238L23.1245 22.0813L22.4174 21.3742L21.3749 22.4167L22.082 23.1238ZM20.865 24.0146C21.1113 23.9586 21.3094 23.833 21.4905 23.6846C21.6648 23.5418 21.8581 23.3477 22.082 23.1238L21.3749 22.4167C21.1368 22.6547 20.9837 22.807 20.8567 22.9112C20.7365 23.0097 20.6785 23.0315 20.6433 23.0395L20.865 24.0146ZM20.3472 24.0404C20.52 24.062 20.6952 24.0532 20.865 24.0146L20.6433 23.0395C20.5867 23.0524 20.5283 23.0553 20.4707 23.0481L20.3472 24.0404ZM19.0476 23.2751C19.2926 23.4756 19.5043 23.6495 19.6919 23.7743C19.8869 23.904 20.0965 24.0092 20.3472 24.0404L20.4707 23.0481C20.435 23.0437 20.3751 23.0277 20.2457 22.9416C20.1089 22.8507 19.9414 22.7144 19.6809 22.5012L19.0476 23.2751ZM19.0642 23.2881L19.0643 23.2882L19.6643 22.4882L19.6642 22.4881L19.0642 23.2881ZM17.5602 22.2652C17.5934 22.2606 17.6923 22.2608 17.9599 22.4327C18.2239 22.6022 18.5577 22.8743 19.0476 23.2751L19.6808 22.5012C19.2107 22.1165 18.8244 21.7994 18.5002 21.5912C18.1795 21.3853 17.822 21.2192 17.4226 21.2747L17.5602 22.2652ZM17.3274 22.3616C17.3955 22.3101 17.4756 22.2769 17.5602 22.2652L17.4226 21.2747C17.169 21.3099 16.9286 21.4095 16.7243 21.5639L17.3274 22.3616ZM16.9897 24.1278C17.0527 23.4978 17.0964 23.0694 17.1632 22.7627C17.2309 22.452 17.3006 22.3819 17.3274 22.3616L16.7243 21.5639C16.4026 21.8072 16.2673 22.1774 16.1861 22.5498C16.1041 22.9263 16.0551 23.4237 15.9947 24.0283L16.9897 24.1278ZM16.6118 25.5883C16.767 25.389 16.8409 25.1663 16.8871 24.9366C16.9315 24.7157 16.9582 24.4429 16.9897 24.1278L15.9947 24.0283C15.9612 24.3634 15.9391 24.5783 15.9067 24.7394C15.8761 24.8918 15.845 24.9455 15.8228 24.9739L16.6118 25.5883ZM16.2277 25.936C16.3749 25.8432 16.5049 25.7256 16.6118 25.5883L15.8228 24.9739C15.7872 25.0196 15.7439 25.0589 15.6948 25.0898L16.2277 25.936ZM14.7369 26.1667C15.0536 26.1667 15.3276 26.1672 15.5518 26.145C15.785 26.1219 16.0139 26.0706 16.2277 25.936L15.6948 25.0898C15.6643 25.109 15.6078 25.1345 15.4532 25.1499C15.2897 25.1661 15.0737 25.1667 14.7369 25.1667V26.1667ZM13.263 26.1667H14.7369V25.1667H13.263V26.1667ZM11.7725 25.9361C11.9862 26.0706 12.2151 26.1219 12.4482 26.145C12.6724 26.1672 12.9464 26.1667 13.263 26.1667V25.1667C12.9263 25.1667 12.7103 25.1661 12.5469 25.1499C12.3923 25.1346 12.3358 25.109 12.3053 25.0898L11.7725 25.9361ZM11.3881 25.5882C11.4951 25.7256 11.6252 25.8433 11.7725 25.9361L12.3053 25.0898C12.2562 25.0589 12.2128 25.0196 12.1771 24.9738L11.3881 25.5882ZM11.0103 24.1281C11.0418 24.4431 11.0685 24.7157 11.1129 24.9366C11.1591 25.1662 11.2329 25.3889 11.3881 25.5882L12.1771 24.9738C12.155 24.9454 12.1239 24.8917 12.0933 24.7394C12.0609 24.5784 12.0389 24.3636 12.0054 24.0286L11.0103 24.1281ZM10.6726 22.3621C10.6995 22.3823 10.7692 22.4524 10.8369 22.7631C10.9037 23.0697 10.9473 23.4981 11.0103 24.1281L12.0054 24.0286C11.9449 23.4241 11.896 22.9267 11.8139 22.5502C11.7328 22.1778 11.5974 21.8076 11.2757 21.5644L10.6726 22.3621ZM10.4399 22.2657C10.5245 22.2774 10.6046 22.3106 10.6727 22.3621L11.2757 21.5644C11.0715 21.41 10.8311 21.3104 10.5775 21.2752L10.4399 22.2657ZM8.95238 23.2756C9.44235 22.8748 9.77615 22.6027 10.0402 22.4331C10.3078 22.2613 10.4066 22.261 10.4399 22.2657L10.5775 21.2752C10.1781 21.2197 9.82056 21.3857 9.49986 21.5917C9.17565 21.7999 8.78935 22.117 8.31915 22.5017L8.95238 23.2756ZM7.65278 24.041C7.90341 24.0098 8.11306 23.9045 8.30807 23.7748C8.49568 23.65 8.70736 23.4761 8.95238 23.2756L8.31915 22.5017C8.05858 22.7149 7.89106 22.8512 7.75429 22.9422C7.62492 23.0282 7.56498 23.0442 7.52925 23.0486L7.65278 24.041ZM7.135 24.0152C7.30478 24.0538 7.47999 24.0625 7.65278 24.041L7.52925 23.0486C7.47166 23.0558 7.41325 23.0529 7.35665 23.04L7.135 24.0152ZM5.91801 23.1243C6.14186 23.3482 6.33518 23.5423 6.50944 23.6851C6.69058 23.8336 6.88871 23.9592 7.135 24.0152L7.35666 23.04C7.32155 23.0321 7.2635 23.0102 7.14333 22.9117C7.01629 22.8076 6.86317 22.6553 6.62511 22.4172L5.91801 23.1243ZM5.87155 23.0708L5.87156 23.0708L6.67156 22.4708L6.67155 22.4708L5.87155 23.0708ZM4.87565 22.082L5.918 23.1243L6.62511 22.4172L5.58276 21.3749L4.87565 22.082ZM4.89701 22.1021L4.89703 22.1021L5.56139 21.3547L5.56138 21.3547L4.89701 22.1021ZM3.98482 20.865C4.0408 21.1113 4.16639 21.3094 4.31485 21.4905C4.45767 21.6648 4.65179 21.8581 4.87564 22.0819L5.58275 21.3748C5.3447 21.1368 5.19239 20.9837 5.08827 20.8566C4.98979 20.7365 4.96792 20.6784 4.95994 20.6433L3.98482 20.865ZM3.95899 20.3472C3.93748 20.52 3.94622 20.6952 3.98482 20.865L4.95994 20.6433C4.94707 20.5867 4.94416 20.5283 4.95133 20.4707L3.95899 20.3472ZM4.72431 19.0476C4.52384 19.2926 4.34992 19.5043 4.22514 19.6919C4.09545 19.8869 3.99019 20.0965 3.95899 20.3472L4.95133 20.4707C4.95578 20.435 4.97176 20.3751 5.0578 20.2457C5.14877 20.1089 5.28508 19.9414 5.49827 19.6808L4.72431 19.0476ZM4.73501 19.035L4.735 19.035L5.48758 19.6935L5.48759 19.6935L4.73501 19.035ZM5.73429 17.5601C5.73891 17.5934 5.73864 17.6922 5.56682 17.9598C5.39726 18.2238 5.12519 18.5576 4.72432 19.0476L5.49828 19.6808C5.88298 19.2106 6.20007 18.8243 6.40826 18.5001C6.6142 18.1795 6.78027 17.8219 6.72478 17.4225L5.73429 17.5601ZM5.63788 17.3273C5.68936 17.3954 5.72255 17.4756 5.73429 17.5601L6.72478 17.4225C6.68955 17.1689 6.58998 16.9285 6.43555 16.7242L5.63788 17.3273ZM3.87193 16.9897C4.50182 17.0527 4.93023 17.0963 5.23684 17.1631C5.54751 17.2308 5.61762 17.3005 5.63788 17.3273L6.43555 16.7242C6.19235 16.4026 5.82212 16.2672 5.44974 16.1861C5.07329 16.104 4.57592 16.0551 3.97143 15.9946L3.87193 16.9897ZM2.41186 16.6119C2.61114 16.7671 2.8338 16.8409 3.0634 16.8871C3.28428 16.9315 3.55693 16.9582 3.87193 16.9897L3.97143 15.9946C3.63645 15.9611 3.42162 15.9391 3.26059 15.9067C3.10827 15.8761 3.05459 15.845 3.02618 15.8229L2.41186 16.6119ZM2.06394 16.2275C2.15672 16.3749 2.27445 16.5049 2.41186 16.6119L3.02618 15.8229C2.98038 15.7872 2.94114 15.7438 2.91021 15.6947L2.06394 16.2275ZM1.83334 14.7371C1.83334 15.0536 1.83277 15.3276 1.855 15.5518C1.87811 15.7849 1.92939 16.0138 2.06394 16.2275L2.91021 15.6947C2.89103 15.6643 2.86545 15.6077 2.85012 15.4531C2.83392 15.2897 2.83334 15.0737 2.83334 14.7371H1.83334ZM1.83334 13.2631L1.83334 14.7371H2.83334L2.83334 13.2631H1.83334ZM2.06404 11.7724C1.92943 11.9861 1.87812 12.2151 1.85501 12.4482C1.83277 12.6724 1.83334 12.9464 1.83334 13.2631H2.83334C2.83334 12.9263 2.83392 12.7103 2.85013 12.5468C2.86546 12.3922 2.89105 12.3357 2.91024 12.3052L2.06404 11.7724ZM2.41172 11.3882C2.27442 11.4951 2.15677 11.6251 2.06404 11.7724L2.91024 12.3052C2.94115 12.2561 2.98037 12.2128 3.02614 12.1772L2.41172 11.3882ZM3.87207 11.0103C3.55701 11.0418 3.2843 11.0685 3.06337 11.1129C2.83373 11.1591 2.61103 11.233 2.41172 11.3882L3.02614 12.1772C3.05455 12.155 3.10824 12.1239 3.26058 12.0933C3.42165 12.0609 3.63652 12.0388 3.97158 12.0053L3.87207 11.0103ZM5.63837 10.6725C5.61811 10.6994 5.548 10.7691 5.23727 10.8368C4.9306 10.9036 4.5021 10.9473 3.87207 11.0103L3.97158 12.0053C4.57619 11.9449 5.07367 11.8959 5.45019 11.8139C5.82265 11.7327 6.19294 11.5973 6.43615 11.2755L5.63837 10.6725ZM5.73472 10.4399C5.72297 10.5244 5.6898 10.6045 5.63837 10.6725L6.43615 11.2755C6.59043 11.0714 6.68993 10.8311 6.72518 10.5777L5.73472 10.4399ZM4.72452 8.95207C5.12549 9.44214 5.39764 9.77603 5.56724 10.0401C5.73909 10.3078 5.73935 10.4067 5.73472 10.4399L6.72518 10.5777C6.78075 10.1782 6.61467 9.82058 6.40869 9.49981C6.20045 9.17554 5.88328 8.78914 5.49848 8.31884L4.72452 8.95207ZM3.95901 7.65207C3.99019 7.90278 4.09546 8.11249 4.2252 8.30756C4.35 8.49523 4.52399 8.70697 4.72452 8.95207L5.49848 8.31884C5.28522 8.05819 5.14886 7.89062 5.05787 7.75379C4.9718 7.62438 4.95582 7.56443 4.95137 7.52869L3.95901 7.65207ZM3.98482 7.13473C3.94628 7.30438 3.93755 7.47943 3.95901 7.65207L4.95137 7.52869C4.94422 7.47114 4.94713 7.41279 4.95997 7.35624L3.98482 7.13473ZM4.87584 5.91739C4.65193 6.1413 4.45775 6.33468 4.31489 6.50899C4.16639 6.69018 4.04078 6.88837 3.98482 7.13473L4.95997 7.35624C4.96795 7.32112 4.98982 7.26306 5.08833 7.14286C5.19248 7.01578 5.34483 6.86262 5.58295 6.62449L4.87584 5.91739ZM4.87585 5.91738L4.87584 5.91739L5.58295 6.62449L5.58296 6.62449L4.87585 5.91738ZM5.91806 4.87518L4.87585 5.91738L5.58296 6.62449L6.62516 5.58228L5.91806 4.87518ZM7.13505 3.98433C6.88877 4.04031 6.69064 4.1659 6.50949 4.31437C6.33523 4.45719 6.14191 4.65132 5.91806 4.87518L6.62516 5.58228C6.86322 5.34422 7.01634 5.19191 7.14339 5.08779C7.26355 4.9893 7.3216 4.96743 7.35671 4.95945L7.13505 3.98433ZM7.65284 3.9585C7.48005 3.93699 7.30484 3.94573 7.13505 3.98433L7.35671 4.95945C7.41331 4.94659 7.47171 4.94367 7.5293 4.95084L7.65284 3.9585ZM8.95253 4.72391C8.70747 4.52341 8.49578 4.34947 8.30815 4.22468C8.11313 4.09497 7.90348 3.9897 7.65284 3.9585L7.5293 4.95084C7.56503 4.95529 7.62497 4.97127 7.75436 5.05733C7.89115 5.14831 8.05869 5.28465 8.31929 5.49787L8.95253 4.72391ZM10.4399 5.73384C10.4066 5.73846 10.3078 5.73817 10.0402 5.56635C9.7762 5.39679 9.44242 5.12474 8.95253 4.72391L8.31929 5.49787C8.78943 5.88253 9.17568 6.19959 9.49984 6.40777C9.82047 6.61369 10.1779 6.77976 10.5773 6.72436L10.4399 5.73384ZM10.6728 5.63737C10.6047 5.68889 10.5245 5.72211 10.4399 5.73384L10.5773 6.72436C10.8311 6.68915 11.0717 6.5895 11.276 6.43493L10.6728 5.63737ZM11.0103 3.87177C10.9474 4.50153 10.9037 4.92984 10.8369 5.23639C10.7693 5.547 10.6996 5.61711 10.6728 5.63737L11.276 6.43493C11.5976 6.19173 11.7329 5.82157 11.814 5.44927C11.896 5.07289 11.9449 4.57563 12.0054 3.97128L11.0103 3.87177ZM11.388 2.41199C11.2329 2.61125 11.1591 2.83386 11.1129 3.06342C11.0685 3.28425 11.0418 3.55684 11.0103 3.87177L12.0054 3.97128C12.0389 3.63637 12.0609 3.42158 12.0933 3.26058C12.1239 3.1083 12.155 3.05462 12.1771 3.02622L11.388 2.41199ZM11.7727 2.06384C11.6252 2.15666 11.495 2.27448 11.388 2.41199L12.1771 3.02622C12.2128 2.98038 12.2562 2.94111 12.3053 2.91017L11.7727 2.06384ZM13.2628 1.83333C12.9463 1.83333 12.6724 1.83276 12.4482 1.85498C12.2152 1.87808 11.9864 1.92934 11.7727 2.06384L12.3053 2.91017C12.3358 2.891 12.3923 2.86543 12.5469 2.8501C12.7103 2.83391 12.9262 2.83333 13.2628 2.83333V1.83333ZM14.7371 1.83333H13.2628V2.83333H14.7371V1.83333ZM16.2275 2.06394C16.0138 1.92938 15.7849 1.8781 15.5518 1.85499C15.3276 1.83276 15.0537 1.83333 14.7371 1.83333V2.83333C15.0737 2.83333 15.2897 2.83391 15.4532 2.85011C15.6078 2.86544 15.6643 2.89102 15.6947 2.9102L16.2275 2.06394ZM16.6119 2.41185C16.505 2.27444 16.3749 2.15671 16.2275 2.06394L15.6947 2.9102C15.7439 2.94113 15.7872 2.98037 15.8229 3.02617L16.6119 2.41185ZM18.1667 14C18.1667 16.3012 16.3012 18.1667 14 18.1667V19.1667C16.8535 19.1667 19.1667 16.8535 19.1667 14H18.1667ZM14 9.83333C16.3012 9.83333 18.1667 11.6988 18.1667 14H19.1667C19.1667 11.1465 16.8535 8.83333 14 8.83333V9.83333ZM9.83335 14C9.83335 11.6988 11.6988 9.83333 14 9.83333V8.83333C11.1465 8.83333 8.83335 11.1465 8.83335 14H9.83335ZM14 18.1667C11.6988 18.1667 9.83335 16.3012 9.83335 14H8.83335C8.83335 16.8535 11.1465 19.1667 14 19.1667V18.1667Z" fill="currentColor"/>
</svg>
